<?xml version="1.0" encoding="utf-8"?>
<!-- Generator: Adobe Illustrator 22.1.0, SVG Export Plug-In . SVG Version: 6.00 Build 0)  -->
<svg version="1.1" id="Calque_1" xmlns="http://www.w3.org/2000/svg" xmlns:xlink="http://www.w3.org/1999/xlink" x="0px" y="0px"
	 viewBox="0 0 125 150.2" style="enable-background:new 0 0 125 150.2;" xml:space="preserve">
<style type="text/css">
	.st0{opacity:0.36;fill:#C5C589;enable-background:new    ;}
	.st1{fill:#C3BF9A;}
	.st2{fill:#575756;}
</style>
<title>Fichier 4</title>
<g id="Calque_2_1_">
	<g id="Desktop">
		<path class="st0" d="M115.9,73.3c6.1,7.3,9.1,16.2,9.1,26.5c0,8.7-2.5,17.3-7.2,24.7c-4.8,7.6-12.3,13.8-22.3,18.5
			s-22.6,7.1-37.5,7.1c-10.4,0-20.7-1.1-30.9-3.3c-9.4-1.9-18.5-5.2-27-9.8l16.8-36.5c6.1,3.5,12.6,6.2,19.4,8
			c6.5,1.8,13.2,2.7,20,2.7c5.7,0,10.3-1,13.8-2.9c3.5-2,5.2-4.8,5.2-8.4c0-6.7-5.8-10.1-17.4-10.1H38.4V59.3l21.6-22H7.6V0H117
			v30.4L89.8,58.1C101.1,60.9,109.8,66,115.9,73.3z"/>
		<path class="st1" d="M29,70.3l12.7,2.2c0,0,9.4,24.7,32.9,29.7c0,0,9.5,2.6,18.1-0.4c0,0-2.7,2.7-3.8,2.8c0,0-32.7,1.4-46.4-4.9
			C42.5,99.7,31.6,85.5,29,70.3z"/>
		<path class="st2" d="M123.2,74.3c-0.1-0.4-0.5-0.6-0.9-0.6l0,0c-11.4,2.7-17.6,8.9-20.6,13c0.4-0.9,0.8-1.9,1.2-2.9
			c0.1-0.2,0.1-0.5,0-0.7l0,0c-0.2-0.4-0.5-0.7-0.9-0.7L29.4,69.7c-0.4-0.1-0.8,0.1-0.9,0.4l0,0c-0.1,0.2-0.2,0.5-0.1,0.7
			c2.4,10.4,6.8,20.3,13,29.1c0.4,0.4,1,0.7,1.6,0.8c-0.2,0-0.3,0-0.5,0h-0.1c-6.3,0-11.4,5.1-11.5,11.4c0,1.1,0.2,2.2,0.5,3.2
			c-0.5,0.8-1.4,2.5-0.6,3.6s2.1,0.9,3,0.7c0.2,0.2,0.3,0.4,0.5,0.6c2.1,2.2,5,3.4,8.1,3.4h0.3c1.2,0.1,2.3-0.1,3.4-0.5
			c4.6-1.6,7.8-5.9,7.8-10.8c0-0.5,0-1.1-0.1-1.6c2.4-1.3,5.1-2.7,7.9-4.4c1.4-0.9,3.1-0.8,4.4,0.2c1,0.9,1.9,1.9,2.8,2.9
			c0.4,0.5,0.9,1,1.3,1.5l10.4,11.3l0.1,0.1c0.8,0.8,1.9,1.2,3.1,1.2c1,0,1.9-0.3,2.7-0.8c1.2-0.9,2.8-4.7,4.3-8.4
			c0.2-0.6,0.4-1,0.5-1.3l9.5-21.6c0.1-0.1,5.3-12.3,22-16.2l0,0C123.1,75.2,123.3,74.8,123.2,74.3
			C123.2,74.4,123.2,74.3,123.2,74.3z M31.9,118.1c-0.1-0.1,0-0.5,0.1-0.9c0.2,0.4,0.4,0.7,0.6,1.1C32.2,118.3,32,118.2,31.9,118.1z
			 M32.4,112.1c0.1-5.5,4.5-9.9,10-9.9h0.1c4.5,0.1,8.5,3.2,9.5,7.6c-2.4,1.3-4.6,2.3-6.5,3.3c0.4-1.2,0-2.5-0.9-3.3
			c-0.5-0.6-1.2-0.9-2-1c-1.8-0.2-3.5,1.1-3.7,3c-0.2,1.5,0.7,2.8,2,3.4c-3.6,1.6-5.9,2.4-6.8,2.7C32.9,116.2,32.3,114.2,32.4,112.1
			L32.4,112.1z M44.1,111.7c0.3,1-0.4,2-1.4,2.3c-0.3,0.1-0.6,0.1-0.9,0c-0.7-0.2-1.2-0.7-1.3-1.3c-0.3-1,0.4-2,1.4-2.3
			c0.3-0.1,0.6-0.1,0.9,0C43.5,110.5,44,111,44.1,111.7L44.1,111.7z M46.6,121.2c-1.3,0.7-2.8,1-4.3,1h-0.1c-2.6,0-5.2-1.1-7-3
			c5.8-2.2,11.5-4.8,17-7.8c0,0.3,0,0.6,0,0.8C52.2,116.1,50,119.5,46.6,121.2L46.6,121.2z M60.9,105c-2.7,1.5-5.2,2.9-7.5,4.1
			c-0.7-2.8-2.5-5.2-5-6.7c4.4,1,8.8,1.8,13.3,2.2C61.4,104.7,61.1,104.9,60.9,105z M89.9,112.4c-0.1,0.3-0.3,0.8-0.6,1.3
			c-0.8,1.9-2.8,7-3.8,7.8c-1.2,0.7-2.7,0.6-3.8-0.2L71.2,110c-0.4-0.5-0.9-1-1.3-1.5c-0.9-1.1-1.8-2.2-2.9-3.1
			c-0.1-0.1-0.3-0.2-0.4-0.3c4,0.3,8.6,0.4,13.8,0.4c2.7,0,5.5,0,8.5-0.1c0.8,0.1,3.2-0.3,7.3-7.2L89.9,112.4z M89,103.9L89,103.9
			h-0.2c-30,1-42.8-3.5-45.8-4.7c-0.4-0.1-0.7-0.4-0.9-0.7c-5.6-8.1-9.8-17.2-12.1-26.8c0-0.2,0.1-0.3,0.2-0.4c0,0,0.1,0,0.1,0
			l70,12.4c0.4,0.1,0.7,0.5,0.6,0.9c0,0,0,0.1,0,0.1C93.2,103.8,89,103.9,89,103.9z"/>
	</g>
</g>
</svg>
