<svg xmlns="http://www.w3.org/2000/svg" viewBox="0 0 125 150.17"><defs><style>.cls-1{fill:#c5c589;opacity:0.17;}.cls-2{fill:#c3bf9a;}.cls-3{fill:#575756;}</style></defs><title>Fichier 4</title><g id="Calque_2" data-name="Calque 2"><g id="Desktop"><path class="cls-1" d="M115.88,73.3q9.12,11,9.12,26.53a45.2,45.2,0,0,1-7.24,24.65Q110.53,135.91,95.43,143t-37.54,7.13A144.91,144.91,0,0,1,27,146.81,96,96,0,0,1,0,137l16.78-36.49a77.16,77.16,0,0,0,19.4,8,78.62,78.62,0,0,0,20,2.73q8.59,0,13.84-2.94t5.24-8.39q0-10.06-17.4-10.06H38.38V59.35l21.6-22H7.55V0H117V30.41L89.77,58.1Q106.75,62.29,115.88,73.3Z"/><path class="cls-2" d="M29,70.34l12.69,2.24s9.38,24.65,32.93,29.66c0,0,9.46,2.57,18.06-.36,0,0-2.69,2.71-3.83,2.75,0,0-32.7,1.38-46.38-4.91C42.45,99.72,31.56,85.49,29,70.34Z"/><path class="cls-3" d="M123.2,74.33a.74.74,0,0,0-.86-.55h0c-11.36,2.69-17.57,8.89-20.58,13,.39-.92.79-1.88,1.19-2.89a.92.92,0,0,0,0-.71h0a1.19,1.19,0,0,0-.91-.73L29.39,69.69a.89.89,0,0,0-.94.43h0a1,1,0,0,0-.12.73,81.23,81.23,0,0,0,13,29.06,3.47,3.47,0,0,0,1.56.81c-.16,0-.32,0-.48,0h-.1a11.44,11.44,0,0,0-11,14.65c-.48.76-1.39,2.46-.65,3.58s2.1.86,3,.69a6.52,6.52,0,0,0,.5.55,11.38,11.38,0,0,0,8.06,3.43h.32a9,9,0,0,0,3.41-.51,11.65,11.65,0,0,0,7.82-10.84,11.87,11.87,0,0,0-.11-1.58c2.42-1.28,5.06-2.72,7.93-4.36a3.83,3.83,0,0,1,4.42.19,26.5,26.5,0,0,1,2.75,2.92c.44.53.89,1,1.34,1.54l10.4,11.34.08.09a4.16,4.16,0,0,0,3.09,1.2,4.54,4.54,0,0,0,2.69-.81c1.22-.92,2.8-4.66,4.32-8.42.23-.57.41-1,.53-1.3l9.47-21.64c.06-.13,5.27-12.25,22-16.19h0A.73.73,0,0,0,123.2,74.33ZM31.93,118.1c-.1-.14,0-.5.14-.93a11.3,11.3,0,0,0,.59,1.08C32.18,118.26,32,118.16,31.93,118.1Zm.44-6a10,10,0,0,1,10-9.88h.09A10,10,0,0,1,52,109.85q-3.61,1.89-6.52,3.27a3,3,0,0,0-.92-3.3,3.12,3.12,0,0,0-2-1,3.34,3.34,0,0,0-1.64,6.4c-3.61,1.6-5.87,2.42-6.77,2.73A9.88,9.88,0,0,1,32.37,112.05Zm11.78-.38A1.88,1.88,0,0,1,41.87,114a1.84,1.84,0,0,1-1.34-1.35,1.88,1.88,0,0,1,2.28-2.28A1.85,1.85,0,0,1,44.15,111.67Zm2.5,9.49a9.34,9.34,0,0,1-4.29,1h-.11a9.92,9.92,0,0,1-7-3,140,140,0,0,0,17-7.75c0,.27,0,.55,0,.83A10,10,0,0,1,46.65,121.16ZM60.87,105q-4,2.3-7.49,4.12a11.26,11.26,0,0,0-5-6.71,96.81,96.81,0,0,0,13.3,2.2A7.48,7.48,0,0,0,60.87,105Zm29,7.44c-.12.28-.31.75-.55,1.34-.78,1.92-2.84,7-3.84,7.8a3.32,3.32,0,0,1-3.8-.22L71.2,110c-.43-.48-.86-1-1.3-1.49A25.86,25.86,0,0,0,67,105.37a4.6,4.6,0,0,0-.45-.32c4,.28,8.58.45,13.78.45,2.66,0,5.48,0,8.46-.14.77.09,3.23-.32,7.35-7.18ZM89,103.9l-.09,0h-.1c-30,1-42.79-3.47-45.78-4.73a2.08,2.08,0,0,1-.91-.72A80.46,80.46,0,0,1,30,71.69a.3.3,0,0,1,.35-.36l70,12.36a.77.77,0,0,1,.57,1C93.16,103.81,89,103.89,89,103.9Z"/></g></g></svg>