<?xml version="1.0" encoding="utf-8"?>
<!-- Generator: Adobe Illustrator 22.1.0, SVG Export Plug-In . SVG Version: 6.00 Build 0)  -->
<svg version="1.1" id="Calque_1" xmlns="http://www.w3.org/2000/svg" xmlns:xlink="http://www.w3.org/1999/xlink" x="0px" y="0px"
	 viewBox="0 0 122.4 145.6" style="enable-background:new 0 0 122.4 145.6;" xml:space="preserve">
<style type="text/css">
	.st0{opacity:0.36;fill:#C5C589;enable-background:new    ;}
	.st1{fill:#E29F4F;}
	.st2{fill:#C4C488;}
	.st3{fill:#575756;}
	.st4{fill:#9E4B58;}
</style>
<title>Fichier 3</title>
<g id="Calque_2_1_">
	<g id="Desktop">
		<path class="st0" d="M122.4,108.4v37.2H8.3v-29.5l51.5-47.6c4.5-4.2,7.5-7.8,9-10.8c1.4-2.7,2.2-5.7,2.2-8.8
			c0.2-3.2-1.2-6.2-3.6-8.2c-2.4-2-5.8-3-10.3-3c-4.3,0-8.5,1.2-12.2,3.5c-3.8,2.3-6.9,5.7-8.8,9.8L0,33
			C5.4,22.8,13.7,14.4,23.8,8.9C34.2,3,46.9,0,61.6,0c11.2,0,21.2,1.8,29.9,5.5s15.5,8.9,20.3,15.7c4.9,6.8,7.5,15,7.3,23.4
			c0.1,7.6-1.7,15.2-5,22.1c-3.3,6.8-9.8,14.6-19.4,23.3l-20.3,18.5H122.4z"/>
		<ellipse transform="matrix(0.9869 -0.1616 0.1616 0.9869 -16.9081 9.707)" class="st1" cx="51.2" cy="108.8" rx="7.7" ry="12.3"/>
		
			<ellipse transform="matrix(6.122279e-02 -0.9981 0.9981 6.122279e-02 -23.5955 110.7234)" class="st2" cx="47.1" cy="67.9" rx="18.9" ry="2"/>
		<path class="st3" d="M55.8,96.5L55.8,96.5L55.8,96.5L55.8,96.5c-0.1-0.1-0.3-0.2-0.5-0.2c-0.4,0-0.8,0.4-0.8,0.8
			c0,0.2,0.1,0.4,0.2,0.5l0,0c0.6,0.6,1.2,1.4,1.6,2.1c-1,2.8-3.2,4.9-6,5.9c0.8-4.8,3.8-22.1,3.6-30.9v-0.1c0-0.7-0.5-1.3-1.2-1.5
			c-1-0.1-2,0.8-3.9,5.6c0.3-3.9,1.7-23.1,0.5-28.5c-0.2-0.7-0.9-2.3-2-2.3l0,0c-1.2,0-1.7,1.5-2.1,2.8c0,0.2-4.4,22.3-1.3,37.9
			l-0.2-0.3c-1.7-2.7-2.3-2.7-2.9-2.5c-0.9,0.4-0.7,1.6-0.3,3.2c1.4,5.2,3.3,10.2,5.8,14.9l0,0c0.2,0.4,0.7,0.6,1.1,0.4
			c0.3-0.1,0.5-0.4,0.4-0.7c0-0.1,0-0.2-0.1-0.3l0,0c-2.3-4.5-4.1-9.2-5.5-14c1.2,1.8,1.9,2.6,2.8,2.2c0.5-0.2,1-0.8,0.3-3
			c-3.1-15.3,1.2-37.2,1.3-37.4c0.1-0.5,0.3-1,0.5-1.4c0.2,0.3,0.3,0.6,0.5,0.9c1.2,5.6-0.6,28.4-0.6,28.6v0.1c0,0.6,0,1.8,1,2
			s1.5-0.7,1.9-1.4v-0.1c0.6-1.6,1.3-3.2,2.2-4.7c0.1,9.2-3.1,27.4-3.7,30.8c-1.5,0.1-3,0-4.4-0.4l0,0c-0.4-0.1-0.9,0.2-0.9,0.6
			c-0.1,0.4,0.2,0.8,0.6,0.9l0,0c1.2,0.3,2.5,0.5,3.7,0.5c4.1,0,7.9-2.3,9.7-6c3,7.3,0.1,17.4-0.7,19.9H40.8c-0.4-1.2-0.7-2.3-1-3.4
			c1.5,0.4,3.1,0.6,4.6,0.6c0.5,0,1.1,0,1.6-0.1l0,0c0.4,0,0.7-0.4,0.7-0.8c0-0.4-0.4-0.8-0.8-0.8l0,0c-2.2,0.2-4.5,0-6.6-0.8
			c-0.3-1.3-0.5-2.5-0.6-3.6c2.6,0.7,5.4,1,8.1,0.9c0.9,0,1.9,0,3-0.1H50l0,0c0.4,0,0.8-0.4,0.8-0.8s-0.4-0.8-0.8-0.8l0,0
			c-7.8,0.3-10.6-0.7-11.3-1c-0.2-1.9-0.3-3.9-0.3-5.8c0-0.9,1.7-2,2.9-2.4l0,0c0.4-0.2,0.6-0.7,0.4-1.1c-0.2-0.4-0.6-0.5-1-0.4l0,0
			c-0.5,0.2-4.1,1.6-4,4c0,6,0.9,11.9,2.8,17.6l0.2,0.6h18l0.2-0.5C58.1,121.8,64,105,55.8,96.5z"/>
		<ellipse class="st2" cx="78" cy="70.2" rx="2" ry="4.7"/>
		<ellipse transform="matrix(0.5841 -0.8117 0.8117 0.5841 -39.864 92.0135)" class="st2" cx="69.9" cy="84.9" rx="1.6" ry="3.2"/>
		<ellipse transform="matrix(0.8183 -0.5749 0.5749 0.8183 -33.3801 64.2142)" class="st2" cx="84.9" cy="84.9" rx="5.4" ry="3.1"/>
		
			<ellipse transform="matrix(0.9101 -0.4144 0.4144 0.9101 -41.3716 41.5788)" class="st4" cx="75.1" cy="116.1" rx="8.4" ry="5.3"/>
		<path class="st3" d="M81.4,90.8c0.2,0,0.3,0,0.5,0c2.4,0,5.7-1.8,8.1-4.3l0.3-0.3c1.4-1.3,2.6-2.7,3.8-4.2c1.1-1.7,1.2-3,0.2-4
			c-2-2-7.8-1.5-11,1.7S77.8,88,79.8,90l0.1,0.1c-1.1,2.7-1.8,5.4-2.3,8.2C75.1,89.9,77,80,77.9,76.1c1.1-0.1,2.3-0.9,3.6-2.4
			c1.4-1.7,2.5-3.6,3.2-5.6c0.7-1.6,0.8-3.4,0.3-5c-0.5-1.3-1.5-2.3-2.8-2.7c-1-0.4-4.6-1.1-6.6,4.5c-1.2,3.5-1.4,9.1,0.8,10.8
			c-1.2,4.8-1.7,9.7-1.6,14.7c-0.3-0.4-0.6-0.8-0.9-1.2c0.5-0.9,0.4-2.2-0.5-4c-0.9-1.6-2-3.1-3.3-4.5c-1.1-1.2-2.6-2.2-4.2-2.7
			c-1.3-0.5-2.8-0.2-3.9,0.6c-1,1-1.5,2.3-1.4,3.7c0.3,1.4,1.2,2.6,2.5,3.2c0.9,0.5,1.9,1.1,2.9,1.7c2.4,1.5,4.6,2.8,6.2,2.8
			c0.1,0,0.2,0,0.4,0c1.2,1.5,2.1,3.3,2.7,5.2c0.4,2.3,1,4.6,1.9,6.7c-0.2,2.3-0.3,4.7-0.1,7c-6.1,0.9-10.8,5.4-10.8,10.9
			c0,0.9,0.2,1.8,0.4,2.6l0.1,0.7l24.9-0.1l0.2-0.6c0.2-0.8,0.3-1.7,0.4-2.6c0-6.1-5.8-11.1-13-11.1c-0.2,0-0.4,0-0.6,0
			C78.2,102.6,79.2,96.5,81.4,90.8z M84.4,81.1c1.7-1.6,3.9-2.4,6.2-2.4c0.9-0.1,1.8,0.2,2.6,0.7c0.2,0.2,0.5,0.5-0.4,1.9
			c-1.1,1.4-2.3,2.7-3.6,3.9l-0.3,0.3C85.8,88.6,81.9,90,81,89S81.4,84.1,84.4,81.1L84.4,81.1z M66.8,85.9c-1-0.6-2-1.2-3-1.7
			c-0.9-0.3-1.5-1.1-1.7-2c-0.1-0.9,0.3-1.7,0.9-2.3c0.3-0.3,0.8-0.4,1.2-0.4c0.4,0,0.7,0.1,1.1,0.2c1.3,0.4,2.5,1.2,3.5,2.2
			c1.2,1.2,2.2,2.6,3,4.1c0.8,1.5,0.8,2.3,0.5,2.5C71.8,88.9,68.6,86.9,66.8,85.9z M77.1,65.5c0.5-1.5,1.7-3.7,3.6-3.7
			c0.3,0,0.7,0.1,1,0.2c0.8,0.3,1.5,0.9,1.8,1.8c0.4,1.3,0.3,2.7-0.3,4c-0.7,1.9-1.7,3.6-2.9,5.1c-1.1,1.3-2.2,2-2.8,1.8
			C76.2,74,75.8,69.3,77.1,65.5z M90.5,119.8c0,0.5-0.1,1.1-0.2,1.6L68,121.5c-0.1-0.5-0.2-1.1-0.2-1.7c0-4.6,4-8.5,9.3-9.3
			c0,0.4,0.1,0.8,0.1,1.2h-0.7c-0.1,0-0.2,0-0.3,0c-0.1,0.1-0.3,0.1-0.3,0.3c-0.2,0.2-0.2,0.5-0.1,0.8l0.1,0.2
			c0.1,0.2,0.3,0.3,0.6,0.4h0.3c4.2,0,6-1.4,6.7-2.3C87.6,112.5,90.5,115.9,90.5,119.8z M79.2,110.4c0.8,0,1.6,0.1,2.4,0.2
			c-0.8,0.5-1.7,0.9-2.7,1c0-0.4-0.1-0.8-0.1-1.2L79.2,110.4z"/>
	</g>
</g>
</svg>
