<?xml version="1.0" encoding="utf-8"?>
<!-- Generator: Adobe Illustrator 22.1.0, SVG Export Plug-In . SVG Version: 6.00 Build 0)  -->
<svg version="1.1" id="Calque_1" xmlns="http://www.w3.org/2000/svg" xmlns:xlink="http://www.w3.org/1999/xlink" x="0px" y="0px"
	 viewBox="0 0 74.8 147" style="enable-background:new 0 0 74.8 147;" xml:space="preserve">
<style type="text/css">
	.st0{opacity:0.35;fill:#C5C589;enable-background:new    ;}
	.st1{fill:#A59954;}
	.st2{fill:#C7C38C;}
	.st3{fill:#585856;}
	.st4{fill:none;}
</style>
<title>Fichier 1</title>
<g id="Calque_2_1_">
	<g id="Desktop">
		<path class="st0" d="M74.8,0v147H25.2V37.4H0V0H74.8z"/>
		<rect x="-7.6" y="93.1" transform="matrix(0.14 -0.9901 0.9901 0.14 -81.5842 100.0582)" class="st1" width="48.9" height="7.8"/>
		<ellipse transform="matrix(0.8058 -0.5922 0.5922 0.8058 -52.9382 42.2793)" class="st2" cx="38" cy="101.9" rx="3.1" ry="7.4"/>
		
			<ellipse transform="matrix(0.2726 -0.9621 0.9621 0.2726 -52.7682 112.3795)" class="st2" cx="47.9" cy="91.1" rx="9.3" ry="4.4"/>
		<path class="st3" d="M59.7,70c-0.8-9.1-3.5-15.6-8.2-19.2c-2.9-2.2-6.5-3.3-10.1-2.9c-1.1,0.1-2.2,0.3-3.3,0.7
			c-1.9-0.7-4-0.9-6-0.7c-12.8,0.8-16.6,17.2-17.3,21.3l0,0L14.6,70l0,0l-7.5,53.6h58.6L59.7,70z M41.5,49.6L41.5,49.6
			c3.3-0.3,6.4,0.6,8.9,2.6c4.1,3.2,6.6,8.9,7.4,17h-7.6c-0.9-8.7-3.6-14.9-8.1-18.4c-0.5-0.4-1-0.7-1.5-1
			C40.9,49.7,41.2,49.7,41.5,49.6z M48.5,69.2H26c1-3.6,4.8-15.5,12.2-18.7c1.1,0.4,2.1,1,3,1.7C45.2,55.3,47.7,61.1,48.5,69.2
			L48.5,69.2z M32.2,49.6L32.2,49.6c1.2-0.1,2.4-0.1,3.5,0.1c-7.4,4.6-10.8,16.4-11.6,19.4h-7.6C17.3,64.9,21,50.3,32.2,49.6z
			 M9.2,121.8L16.3,71h7.6l-5.1,50.9L9.2,121.8z M25.6,71H58l5.8,50.9H20.5L25.6,71z"/>
		<path class="st4" d="M46.6,92c0,0.1,0,0.1,0,0.2 M46.6,92c0,0.1,0,0.1,0,0.2"/>
		<path class="st3" d="M52.1,76.8c-0.9-0.7-2-1-3.1-0.8c-3.5,0.7-5.4,4.8-6.3,7.2c-1.1,3.4-1.6,7-1.2,10.6c0.1,1.7,0.3,3.5,0.7,5.2
			c0.1,0.9,0.4,1.7,0.6,2.6c0,0.1,0.2,0.4,0.3,0.8s0.4,0.9,0.5,1.3c0.1,1.1,0.2,2.3,0.4,3.4l-0.9-0.8c-1.6-6.1-3.5-12.5-6.9-13.7
			c-1.3-0.4-2.6-0.1-3.6,0.8c-1.7,1.3-2.4,3.5-1.8,5.5c1.1,4.1,6,8,11.1,8.7c0.8,0.7,1.7,1.4,2.6,2c0.2,0.7,0.4,1.3,0.5,1.8v0.1
			c0.2,0.5,0.7,0.7,1.2,0.5c0.5-0.2,0.7-0.7,0.5-1.2l0,0c-0.7-2.1-1.1-4.4-1.3-6.6c5-5.4,8.1-12.3,8.8-19.6
			C54.3,82.4,54.2,78.5,52.1,76.8z M35.4,100.4c1.2,1.6,2.4,3.2,3.8,4.7c-3.4-1.4-6.1-4.2-6.7-6.6c-0.5-1.3,0-2.8,1.1-3.7
			c0.4-0.4,0.9-0.6,1.5-0.6c0.2,0,0.3,0,0.5,0.1c2.2,0.7,3.9,5.8,5,9.7c-1.3-1.4-2.6-2.9-3.7-4.5l-0.1-0.1c-0.1-0.2-0.3-0.3-0.5-0.3
			h-0.2c-0.4,0-0.8,0.3-0.9,0.7c0,0.1,0,0.1,0,0.2C35.2,100.1,35.3,100.3,35.4,100.4z M52.4,84.5c-0.6,6.3-3.1,12.3-7.2,17.2
			c0-3.2,0.4-6.5,1.3-9.6c0,0,0-0.1,0-0.2l0,0c0-0.5-0.4-0.9-0.9-0.9c-0.3,0-0.6,0.2-0.8,0.4c0,0.1-0.1,0.2-0.1,0.3
			c-0.5,2-0.9,4-1.1,6c-0.2-1.4-0.4-2.7-0.5-4.1c-0.3-3.3,0.1-6.7,1.1-9.9c0.6-1.7,2.3-5.5,5-6.1c0.2,0,0.3-0.1,0.5-0.1
			c0.4,0,0.9,0.1,1.2,0.4C52,79,52.6,81.4,52.4,84.5L52.4,84.5z"/>
	</g>
</g>
</svg>
