<svg xmlns="http://www.w3.org/2000/svg" viewBox="0 0 77.21 151.83"><defs><style>.cls-1,.cls-4{fill:#fff;}.cls-1{opacity:0.34;}.cls-2{fill:#a59954;}.cls-3{fill:#c7c38c;}.cls-5{fill:none;}</style></defs><title>formule_1</title><g id="Calque_2" data-name="Calque 2"><g id="Desktop"><path class="cls-1" d="M77.21,0V151.83H26V38.61H0V0Z"/><rect class="cls-2" x="20.79" y="76.28" width="12.88" height="50.52" transform="matrix(0.99, 0.14, -0.14, 0.99, 14.24, -2.78)"/><ellipse class="cls-3" cx="46.47" cy="106.21" rx="3.22" ry="7.68" transform="translate(-53.87 48.14) rotate(-36.31)"/><ellipse class="cls-3" cx="56.73" cy="95.09" rx="9.57" ry="4.54" transform="translate(-50.23 123.75) rotate(-74.18)"/><path class="cls-4" d="M68.85,73.26c-.8-9.43-3.64-16.09-8.45-19.81a14.4,14.4,0,0,0-10.45-3,12.11,12.11,0,0,0-3.38.72,14.11,14.11,0,0,0-6.25-.72c-13.19.78-17.1,17.76-17.88,22h0l-.1.76h0L14.6,128.67H75.16Zm-18.75-21h.11a12.7,12.7,0,0,1,9.11,2.65c4.21,3.27,6.77,9.18,7.62,17.56H59.13c-.88-9-3.69-15.42-8.37-19a14.77,14.77,0,0,0-1.59-1.07C49.48,52.34,49.79,52.3,50.1,52.28Zm7.21,20.2H34c1-3.75,4.93-16,12.58-19.34a12.77,12.77,0,0,1,3.08,1.78C53.9,58.19,56.46,64.1,57.31,72.48ZM40.47,52.28h.1a11.2,11.2,0,0,1,3.5.14c-7.6,4.8-11.14,17-11.94,20.07H24.3C25.14,68.06,28.86,52.92,40.47,52.28ZM16.69,126.85,24,74.3h7.83l-5.32,52.55Zm17-52.55H67.13l6,52.55H28.35Z"/><path class="cls-5" d="M55.31,96a.88.88,0,0,1,0,.17m0-.17a.88.88,0,0,1,0,.17"/><path class="cls-4" d="M61.06,80.3a3.74,3.74,0,0,0-3.25-.78c-3.56.72-5.6,5-6.5,7.45A26.9,26.9,0,0,0,50,97.91a47.09,47.09,0,0,0,.69,5.37,24,24,0,0,0,.63,2.65c0,.1.16.43.32.84s.37.94.51,1.32a32.75,32.75,0,0,0,.38,3.52c-.28-.23-.6-.49-.93-.78C50,104.57,48,97.89,44.52,96.69a3.83,3.83,0,0,0-3.72.8A5.1,5.1,0,0,0,39,103.2c1.14,4.23,6.23,8.21,11.43,9a26.09,26.09,0,0,0,2.71,2.11c.19.74.38,1.35.53,1.81a.3.3,0,0,0,0,.1.9.9,0,0,0,.85.56.92.92,0,0,0,.92-.92.93.93,0,0,0-.07-.33v0a28.9,28.9,0,0,1-1.31-6.82A34.07,34.07,0,0,0,63.16,88.4C63.29,86.16,63.17,82.13,61.06,80.3Zm-17.3,24.43a42.43,42.43,0,0,0,3.93,4.82c-3.54-1.46-6.28-4.34-7-6.82a3.33,3.33,0,0,1,1.17-3.79,2.55,2.55,0,0,1,1.52-.62,1.28,1.28,0,0,1,.51.09c2.22.77,4,6,5.16,10a42.14,42.14,0,0,1-3.8-4.64l-.07-.09a.82.82,0,0,0-.55-.32l-.16,0a.9.9,0,0,0-.89.73,1,1,0,0,0,0,.18A.91.91,0,0,0,43.76,104.73ZM61.35,88.3A32.2,32.2,0,0,1,54,106.09a38.4,38.4,0,0,1,1.33-9.91.88.88,0,0,0,0-.17h0a.91.91,0,0,0-1.7-.45,1.48,1.48,0,0,0-.1.27A42.1,42.1,0,0,0,52.35,102a41.86,41.86,0,0,1-.5-4.22A24.85,24.85,0,0,1,53,87.59c.61-1.71,2.34-5.72,5.13-6.29a3.39,3.39,0,0,1,.54,0,1.69,1.69,0,0,1,1.16.43C61,82.63,61.51,85.11,61.35,88.3Z"/></g></g></svg>