<svg xmlns="http://www.w3.org/2000/svg" viewBox="0 0 134.47 155.07"><defs><style>.cls-1,.cls-3{fill:#fff;}.cls-1{opacity:0.34;}.cls-2{fill:#c3bf9a;}</style></defs><title>Fichier 3</title><g id="Calque_2" data-name="Calque 2"><g id="Desktop"><path class="cls-1" d="M119.66,75.69q9.41,11.37,9.42,27.4a46.74,46.74,0,0,1-7.47,25.45q-7.48,11.81-23.07,19.16t-38.77,7.37a149.76,149.76,0,0,1-31.94-3.47A99.41,99.41,0,0,1,0,141.42l17.33-37.68a80.06,80.06,0,0,0,20,8.23A81.14,81.14,0,0,0,58,114.78c5.92,0,10.68-1,14.29-3s5.42-4.91,5.42-8.66q0-10.4-18-10.4H39.63V61.29L61.94,38.55H7.8V0H120.85V31.4L92.69,60Q110.24,64.33,119.66,75.69Z"/><path class="cls-2" d="M37.15,73.67,50.26,76s9.69,25.46,34,30.63c0,0,9.77,2.65,18.65-.37,0,0-2.78,2.8-4,2.83,0,0-33.76,1.43-47.89-5.06C51.06,104,39.82,89.31,37.15,73.67Z"/><path class="cls-3" d="M134.45,77.78a.76.76,0,0,0-.89-.56h0c-11.74,2.78-18.15,9.18-21.25,13.44.4-1,.81-1.93,1.23-3a1,1,0,0,0,0-.74h0a1.23,1.23,0,0,0-.93-.75L37.58,73a.94.94,0,0,0-1,.45h0a1,1,0,0,0-.13.75,84,84,0,0,0,13.45,30,3.57,3.57,0,0,0,1.62.84c-.17,0-.33,0-.5,0H51A11.83,11.83,0,0,0,39.6,120.14c-.5.78-1.44,2.53-.67,3.69s2.17.89,3.08.71c.17.2.33.39.51.57a11.72,11.72,0,0,0,8.33,3.54h.32a9.18,9.18,0,0,0,3.53-.52,12,12,0,0,0,8.07-11.2,12.63,12.63,0,0,0-.11-1.63c2.49-1.32,5.22-2.81,8.18-4.5a4,4,0,0,1,4.57.2,26.36,26.36,0,0,1,2.84,3q.69.83,1.38,1.59l10.74,11.71.09.09a4.26,4.26,0,0,0,3.18,1.24,4.75,4.75,0,0,0,2.79-.83c1.26-1,2.89-4.82,4.46-8.7.23-.58.42-1,.55-1.34l9.78-22.35c0-.13,5.43-12.64,22.69-16.72h0A.76.76,0,0,0,134.45,77.78ZM40.2,123c-.1-.14,0-.51.14-1a10.73,10.73,0,0,0,.62,1.1C40.45,123.15,40.24,123.05,40.2,123Zm.46-6.24A10.3,10.3,0,0,1,51,106.53H51A10.27,10.27,0,0,1,61,114.47c-2.48,1.3-4.73,2.42-6.72,3.38a3.68,3.68,0,0,0-3-4.46A3.45,3.45,0,0,0,49.58,120c-3.73,1.65-6.07,2.5-7,2.81A10.22,10.22,0,0,1,40.66,116.74Zm12.16-.39a1.93,1.93,0,0,1-2.35,2.35,1.89,1.89,0,0,1-1.39-1.39A1.93,1.93,0,0,1,51.43,115,1.89,1.89,0,0,1,52.82,116.35Zm2.58,9.8a9.68,9.68,0,0,1-4.43,1h-.11a10.22,10.22,0,0,1-7.23-3.05,144,144,0,0,0,17.58-8,8,8,0,0,1,0,.85A10.37,10.37,0,0,1,55.4,126.15Zm14.69-16.68c-2.79,1.59-5.36,3-7.74,4.27a11.74,11.74,0,0,0-3-5.2,12.5,12.5,0,0,0-2.19-1.74,97.47,97.47,0,0,0,13.73,2.27A9,9,0,0,0,70.09,109.47Zm30,7.69c-.13.29-.32.78-.57,1.38-.8,2-2.94,7.28-4,8a3.44,3.44,0,0,1-3.93-.21L80.76,114.57c-.46-.49-.9-1-1.35-1.54a26.77,26.77,0,0,0-3-3.19,3.54,3.54,0,0,0-.46-.33c4.14.29,8.86.46,14.23.46,2.74,0,5.66,0,8.74-.14.79.09,3.33-.33,7.58-7.41Zm-.92-8.84-.1,0h-.09c-30.94,1-44.2-3.58-47.28-4.88a2.23,2.23,0,0,1-.94-.75A83.56,83.56,0,0,1,38.23,75.06a.32.32,0,0,1,.37-.38l72.32,12.78a.78.78,0,0,1,.59,1.07C103.42,108.23,99.1,108.31,99.12,108.32Z"/></g></g></svg>