<svg xmlns="http://www.w3.org/2000/svg" viewBox="0 0 126.44 150.38"><defs><style>.cls-1,.cls-4{fill:#fff;}.cls-1{opacity:0.34;}.cls-2{fill:#e29f4f;}.cls-3{fill:#c4c488;}.cls-5{fill:#9e4b58;}</style></defs><title>formule_2</title><g id="Calque_2" data-name="Calque 2"><g id="Desktop"><path class="cls-1" d="M126.44,111.94v38.44H8.61V119.93L61.75,70.78Q68.68,64.27,71,59.65a20.11,20.11,0,0,0,2.31-9,10.45,10.45,0,0,0-3.68-8.51q-3.68-3-10.6-3a24,24,0,0,0-12.61,3.57,23.5,23.5,0,0,0-9,10.09L0,34A61.34,61.34,0,0,1,24.57,9.14Q40.74,0,63.64,0,81.07,0,94.51,5.67t21,16.17A40.32,40.32,0,0,1,123.07,46a51.46,51.46,0,0,1-5.14,22.78q-5.15,10.62-20.06,24l-21,19.11Z"/><ellipse class="cls-2" cx="60.12" cy="113.37" rx="7.98" ry="12.68" transform="translate(-17.53 11.21) rotate(-9.3)"/><ellipse class="cls-3" cx="55.83" cy="71.15" rx="19.47" ry="2.1" transform="translate(-18.6 122.52) rotate(-86.49)"/><path class="cls-4" d="M64.8,100.65h0l0,0h0a.85.85,0,0,0-.56-.22.84.84,0,0,0-.83.84.83.83,0,0,0,.2.53h0A11.89,11.89,0,0,1,65.25,104a10,10,0,0,1-6.17,6.06c.87-4.94,3.91-22.81,3.7-32V78a1.63,1.63,0,0,0-1.25-1.52c-1-.12-2.1.83-4.06,5.73.31-4,1.77-23.84.53-29.47-.23-.72-.89-2.36-2.12-2.36h0c-1.2,0-1.77,1.52-2.14,2.88-.05.23-4.59,23-1.32,39.15l-.22-.32c-1.56-2.76-2.24-2.77-2.81-2.54-1,.37-.73,1.65-.34,3.27a78.36,78.36,0,0,0,6,15.43h0a.81.81,0,0,0,.72.44.83.83,0,0,0,.83-.83.82.82,0,0,0-.08-.35h0a81.26,81.26,0,0,1-5.66-14.41c1.21,1.83,2,2.68,2.89,2.28.53-.25,1-.82.34-3.16-3.26-15.76,1.25-38.39,1.28-38.56a6.26,6.26,0,0,1,.55-1.45,4.18,4.18,0,0,1,.48,1c1.28,5.82-.62,29.34-.64,29.57v.09c0,.56.05,1.87,1,2.11s1.57-.69,2-1.48l.05-.1a23.11,23.11,0,0,1,2.3-4.8c.11,9.49-3.16,28.26-3.8,31.85a13.06,13.06,0,0,1-4.55-.38h0a.84.84,0,0,0-.41,1.63h0a15.39,15.39,0,0,0,3.84.51,11.09,11.09,0,0,0,10-6.25c3.09,7.58.13,18-.67,20.51H49.33c-.39-1.19-.71-2.37-1-3.53a17.75,17.75,0,0,0,4.78.61c.54,0,1.1,0,1.7-.06v0a.83.83,0,0,0,.75-.82.85.85,0,0,0-.84-.84h0a15.68,15.68,0,0,1-6.78-.78c-.27-1.32-.48-2.58-.64-3.76a28.45,28.45,0,0,0,8.38.92c.94,0,2,0,3.1-.07h.11v0a.83.83,0,0,0-.07-1.65h0c-8,.35-10.92-.67-11.72-1a51.65,51.65,0,0,1-.31-6c-.06-.91,1.77-2,3-2.49h0a.84.84,0,0,0,.49-1.08.83.83,0,0,0-1.08-.49h0c-.52.2-4.26,1.67-4.11,4.09a57.61,57.61,0,0,0,2.89,18.2l.19.57h18.6l.2-.56C67.19,126.8,73.28,109.46,64.8,100.65Z"/><ellipse class="cls-3" cx="87.81" cy="73.47" rx="2.03" ry="4.86"/><ellipse class="cls-3" cx="79.36" cy="88.7" rx="1.66" ry="3.32" transform="translate(-38.99 101.32) rotate(-54.26)"/><ellipse class="cls-3" cx="94.86" cy="88.7" rx="5.57" ry="3.17" transform="translate(-33.75 70.65) rotate(-35.09)"/><ellipse class="cls-5" cx="84.82" cy="120.97" rx="8.67" ry="5.48" transform="translate(-42.5 46.01) rotate(-24.48)"/><path class="cls-4" d="M91.33,94.85a3.88,3.88,0,0,0,.48,0c2.45,0,5.85-1.9,8.37-4.41l.32-.33a36.33,36.33,0,0,0,3.9-4.29c1.18-1.71,1.26-3.09.25-4.1-2.06-2.05-8.07-1.54-11.4,1.79S87.56,92,89.63,94.09l.15.12a42.83,42.83,0,0,0-2.43,8.48c-2.54-8.85-.61-19,.35-23,1.12-.09,2.38-.9,3.68-2.44A19.16,19.16,0,0,0,94.7,71.4,7.69,7.69,0,0,0,95,66.19a4.64,4.64,0,0,0-2.87-2.82c-1.07-.38-4.74-1.17-6.82,4.7-1.27,3.57-1.48,9.4.78,11.11a58.7,58.7,0,0,0-1.67,15.14,10.83,10.83,0,0,0-.91-1.24Q84.35,91.67,83,89a21,21,0,0,0-3.42-4.64,9.86,9.86,0,0,0-4.34-2.71,4.05,4.05,0,0,0-4,.65,4.61,4.61,0,0,0-1.45,3.84,4.41,4.41,0,0,0,2.59,3.28c.94.5,2,1.13,3,1.75,2.53,1.53,4.79,2.91,6.41,2.91a2.22,2.22,0,0,0,.37,0,15.33,15.33,0,0,1,2.78,5.32,29.26,29.26,0,0,0,2,7,45.14,45.14,0,0,0-.13,7.23c-6.32.91-11.15,5.6-11.15,11.24a18.85,18.85,0,0,0,.36,2.72l.14.67,25.76-.09.15-.65a14.58,14.58,0,0,0,.42-2.65c0-6.3-6-11.42-13.42-11.42-.2,0-.39,0-.58,0A42.45,42.45,0,0,1,91.33,94.85Zm3.1-10.11a9.27,9.27,0,0,1,6.36-2.52,4,4,0,0,1,2.67.73c.16.16.54.53-.44,2A33.9,33.9,0,0,1,99.32,89l-.33.33c-3.18,3.18-7.15,4.64-8.17,3.62S91.26,87.91,94.43,84.74Zm-18.23,5c-1-.62-2.09-1.27-3.07-1.8a2.83,2.83,0,0,1-1.72-2,3,3,0,0,1,1-2.4,1.78,1.78,0,0,1,1.26-.41,4.24,4.24,0,0,1,1.11.16,8.38,8.38,0,0,1,3.58,2.26,19.74,19.74,0,0,1,3.14,4.25c.79,1.52.78,2.33.54,2.57C81.41,92.87,78,90.81,76.2,89.7ZM86.88,68.63c.54-1.53,1.69-3.86,3.69-3.86a3.1,3.1,0,0,1,1,.18,2.93,2.93,0,0,1,1.85,1.81,6.17,6.17,0,0,1-.29,4.08,18.13,18.13,0,0,1-3,5.29c-1.13,1.31-2.23,2-2.84,1.81C85.91,77.46,85.48,72.56,86.88,68.63Zm13.84,56.13a10.15,10.15,0,0,1-.23,1.62l-23,.09a11.94,11.94,0,0,1-.21-1.71c0-4.77,4.16-8.74,9.62-9.57,0,.4.1.82.15,1.23h-.7a1,1,0,0,0-.3,0,.85.85,0,0,0-.37.27.87.87,0,0,0-.12.81l.09.16a.78.78,0,0,0,.57.38h.28c4.38,0,6.18-1.45,6.89-2.38C97.66,117.17,100.72,120.67,100.72,124.76ZM89,115a14.16,14.16,0,0,1,2.46.22,6.29,6.29,0,0,1-2.76,1c-.05-.41-.11-.82-.15-1.22Z"/></g></g></svg>