<svg xmlns="http://www.w3.org/2000/svg" viewBox="0 0 74.78 147.03"><defs><style>.cls-1{fill:#c5c589;opacity:0.17;}.cls-2{fill:#a59954;}.cls-3{fill:#c7c38c;}.cls-4{fill:#585856;}.cls-5{fill:none;}</style></defs><title>Fichier 1</title><g id="Calque_2" data-name="Calque 2"><g id="Desktop"><path class="cls-1" d="M74.78,0V147H25.21V37.39H0V0Z"/><rect class="cls-2" x="13.16" y="72.54" width="7.76" height="48.92" transform="matrix(0.99, 0.14, -0.14, 0.99, 13.52, -1.42)"/><ellipse class="cls-3" cx="38" cy="101.86" rx="3.12" ry="7.44" transform="translate(-52.94 42.28) rotate(-36.31)"/><ellipse class="cls-3" cx="47.94" cy="91.09" rx="9.27" ry="4.39" transform="translate(-52.77 112.38) rotate(-74.18)"/><path class="cls-4" d="M59.67,70c-.77-9.13-3.52-15.59-8.18-19.19a13.91,13.91,0,0,0-10.11-2.89,11.75,11.75,0,0,0-3.28.69,13.5,13.5,0,0,0-6.05-.69c-12.78.75-16.56,17.2-17.31,21.32h0l-.1.73h0L7.14,123.6H65.78ZM41.52,49.63h.1a12.27,12.27,0,0,1,8.82,2.56c4.09,3.17,6.56,8.9,7.39,17H50.27c-.86-8.73-3.58-14.93-8.11-18.43a15.3,15.3,0,0,0-1.54-1A8.54,8.54,0,0,1,41.52,49.63Zm7,19.56H26c1-3.63,4.77-15.46,12.17-18.73a12.45,12.45,0,0,1,3,1.72C45.2,55.35,47.67,61.08,48.5,69.19ZM32.19,49.63h.1a10.65,10.65,0,0,1,3.39.13C28.32,54.4,24.89,66.17,24.12,69.19H16.53C17.34,64.91,21,50.25,32.19,49.63Zm-23,72.21L16.25,71h7.58l-5.15,50.88ZM25.61,71H58l5.8,50.88H20.45Z"/><path class="cls-5" d="M46.56,92c0,.07,0,.12,0,.17m0-.17c0,.07,0,.12,0,.17"/><path class="cls-4" d="M52.13,76.77A3.58,3.58,0,0,0,49,76c-3.45.69-5.42,4.81-6.29,7.21a26,26,0,0,0-1.24,10.6,45.84,45.84,0,0,0,.67,5.2,20.43,20.43,0,0,0,.61,2.56c0,.1.15.42.31.82s.36.9.49,1.27a31.17,31.17,0,0,0,.37,3.42l-.9-.76c-1.56-6.06-3.52-12.53-6.88-13.69a3.71,3.71,0,0,0-3.61.77,4.93,4.93,0,0,0-1.76,5.53c1.11,4.1,6,8,11.07,8.7a25.54,25.54,0,0,0,2.62,2c.18.72.37,1.31.52,1.75l0,.1a.89.89,0,0,0,1.65-.67,0,0,0,0,0,0,0,28.25,28.25,0,0,1-1.27-6.6,33,33,0,0,0,8.8-19.64C54.29,82.44,54.17,78.54,52.13,76.77ZM35.37,100.42a42.9,42.9,0,0,0,3.81,4.67c-3.43-1.42-6.08-4.2-6.73-6.61a3.2,3.2,0,0,1,1.13-3.67,2.44,2.44,0,0,1,1.47-.6,1.41,1.41,0,0,1,.49.09c2.15.74,3.9,5.77,5,9.66a41.49,41.49,0,0,1-3.68-4.5l-.07-.08a.84.84,0,0,0-.53-.32h-.15a.87.87,0,0,0-.87.7,1,1,0,0,0,0,.18A.91.91,0,0,0,35.37,100.42Zm17-15.9a31.24,31.24,0,0,1-7.15,17.22,37.2,37.2,0,0,1,1.29-9.6s0-.1,0-.17h0a.88.88,0,0,0-1.64-.44,1.72,1.72,0,0,0-.1.26,39.18,39.18,0,0,0-1.12,6,38.64,38.64,0,0,1-.49-4.08,24.26,24.26,0,0,1,1.14-9.88c.59-1.65,2.28-5.54,5-6.08a2.52,2.52,0,0,1,.52-.06A1.65,1.65,0,0,1,51,78.1C52,79,52.57,81.42,52.41,84.52Z"/></g></g></svg>