<?xml version="1.0" encoding="utf-8"?>
<!-- Generator: Adobe Illustrator 22.1.0, SVG Export Plug-In . SVG Version: 6.00 Build 0)  -->
<svg version="1.1" id="Calque_1" xmlns="http://www.w3.org/2000/svg" xmlns:xlink="http://www.w3.org/1999/xlink" x="0px" y="0px"
	 viewBox="0 0 373.1 373.1" style="enable-background:new 0 0 373.1 373.1;" xml:space="preserve">
<style type="text/css">
	.st0{fill:#EFECE8;}
	.st1{fill:#DFDEBC;}
	.st2{fill:#CBC6A2;}
	.st3{fill:#FFFFFF;}
	.st4{fill:#C3BF9A;}
	.st5{fill:#C5C589;}
	.st6{fill:#F3F3F3;}
	.st7{enable-background:new    ;}
</style>
<title>market</title>
<g id="Calque_2_1_">
	<g id="Desktop">
		<circle class="st0" cx="186.5" cy="186.5" r="186.5"/>
		<path class="st1" d="M90.5,142.6v-7.2V142.6z"/>
		<path class="st2" d="M271.6,129.4v34.9h-0.1v-29.9l-7.9,1V163L99.4,143.6v-8.3h-9v-6L271.6,129.4z"/>
		<polygon class="st1" points="127,60.6 122.8,106.1 84.2,106.1 88.3,60.6 		"/>
		<polygon class="st3" points="165.8,60.6 161.4,106.1 122.8,106.1 127,60.6 		"/>
		<polygon class="st3" points="238.8,106.1 200.1,106.1 195.7,60.6 234.6,60.6 		"/>
		<polygon class="st1" points="277.4,106.1 238.8,106.1 234.6,60.6 273.2,60.6 		"/>
		<path class="st4" d="M99.4,135.4v8.3l-8.8-1v0.1h-0.2v-7.2L99.4,135.4z"/>
		<polygon class="st4" points="271.5,134.4 271.5,163.9 263.6,162.9 263.6,135.4 		"/>
		<path class="st3" d="M271.5,163.9v103H90.6l-0.2-124.3h0.2v-0.1l8.8,1V201l164.2-0.1v-38L271.5,163.9z"/>
		<path class="st5" d="M122.5,106.1H84.2v21.8c0,4.4,4.1,8.1,9.1,8.1h20.4c4.4,0,8.2-2.8,9-6.6c0.1-0.5,0.2-1,0.2-1.5v-21.8
			C122.9,106.1,122.5,106.1,122.5,106.1z"/>
		<path class="st6" d="M123.1,106.1h38.3v21.8c0,4.4-4.1,8.1-9.1,8.1h-20.4c-4.4,0-8.2-2.8-9-6.6c-0.1-0.5-0.2-1-0.2-1.5v-21.8
			C122.7,106.1,123.1,106.1,123.1,106.1z"/>
		<path class="st6" d="M200.4,106.1h38.4v21.5c0,4.5-4.1,8.2-9.1,8.2h-20.4c-4.1,0.1-7.7-2.5-8.9-6.4c-0.2-0.6-0.2-1.2-0.2-1.8
			v-21.5C200.2,106.1,200.4,106.1,200.4,106.1z"/>
		<path class="st5" d="M199.8,106.1h-38.4v21.8c0,4.4,4.1,8.1,9.1,8.1H191c4.7,0,8.5-3.1,9.1-7.1c0-0.3,0.1-0.6,0.1-0.9v-21.8
			L199.8,106.1L199.8,106.1z"/>
		<path class="st5" d="M277.1,106.1h-38.3v21.8c0,4.4,4.1,8.1,9.1,8.1h20.4c4.4,0,8.2-2.8,9-6.6c0.1-0.5,0.2-1,0.2-1.5v-21.8
			C277.5,106.1,277.1,106.1,277.1,106.1z"/>
		<polygon class="st1" points="200.1,106.1 161.4,106.1 165.8,60.6 195.7,60.6 		"/>
		<path class="st5" d="M91.1,213.2c-2.6,0-5.1,0.3-7.6,0.9c-2-4.9-6.7-8.1-11.9-8.3c-7.3,0-13.3,6.6-13.3,14.7
			c0,1.1,0.1,2.2,0.4,3.4l0,0c-1.5-0.3-3-0.4-4.5-0.4c-13.9,0.1-25.1,11.4-25,25.3l0,0c0,6.8,2.7,13.4,7.6,18.2h78.3
			c5-6,7.7-13.5,7.7-21.3C122.8,227.8,108.6,213.2,91.1,213.2z"/>
		<path class="st5" d="M327.1,242.2H327c-2.9-13.6-16.1-23.8-31.9-23.8c-16.9,0-30.8,11.7-32.4,26.6c-9.1,0.4-16.3,6.6-16.3,14.2
			c0,2.8,1,5.6,2.8,7.8h90.5c2-2.7,3-5.9,3-9.2C342.8,249.3,335.8,242.3,327.1,242.2C327.2,242.2,327.1,242.2,327.1,242.2z"/>
		<path class="st5" d="M295.1,214.8c0,8.3-9.5,15-21.3,15c-0.8,0-1.5,0-2.3-0.1v-29.9c0.8,0,1.5-0.1,2.3-0.1
			C285.6,199.8,295.1,206.5,295.1,214.8z"/>
		<g class="st7">
			<path class="st5" d="M139.1,240.4l-4.4-14.4h-0.1c0.2,2.9,0.2,4.9,0.2,5.9v8.5h-3.5V222h5.3l4.3,14.1h0.1l4.6-14.1h5.3v18.4h-3.6
				v-8.7c0-0.4,0-0.9,0-1.4s0.1-2,0.2-4.3h-0.1l-4.7,14.4H139.1z"/>
			<path class="st5" d="M166.8,240.4l-1.3-4.4h-6.7l-1.3,4.4h-4.2l6.5-18.5h4.8l6.5,18.5H166.8z M164.5,232.8
				c-1.2-4-1.9-6.2-2.1-6.7c-0.2-0.5-0.3-0.9-0.3-1.2c-0.3,1.1-1.1,3.7-2.4,8h4.8V232.8z"/>
			<path class="st5" d="M177.2,233.3v7.1h-3.9V222h5.4c2.5,0,4.3,0.5,5.5,1.4s1.8,2.3,1.8,4.1c0,1.1-0.3,2-0.9,2.9
				c-0.6,0.8-1.4,1.5-2.5,2c2.8,4.1,4.6,6.8,5.4,8h-4.3l-4.4-7.1L177.2,233.3L177.2,233.3z M177.2,230.2h1.3c1.2,0,2.1-0.2,2.7-0.6
				c0.6-0.4,0.9-1.1,0.9-1.9c0-0.9-0.3-1.5-0.9-1.9c-0.6-0.4-1.5-0.6-2.8-0.6h-1.2V230.2z"/>
			<path class="st5" d="M205.1,240.4h-4.4l-4.8-7.7l-1.6,1.2v6.6h-3.9V222h3.9v8.4l1.5-2.2l5-6.2h4.3l-6.4,8.1L205.1,240.4z"/>
			<path class="st5" d="M218,240.4h-10.6V222H218v3.2h-6.7v4h6.2v3.2h-6.2v4.7h6.7V240.4z"/>
			<path class="st5" d="M228.9,240.4H225v-15.1h-5V222h13.9v3.2h-5V240.4z"/>
		</g>
	</g>
</g>
</svg>
