<?xml version="1.0" encoding="utf-8"?>
<!-- Generator: Adobe Illustrator 22.1.0, SVG Export Plug-In . SVG Version: 6.00 Build 0)  -->
<svg version="1.1" id="Calque_1" xmlns="http://www.w3.org/2000/svg" xmlns:xlink="http://www.w3.org/1999/xlink" x="0px" y="0px"
	 viewBox="0 0 440.9 440.9" style="enable-background:new 0 0 440.9 440.9;" xml:space="preserve">
<style type="text/css">
	.st0{fill:#FFFFFF;}
	.st1{fill:#EFECE8;}
	.st2{fill:#DFDEBC;}
	.st3{fill:#CBC6A2;}
	.st4{fill:#C3BF9A;}
	.st5{fill:#C5C589;}
	.st6{fill:#F3F3F3;}
	.st7{enable-background:new    ;}
</style>
<title>market</title>
<path class="st0" d="M440.9,220.4c0,121.8-98.7,220.4-220.4,220.4S0,342.2,0,220.4"/>
<g id="Calque_2_1_">
	<g id="Desktop">
		<circle class="st1" cx="220.4" cy="220.4" r="186.5"/>
		<path class="st2" d="M124.4,176.5v-7.2V176.5z"/>
		<path class="st3" d="M305.5,163.3v34.9h-0.1v-29.9l-7.9,1v27.6l-164.2-19.4v-8.3h-9v-6L305.5,163.3z"/>
		<polygon class="st2" points="160.9,94.5 156.7,140 118.1,140 122.2,94.5 		"/>
		<polygon class="st0" points="199.7,94.5 195.3,140 156.7,140 160.9,94.5 		"/>
		<polygon class="st0" points="272.7,140 234,140 229.6,94.5 268.5,94.5 		"/>
		<polygon class="st2" points="311.3,140 272.7,140 268.5,94.5 307.1,94.5 		"/>
		<path class="st4" d="M133.3,169.3v8.3l-8.8-1v0.1h-0.2v-7.2L133.3,169.3z"/>
		<polygon class="st4" points="305.4,168.3 305.4,197.8 297.5,196.8 297.5,169.3 		"/>
		<path class="st0" d="M305.4,197.8v103H124.5l-0.2-124.3h0.2v-0.1l8.8,1v57.5l164.2-0.1v-38L305.4,197.8z"/>
		<path class="st5" d="M156.4,140h-38.3v21.8c0,4.4,4.1,8.1,9.1,8.1h20.4c4.4,0,8.2-2.8,9-6.6c0.1-0.5,0.2-1,0.2-1.5V140
			C156.8,140,156.4,140,156.4,140z"/>
		<path class="st6" d="M157,140h38.3v21.8c0,4.4-4.1,8.1-9.1,8.1h-20.4c-4.4,0-8.2-2.8-9-6.6c-0.1-0.5-0.2-1-0.2-1.5V140
			C156.6,140,157,140,157,140z"/>
		<path class="st6" d="M234.3,140h38.4v21.5c0,4.5-4.1,8.2-9.1,8.2h-20.4c-4.1,0.1-7.7-2.5-8.9-6.4c-0.2-0.6-0.2-1.2-0.2-1.8V140
			C234.1,140,234.3,140,234.3,140z"/>
		<path class="st5" d="M233.7,140h-38.4v21.8c0,4.4,4.1,8.1,9.1,8.1h20.5c4.7,0,8.5-3.1,9.1-7.1c0-0.3,0.1-0.6,0.1-0.9v-21.8
			L233.7,140L233.7,140z"/>
		<path class="st5" d="M311,140h-38.3v21.8c0,4.4,4.1,8.1,9.1,8.1h20.4c4.4,0,8.2-2.8,9-6.6c0.1-0.5,0.2-1,0.2-1.5V140
			C311.4,140,311,140,311,140z"/>
		<polygon class="st2" points="234,140 195.3,140 199.7,94.5 229.6,94.5 		"/>
		<path class="st5" d="M125,247.1c-2.6,0-5.1,0.3-7.6,0.9c-2-4.9-6.7-8.1-11.9-8.3c-7.3,0-13.3,6.6-13.3,14.7c0,1.1,0.1,2.2,0.4,3.4
			l0,0c-1.5-0.3-3-0.4-4.5-0.4c-13.9,0.1-25.1,11.4-25,25.3l0,0c0,6.8,2.7,13.4,7.6,18.2H149c5-6,7.7-13.5,7.7-21.3
			C156.7,261.7,142.5,247.1,125,247.1z"/>
		<path class="st5" d="M361,276.1h-0.1c-2.9-13.6-16.1-23.8-31.9-23.8c-16.9,0-30.8,11.7-32.4,26.6c-9.1,0.4-16.3,6.6-16.3,14.2
			c0,2.8,1,5.6,2.8,7.8h90.5c2-2.7,3-5.9,3-9.2C376.7,283.2,369.7,276.2,361,276.1C361.1,276.1,361,276.1,361,276.1z"/>
		<path class="st5" d="M329,248.7c0,8.3-9.5,15-21.3,15c-0.8,0-1.5,0-2.3-0.1v-29.9c0.8,0,1.5-0.1,2.3-0.1
			C319.5,233.7,329,240.4,329,248.7z"/>
		<g class="st7">
			<path class="st5" d="M173,274.3l-4.4-14.4h-0.1c0.2,2.9,0.2,4.9,0.2,5.9v8.5h-3.5v-18.4h5.3l4.3,14.1h0.1l4.6-14.1h5.3v18.4h-3.6
				v-8.7c0-0.4,0-0.9,0-1.4s0.1-2,0.2-4.3h-0.1l-4.7,14.4H173z"/>
			<path class="st5" d="M200.7,274.3l-1.3-4.4h-6.7l-1.3,4.4h-4.2l6.5-18.5h4.8l6.5,18.5H200.7z M198.4,266.7
				c-1.2-4-1.9-6.2-2.1-6.7c-0.2-0.5-0.3-0.9-0.3-1.2c-0.3,1.1-1.1,3.7-2.4,8L198.4,266.7L198.4,266.7z"/>
			<path class="st5" d="M211.1,267.2v7.1h-3.9v-18.4h5.4c2.5,0,4.3,0.5,5.5,1.4s1.8,2.3,1.8,4.1c0,1.1-0.3,2-0.9,2.9
				c-0.6,0.8-1.4,1.5-2.5,2c2.8,4.1,4.6,6.8,5.4,8h-4.3l-4.4-7.1L211.1,267.2L211.1,267.2z M211.1,264.1h1.3c1.2,0,2.1-0.2,2.7-0.6
				c0.6-0.4,0.9-1.1,0.9-1.9c0-0.9-0.3-1.5-0.9-1.9c-0.6-0.4-1.5-0.6-2.8-0.6h-1.2V264.1z"/>
			<path class="st5" d="M239,274.3h-4.4l-4.8-7.7l-1.6,1.2v6.6h-3.9v-18.5h3.9v8.4l1.5-2.2l5-6.2h4.3l-6.4,8.1L239,274.3z"/>
			<path class="st5" d="M251.9,274.3h-10.6v-18.4h10.6v3.2h-6.7v4h6.2v3.2h-6.2v4.7h6.7V274.3z"/>
			<path class="st5" d="M262.8,274.3h-3.9v-15.1h-5v-3.3h13.9v3.2h-5V274.3z"/>
		</g>
	</g>
</g>
</svg>
