<?xml version="1.0" encoding="utf-8"?>
<!-- Generator: Adobe Illustrator 22.1.0, SVG Export Plug-In . SVG Version: 6.00 Build 0)  -->
<svg version="1.1"
	 id="Calque_1" xmlns:cc="http://creativecommons.org/ns#" xmlns:dc="http://purl.org/dc/elements/1.1/" xmlns:inkscape="http://www.inkscape.org/namespaces/inkscape" xmlns:rdf="http://www.w3.org/1999/02/22-rdf-syntax-ns#" xmlns:sodipodi="http://sodipodi.sourceforge.net/DTD/sodipodi-0.dtd" xmlns:svg="http://www.w3.org/2000/svg"
	 xmlns="http://www.w3.org/2000/svg" xmlns:xlink="http://www.w3.org/1999/xlink" x="0px" y="0px" viewBox="0 0 32 32"
	 style="enable-background:new 0 0 32 32;" xml:space="preserve">
<style type="text/css">
	.st0{fill:#FFFFFF;}
</style>
<g transform="translate(0,-1020.3622)">
	<path class="st0" d="M15.9,1020.9c-0.2,0-0.3,0.1-0.4,0.2l-2.2,3.5l-0.1-0.1c-0.2-0.2-0.5-0.2-0.7,0c0,0-0.1,0.1-0.1,0.2l-2.3,5.5
		l-0.5-0.3c-0.2-0.1-0.5,0-0.7,0.2l0,0c0,0-1.3,3.4-1.6,5.3c-0.7,3.6-0.1,7.4,3,9.7c1.6,1.1,5.4,3.1,5.4,3.1c0.1,0.1,0.3,0.1,0.5,0
		c0,0,3.9-2,5.5-3.1c3.1-2.3,4-6.1,3-9.7l-1.5-5.3c-0.1-0.3-0.4-0.4-0.6-0.3h-0.1l-0.5,0.3l-2.3-5.5c-0.1-0.3-0.4-0.4-0.7-0.3
		c-0.1,0-0.1,0.1-0.2,0.1l-0.1,0.1l-2.2-3.5C16.3,1020.9,16.1,1020.9,15.9,1020.9L15.9,1020.9z M15.9,1022.3l2.1,3.3
		c0.1,0.2,0.5,0.3,0.7,0.2c0,0,0,0,0.1-0.1l2.3,5.3c0.1,0.3,0.4,0.4,0.7,0.3l0,0l0.5-0.2l1.4,4.7c0.9,3.2,0.1,6.6-2.6,8.6
		c-1.3,0.9-4.8,2.7-5.1,2.9c-0.3-0.2-3.8-2-5.1-2.9c-2.7-2-3.3-5.3-2.6-8.7l0,0c0.2-1.5,1.1-4,1.3-4.6l0.5,0.2
		c0.2,0.1,0.5,0,0.7-0.2l0,0l2.3-5.3c0.2,0.2,0.5,0.2,0.7,0c0,0,0,0,0.1-0.1L15.9,1022.3z"/>
	<path class="st0" d="M16,1027.9c-0.3,0-0.5,0.2-0.5,0.5l0,0v23c0,0.3,0.2,0.5,0.5,0.5c0.3,0,0.5-0.2,0.5-0.5l0,0v-23
		C16.5,1028.1,16.3,1027.9,16,1027.9L16,1027.9z"/>
	<path class="st0" d="M11.2,1040.1c-0.3,0-0.5,0.3-0.5,0.5c0,0.1,0.1,0.3,0.2,0.3l4.8,4.3c0.2,0.2,0.5,0.2,0.7,0s0.2-0.5,0-0.7l0,0
		l-4.8-4.3C11.5,1040.1,11.4,1040.1,11.2,1040.1z"/>
	<path class="st0" d="M20.5,1037.9c-0.1,0-0.3,0.1-0.3,0.1l-4.5,4.3c-0.2,0.2-0.2,0.5-0.1,0.7c0.2,0.2,0.5,0.2,0.7,0.1l0,0l4.5-4.3
		c0.2-0.2,0.2-0.5,0-0.7C20.8,1037.9,20.6,1037.9,20.5,1037.9z"/>
	<path class="st0" d="M12.5,1035.1c-0.3,0-0.5,0.3-0.5,0.5c0,0.1,0.1,0.3,0.2,0.3l3.5,3c0.2,0.2,0.5,0.2,0.7,0
		c0.2-0.2,0.2-0.5,0-0.7l0,0l-3.5-3C12.7,1035.1,12.6,1035.1,12.5,1035.1z"/>
	<path class="st0" d="M18.7,1031.9c-0.1,0-0.3,0.1-0.3,0.2l-2.8,2.8c-0.2,0.2-0.2,0.5,0,0.7s0.5,0.2,0.7,0l0,0l2.8-2.8
		c0.2-0.2,0.2-0.5,0-0.7C19,1031.9,18.9,1031.9,18.7,1031.9z"/>
	<path class="st0" d="M14,1029.6c-0.3,0-0.5,0.2-0.5,0.5c0,0.2,0.1,0.3,0.2,0.4l2,1.5c0.2,0.2,0.5,0.1,0.7-0.1s0.1-0.5-0.1-0.7l0,0
		l-2-1.5C14.2,1029.6,14.1,1029.6,14,1029.6z"/>
</g>
</svg>
