<?xml version="1.0" encoding="utf-8"?>
<!-- Generator: Adobe Illustrator 22.1.0, SVG Export Plug-In . SVG Version: 6.00 Build 0)  -->
<svg version="1.1" id="Calque_1" xmlns="http://www.w3.org/2000/svg" xmlns:xlink="http://www.w3.org/1999/xlink" x="0px" y="0px"
	 viewBox="0 0 44 44" style="enable-background:new 0 0 44 44;" xml:space="preserve">
<style type="text/css">
	.st0{fill:none;stroke:#FFFFFF;stroke-width:3;}
	.st1{fill:#FFFFFF;}
</style>
<title>9.3</title>
<desc>Created with Sketch.</desc>
<g>
	<g>
		<circle class="st0" cx="22" cy="22" r="12.5"/>
		<path class="st1" d="M17.9,37.5l-3.6,3L14,35.9C15.2,36.6,16.5,37.1,17.9,37.5z M8.2,30.1l-4.6-0.4l3-3.6
			C6.9,27.5,7.5,28.8,8.2,30.1z M6.5,17.9l-3-3.6L8.2,14C7.5,15.2,6.9,16.5,6.5,17.9z M14,8.2l0.4-4.6l3.6,3
			C16.5,6.9,15.2,7.5,14,8.2z M26.1,6.5l3.6-3L30,8.2C28.8,7.5,27.5,6.9,26.1,6.5z M35.8,14l4.6,0.4l-3,3.6
			C37.1,16.5,36.5,15.2,35.8,14z M37.5,26.1l3,3.6l-4.6,0.4C36.5,28.8,37.1,27.5,37.5,26.1z M30,35.9l-0.4,4.6l-3.6-3
			C27.5,37.1,28.8,36.6,30,35.9z"/>
		<path class="st1" d="M12.2,34.7l-5.8,2.9l2.9-5.8C10.2,32.9,11.1,33.8,12.2,34.7z M6.1,24L0,22l6.1-2C6,21.4,6,22.7,6.1,24z
			 M9.3,12.2L6.4,6.5l5.8,2.9C11.1,10.2,10.2,11.1,9.3,12.2z M20,6.1L22,0l2,6.1C22.7,6,21.3,6,20,6.1z M31.8,9.4l5.8-2.9l-2.9,5.8
			C33.8,11.2,32.9,10.2,31.8,9.4z M37.9,20l6.1,2l-6.1,2C38,22.7,38,21.3,37.9,20z M34.7,31.8l2.9,5.8l-5.8-2.9
			C32.9,33.9,33.8,32.9,34.7,31.8z M24,37.9L22,44l-2-6.1C21.3,38.1,22.7,38.1,24,37.9z"/>
	</g>
</g>
<text transform="matrix(1 0 0 1 -28 87.0151)" style="font-family:'Arial-BoldMT'; font-size:5px;">Created by Landan Lloyd</text>
<text transform="matrix(1 0 0 1 -28 92.0151)" style="font-family:'Arial-BoldMT'; font-size:5px;">from the Noun Project</text>
</svg>
