<?xml version="1.0" encoding="utf-8"?>
<!-- Generator: Adobe Illustrator 22.1.0, SVG Export Plug-In . SVG Version: 6.00 Build 0)  -->
<svg version="1.1"
	 id="Calque_1" xmlns:cc="http://creativecommons.org/ns#" xmlns:dc="http://purl.org/dc/elements/1.1/" xmlns:inkscape="http://www.inkscape.org/namespaces/inkscape" xmlns:rdf="http://www.w3.org/1999/02/22-rdf-syntax-ns#" xmlns:sodipodi="http://sodipodi.sourceforge.net/DTD/sodipodi-0.dtd" xmlns:svg="http://www.w3.org/2000/svg"
	 xmlns="http://www.w3.org/2000/svg" xmlns:xlink="http://www.w3.org/1999/xlink" x="0px" y="0px" viewBox="0 0 27.4 27"
	 style="enable-background:new 0 0 27.4 27;" xml:space="preserve">
<style type="text/css">
	.st0{fill:#FFFFFF;}
</style>
<g transform="translate(0,-1020.3622)">
	<path class="st0" d="M13.7,1030.9c-1.6,0-3,1.3-3,3c0,1.6,1.3,3,3,3s3-1.3,3-3C16.7,1032.2,15.3,1030.9,13.7,1030.9z M13.7,1031.9
		c1.1,0,2,0.9,2,2s-0.9,2-2,2s-2-0.9-2-2S12.6,1031.9,13.7,1031.9z"/>
	<path class="st0" d="M10.2,1020.4c-0.3,0-0.5,0.2-0.5,0.5c0,0.1,0.1,0.3,0.2,0.4l3.5,3.5c0.2,0.2,0.5,0.2,0.7,0l3.5-3.5
		c0.2-0.2,0.2-0.5,0-0.7s-0.5-0.2-0.7,0l0,0l-3.1,3.1l-3.1-3.1C10.5,1020.4,10.3,1020.4,10.2,1020.4L10.2,1020.4z"/>
	<path class="st0" d="M13.7,1020.4c-0.3,0-0.5,0.2-0.5,0.5l0,0v10.5c0,0.3,0.2,0.5,0.5,0.5c0.3,0,0.5-0.2,0.5-0.5l0,0v-10.5
		C14.2,1020.6,14,1020.4,13.7,1020.4L13.7,1020.4z"/>
	<path class="st0" d="M10.2,1024.4c-0.3,0-0.5,0.2-0.5,0.5c0,0.1,0.1,0.3,0.2,0.4l3.5,3.5c0.2,0.2,0.5,0.2,0.7,0l3.5-3.5
		c0.2-0.2,0.2-0.5,0-0.7s-0.5-0.2-0.7,0l0,0l-3.1,3.1l-3.1-3.1C10.5,1024.4,10.3,1024.4,10.2,1024.4z"/>
	<path class="st0" d="M13.7,1042.9c-0.1,0-0.3,0.1-0.3,0.1l-3.5,3.5c-0.2,0.2-0.2,0.5,0,0.7s0.5,0.2,0.7,0l0,0l3.1-3.1l3.1,3.1
		c0.2,0.2,0.5,0.2,0.7,0s0.2-0.5,0-0.7l0,0L14,1043C13.9,1042.9,13.8,1042.9,13.7,1042.9z"/>
	<path class="st0" d="M13.7,1035.9c-0.3,0-0.5,0.2-0.5,0.5v10.5c0,0.3,0.2,0.5,0.5,0.5c0.3,0,0.5-0.2,0.5-0.5l0,0v-10.5
		C14.2,1036.1,14,1035.9,13.7,1035.9L13.7,1035.9z"/>
	<path class="st0" d="M13.7,1038.9c-0.1,0-0.3,0.1-0.3,0.1l-3.5,3.5c-0.2,0.2-0.2,0.5,0,0.7s0.5,0.2,0.7,0l0,0l3.1-3.1l3.1,3.1
		c0.2,0.2,0.5,0.2,0.7,0s0.2-0.5,0-0.7l0,0L14,1039C13.9,1038.9,13.8,1038.9,13.7,1038.9z"/>
	<path class="st0" d="M26.7,1029.9c-0.1,0-0.3,0.1-0.3,0.2l-3.5,3.5c-0.2,0.2-0.2,0.5,0,0.7l3.5,3.5c0.2,0.2,0.5,0.2,0.7,0
		s0.2-0.5,0-0.7l0,0L24,1034l3.1-3.1c0.2-0.2,0.2-0.5,0-0.7C26.9,1029.9,26.8,1029.9,26.7,1029.9z"/>
	<path class="st0" d="M16.2,1033.4c-0.3,0-0.5,0.2-0.5,0.5s0.2,0.5,0.5,0.5l0,0h10.7c0.3,0,0.5-0.2,0.5-0.5s-0.2-0.5-0.5-0.5l0,0
		H16.2z"/>
	<path class="st0" d="M22.7,1029.9c-0.1,0-0.3,0.1-0.3,0.2l-3.5,3.5c-0.2,0.2-0.2,0.5,0,0.7l3.5,3.5c0.2,0.2,0.5,0.2,0.7,0
		s0.2-0.5,0-0.7l0,0L20,1034l3.1-3.1c0.2-0.2,0.2-0.5,0-0.7C22.9,1029.9,22.8,1029.9,22.7,1029.9z"/>
	<path class="st0" d="M0.7,1029.9c-0.3,0-0.5,0.2-0.5,0.5c0,0.1,0.1,0.3,0.2,0.4l3.1,3.1l-3.1,3.1c-0.2,0.2-0.2,0.5,0,0.7
		s0.5,0.2,0.7,0l0,0l3.5-3.5c0.2-0.2,0.2-0.5,0-0.7l-3.5-3.5C1,1029.9,0.8,1029.9,0.7,1029.9z"/>
	<path class="st0" d="M0.7,1033.4c-0.3,0-0.5,0.2-0.5,0.5s0.2,0.5,0.5,0.5l0,0h10.5c0.3,0,0.5-0.2,0.5-0.5s-0.2-0.5-0.5-0.5l0,0H0.7
		z"/>
	<path class="st0" d="M4.7,1029.9c-0.3,0-0.5,0.2-0.5,0.5c0,0.1,0.1,0.3,0.2,0.4l3.1,3.1l-3.1,3.1c-0.2,0.2-0.2,0.5,0,0.7
		s0.5,0.2,0.7,0l0,0l3.5-3.5c0.2-0.2,0.2-0.5,0-0.7l-3.5-3.5C5,1029.9,4.8,1029.9,4.7,1029.9L4.7,1029.9z"/>
	<path class="st0" d="M20.2,1021.9c-0.3,0-0.5,0.2-0.5,0.5l0,0v4.9c0,0.3,0.2,0.5,0.5,0.5h4.9c0.3,0,0.5-0.2,0.5-0.5
		s-0.2-0.5-0.5-0.5l0,0h-4.4v-4.4C20.7,1022.1,20.5,1021.9,20.2,1021.9L20.2,1021.9z"/>
	<path class="st0" d="M22.7,1024.4c-0.1,0-0.3,0.1-0.3,0.2l-7.2,7.2c-0.2,0.2-0.2,0.5,0,0.7s0.5,0.2,0.7,0l0,0l7.2-7.2
		c0.2-0.2,0.2-0.5,0-0.7C23,1024.4,22.8,1024.4,22.7,1024.4z"/>
	<path class="st0" d="M2.2,1039.9c-0.3,0-0.5,0.2-0.5,0.5s0.2,0.5,0.5,0.5l0,0h4.4v4.4c0,0.3,0.2,0.5,0.5,0.5s0.5-0.2,0.5-0.5l0,0
		v-4.9c0-0.3-0.2-0.5-0.5-0.5H2.2z"/>
	<path class="st0" d="M11.7,1035.3c-0.1,0-0.3,0.1-0.3,0.2l-7.1,7.1c-0.2,0.2-0.2,0.5,0,0.7s0.5,0.2,0.7,0l0,0l7.1-7.1
		c0.2-0.2,0.2-0.5,0-0.7C12,1035.4,11.9,1035.3,11.7,1035.3L11.7,1035.3z"/>
	<path class="st0" d="M20.2,1039.9c-0.3,0-0.5,0.2-0.5,0.5v4.9c0,0.3,0.2,0.5,0.5,0.5s0.5-0.2,0.5-0.5l0,0v-4.4h4.4
		c0.3,0,0.5-0.2,0.5-0.5s-0.2-0.5-0.5-0.5l0,0H20.2z"/>
	<path class="st0" d="M15.5,1035.1c-0.3,0-0.5,0.2-0.5,0.5c0,0.1,0.1,0.3,0.2,0.4l7.2,7.2c0.2,0.2,0.5,0.2,0.7,0s0.2-0.5,0-0.7l0,0
		l-7.2-7.2C15.7,1035.2,15.6,1035.1,15.5,1035.1z"/>
	<path class="st0" d="M7.1,1021.9c-0.3,0-0.5,0.2-0.5,0.5l0,0v4.4H2.2c-0.3,0-0.5,0.2-0.5,0.5s0.2,0.5,0.5,0.5l0,0h4.9
		c0.3,0,0.5-0.2,0.5-0.5v-4.9C7.6,1022.1,7.4,1021.9,7.1,1021.9L7.1,1021.9z"/>
	<path class="st0" d="M4.7,1024.4c-0.3,0-0.5,0.2-0.5,0.5c0,0.1,0.1,0.3,0.2,0.4l7.1,7.1c0.2,0.2,0.5,0.2,0.7,0s0.2-0.5,0-0.7l0,0
		l-7.1-7.1C4.9,1024.4,4.8,1024.4,4.7,1024.4z"/>
</g>
</svg>
