<?xml version="1.0" encoding="utf-8"?>
<!-- Generator: Adobe Illustrator 22.1.0, SVG Export Plug-In . SVG Version: 6.00 Build 0)  -->
<svg version="1.1"
	 id="Calque_1" xmlns:cc="http://creativecommons.org/ns#" xmlns:dc="http://purl.org/dc/elements/1.1/" xmlns:inkscape="http://www.inkscape.org/namespaces/inkscape" xmlns:rdf="http://www.w3.org/1999/02/22-rdf-syntax-ns#" xmlns:sodipodi="http://sodipodi.sourceforge.net/DTD/sodipodi-0.dtd" xmlns:svg="http://www.w3.org/2000/svg"
	 xmlns="http://www.w3.org/2000/svg" xmlns:xlink="http://www.w3.org/1999/xlink" x="0px" y="0px" viewBox="0 0 26 26"
	 style="enable-background:new 0 0 26 26;" xml:space="preserve">
<style type="text/css">
	.st0{fill:#FFFFFF;}
</style>
<g transform="translate(0,-1020.3622)">
	<path class="st0" d="M13.2,1029.9c-1.7,0-3,1.4-3,3.1c0,1.7,1.4,3.1,3,3.1s3-1.4,3-3.1C16.3,1031.3,14.9,1029.9,13.2,1029.9z
		 M13.2,1030.9c1.1,0,2,0.9,2,2.1c0,1.2-0.9,2.1-2,2.1s-2-0.9-2-2.1C11.2,1031.8,12.1,1030.9,13.2,1030.9z"/>
	<path class="st0" d="M11.9,1035.5l-1.3,7.8c-0.3,1.6,1,3.1,2.6,3.1h0.1c1.6,0,2.8-1.5,2.6-3.1l-1.3-7.8l-1,0.2l1.3,7.8
		c0.2,1-0.6,1.9-1.6,1.9h-0.1c-1,0-1.8-0.9-1.6-1.9l1.3-7.8L11.9,1035.5z"/>
	<path class="st0" d="M15.9,1034.4l-0.7,0.8l5.9,5.1c0.8,0.7,0.8,1.9,0,2.5c0,0,0,0,0,0l-0.1,0.1h0c-0.8,0.7-1.9,0.5-2.4-0.4l-4-6.8
		l-0.9,0.5l4,6.8c0.8,1.4,2.7,1.7,3.9,0.7h0l0.1-0.1h0c1.2-1,1.2-3,0-4L15.9,1034.4z"/>
	<path class="st0" d="M15.6,1032.4l0,1l7.8,0.1c1,0,1.8,0.9,1.6,1.9l0,0.1c-0.2,1-1.2,1.6-2.1,1.3l-7.4-2.6l-0.3,0.9l7.4,2.6
		c1.5,0.5,3.2-0.4,3.5-2l0,0l0-0.1h0c0.3-1.6-0.9-3.1-2.6-3.1L15.6,1032.4z"/>
	<path class="st0" d="M22.7,1025.2c-0.7-0.1-1.5,0-2.1,0.6l-6,5l0.6,0.8l6-5c0.8-0.7,1.9-0.4,2.4,0.4l0,0.1c0.5,0.9,0.1,2-0.8,2.4
		l-7.3,2.8l0.4,0.9l7.3-2.8c1.5-0.6,2.1-2.4,1.3-3.8l0-0.1C24.1,1025.7,23.4,1025.3,22.7,1025.2L22.7,1025.2z"/>
	<path class="st0" d="M16.8,1020.4c-1.1,0.1-2.1,1-2.3,2.2l-1.4,7.8l1,0.2l1.4-7.8c0.2-1,1.2-1.6,2.1-1.2l0.1,0
		c0.9,0.3,1.4,1.5,0.9,2.4l-3.8,6.9l0.9,0.5l3.8-6.9c0.8-1.4,0.1-3.2-1.4-3.8h0l-0.1,0h0C17.5,1020.4,17.1,1020.4,16.8,1020.4
		L16.8,1020.4z"/>
	<path class="st0" d="M10,1020.4c-0.4,0-0.8,0-1.1,0.1l-0.1,0h0c-1.5,0.6-2.2,2.4-1.4,3.8l3.8,6.9l0.9-0.5l-3.8-6.9
		c-0.5-0.9-0.1-2,0.9-2.4c0,0,0,0,0,0l0.1,0h0c0.9-0.3,2,0.2,2.1,1.2l1.4,7.8l1-0.2l-1.4-7.8C12.1,1021.3,11.1,1020.5,10,1020.4
		L10,1020.4z"/>
	<path class="st0" d="M3.8,1025.2c-0.7,0.1-1.4,0.6-1.8,1.3l0,0.1l0,0c-0.8,1.4-0.2,3.2,1.3,3.8l7.3,2.8l0.4-0.9l-7.3-2.8
		c-0.9-0.4-1.3-1.5-0.8-2.4h0l0-0.1h0c0.5-0.9,1.6-1.1,2.4-0.4l6,5l0.6-0.8l-6-5C5.3,1025.2,4.5,1025,3.8,1025.2L3.8,1025.2z"/>
	<path class="st0" d="M10.4,1032.5l-7.8,0.1c-1.6,0-2.8,1.5-2.6,3.1h0l0,0.1l0,0c0.3,1.6,1.9,2.6,3.5,2l7.4-2.6l-0.3-0.9l-7.4,2.6
		c-0.9,0.3-2-0.3-2.1-1.3l0-0.1l0,0c-0.2-1,0.6-1.9,1.6-1.9l7.8-0.1L10.4,1032.5z"/>
	<path class="st0" d="M10.8,1034.1l-5.9,5.1c-1.2,1.1-1.2,3,0,4l0.1,0.1h0c1.2,1,3.1,0.7,3.9-0.7l4-6.8l-0.9-0.5l-4,6.8
		c-0.5,0.9-1.7,1.1-2.4,0.4l-0.1-0.1h0c-0.8-0.7-0.8-1.9,0-2.5l5.9-5.1L10.8,1034.1z"/>
	<path class="st0" d="M13.7,1033c0-0.3-0.2-0.5-0.5-0.5s-0.5,0.2-0.5,0.5s0.2,0.5,0.5,0.5S13.7,1033.2,13.7,1033z"/>
</g>
<text transform="matrix(1 0 0 1 -2.9975 43.9955)" style="font-family:'Arial-BoldMT'; font-size:5px;">Created by anbileru adaleru</text>
<text transform="matrix(1 0 0 1 -2.9975 48.9955)" style="font-family:'Arial-BoldMT'; font-size:5px;">from the Noun Project</text>
</svg>
