<svg xmlns="http://www.w3.org/2000/svg" viewBox="0 0 42.91 39.6"><defs><style>.cls-1{fill:#fff;}</style></defs><title>Fichier 5</title><g id="Calque_2" data-name="Calque 2"><g id="Desktop"><path class="cls-1" d="M14.34,20.31c-1.15-2.74-2.21-4.88-2.94-7.13A10,10,0,0,1,15.21,2a10.65,10.65,0,0,1,12.18-.21,10,10,0,0,1,4.1,11.32c-.71,2.25-1.76,4.4-2.9,7.19,2.11,0,4,.05,5.8,0,2.09-.07,3.42.68,4.08,2.8,1.28,4.12,2.8,8.17,4.09,12.29.91,2.91.07,4.13-3,4.15q-18.1.12-36.2,0c-3,0-3.95-1.42-3.07-4.19,1.3-4.12,2.77-8.18,4.1-12.29A3.62,3.62,0,0,1,8.5,20.29C10.3,20.38,12.12,20.31,14.34,20.31ZM21.46,30.7c-1.62-2.36-2.94-4.19-4.16-6.07-1.66-2.55-7.84-4.25-10.42-2.74A3.1,3.1,0,0,0,5.7,23.47C4.29,27.54,3,31.64,1.59,35.73c-.58,1.73,0,2.63,1.88,2.63q17.9,0,35.79,0c1.93,0,2.69-.77,2-2.78-1.18-3.31-2.07-6.73-3.39-10-.6-1.47-2-3.75-3-3.74-3.08.05-6.89-1.95-9,2.37C24.81,26.31,23.22,28.14,21.46,30.7Zm-.82-2.63,1.62,0c2.64-5,5.53-9.85,7.83-15,1.66-3.71,0-7.87-3.33-10.18A9.15,9.15,0,0,0,16.21,3c-3.44,2.39-5.07,6.28-3.37,10.14C15.11,18.23,18,23.09,20.64,28.07Z"/><path class="cls-1" d="M27.48,10.36a6.11,6.11,0,0,1-5.85,6.31,6.23,6.23,0,0,1-6.29-5.93A6.09,6.09,0,0,1,21.27,4.5,5.89,5.89,0,0,1,27.48,10.36Zm-1.27.32a4.72,4.72,0,0,0-4.64-4.86,4.85,4.85,0,0,0-4.95,4.62,5.11,5.11,0,0,0,4.71,4.93A4.89,4.89,0,0,0,26.21,10.68Z"/></g></g></svg>