<svg xmlns="http://www.w3.org/2000/svg" viewBox="0 0 34.46 38.61"><defs><style>.cls-1{fill:#fff;}</style></defs><title>Fichier 4</title><g id="Calque_2" data-name="Calque 2"><g id="Desktop"><path class="cls-1" d="M24,36.1C18.1,40.7,8.74,38.29,4.83,34.32-.69,28.72-1.67,17,2.89,9,7.07,1.73,15.35-1.55,23.77.7,29.86,2.33,32.88,6.64,34,12.5c.92,4.95.7,9.85-2.33,14.13s-7.38,3.91-9.91-.91c-1.06.92-2,1.91-3.14,2.7-4.16,2.92-8.34,1.25-9.15-3.72a16.15,16.15,0,0,1,2.21-11.2,7.45,7.45,0,0,1,6.61-3.78c4.07-.07,5.46,1.35,5.13,5.33-.22,2.65-.61,5.3-.62,8,0,2.12.14,4.6,2.74,5.26s4.47-1,5.76-3.14C35.5,18.06,32.94,6.46,26.43,3,18.55-1.28,7.69,2.08,3.66,10.07a23.12,23.12,0,0,0-1.58,17c2.2,8,9.71,11.94,18.41,9.84ZM22.72,16.24c-.55-1.81-.74-4.33-1.49-4.51-2-.48-4.27,0-6.42.21-.5.06-1,.68-1.37,1.17a14.38,14.38,0,0,0-2.55,12.46c.6,2.29,2.21,3.43,4.34,2.77,1.73-.54,3.91-1.56,4.64-3C21.29,22.52,21.83,19.26,22.72,16.24Z"/></g></g></svg>