<svg xmlns="http://www.w3.org/2000/svg" viewBox="0 0 79.45 56.05"><defs><style>.cls-1{fill:#f0d39c;}.cls-2{fill:#1d1d1b;}</style></defs><title>Fichier 2</title><g id="Calque_2" data-name="Calque 2"><g id="Calque_1-2" data-name="Calque 1"><polygon class="cls-1" points="73.61 41.33 6.61 44.33 6.61 4.33 65.92 4.33 73.61 41.33"/><path class="cls-2" d="M0,0,1.71,56.05l76.2-.33L79.45,0ZM76.15,53.91l-72.69.32L1.86,1.81H76.61l-37,32.69L5.23,4.76l-.16-.13a.88.88,0,0,0-.5-.16A.91.91,0,0,0,3.91,6l.15.13,21.5,18.63L6.65,49.21l-.13.17a.86.86,0,0,0-.14.47.92.92,0,0,0,.92.91.93.93,0,0,0,.75-.4L26.93,25.94l12.66,11,13-11.43L65,42.18l.13.17a.91.91,0,0,0,1.55-.64.85.85,0,0,0-.13-.47l-.08-.1L53.9,24.26,77.55,3.39Z"/></g></g></svg>