<svg xmlns="http://www.w3.org/2000/svg" viewBox="0 0 74.5 74.5"><defs><style>.cls-1{fill:#f0d39c;}</style></defs><title>ico_facebook</title><g id="Calque_2" data-name="Calque 2"><g id="icones"><polygon class="cls-1" points="63.26 68.66 5.78 68.66 5.78 11.88 54.2 3.52 63.26 68.66"/><path d="M61.42,74.5H47.53V45.11H59.61V35H47.53V29.21c0-2.53,1.71-4.24,3.31-4.24h8.77V14.89H50.84c-6.82,0-12.59,6.61-12.59,14.43V35H29.39V45.11h8.86V74.5H13.08A13.1,13.1,0,0,1,0,61.41V13.08A13.1,13.1,0,0,1,13.08,0H61.42A13.1,13.1,0,0,1,74.5,13.08V61.42A13.1,13.1,0,0,1,61.42,74.5Zm-11.89-2H61.42A11.09,11.09,0,0,0,72.5,61.42V13.08A11.09,11.09,0,0,0,61.42,2H13.08A11.09,11.09,0,0,0,2,13.08V61.41A11.09,11.09,0,0,0,13.08,72.5H36.25V47.11H27.39V33h8.86V29.32c0-8.91,6.68-16.43,14.59-16.43H61.61V27H50.84c-.44,0-1.31.79-1.31,2.24V33H61.61V47.11H49.53Z"/></g></g></svg>