<svg xmlns="http://www.w3.org/2000/svg" viewBox="0 0 97.25 76.63"><defs><style>.cls-1{fill:#dead60;}.cls-2{fill:#1d1d1b;}</style></defs><title>Fichier 1</title><g id="Calque_2" data-name="Calque 2"><g id="Calque_1-2" data-name="Calque 1"><ellipse class="cls-1" cx="79.76" cy="17.99" rx="10.5" ry="17.48" transform="translate(27.09 80.53) rotate(-62.6)"/><path class="cls-1" d="M83,69.44c0,11.25-41.09,5.94-54.23,5.94s-7.61-6.58-7.61-17.83S38.43,34.63,51.56,34.63,83,58.18,83,69.44Z"/><path class="cls-2" d="M56.46,64.65A12.59,12.59,0,1,1,69.05,52.06,12.61,12.61,0,0,1,56.46,64.65Zm0-23.18A10.59,10.59,0,1,0,67.05,52.06,10.6,10.6,0,0,0,56.46,41.47Z"/><path class="cls-2" d="M57.4,76.29H24.89a6,6,0,0,1-5.58-4.15l0-.16a37.78,37.78,0,0,1,0-6.79,84.13,84.13,0,0,1,4.2-18.91c.17-.53.34-1.09.52-1.68a29.35,29.35,0,0,1,2.49-6.39c1.83-3.11,4.14-4.31,7.5-3.91a24.18,24.18,0,0,0,5.64,0,3.84,3.84,0,0,0,1.1-.23c1.28-.53,2.21-2.67,3-4.39a19.82,19.82,0,0,1,1.08-2.25c.15-.24.28-.5.42-.75.69-1.26,1.46-2.68,3.25-3.24a23.33,23.33,0,0,1,6.35-.67l1,0a4.91,4.91,0,0,1,.55,0,4.91,4.91,0,0,1,.55,0l1,0a23.25,23.25,0,0,1,6.35.67c1.79.56,2.57,2,3.25,3.24.14.25.28.51.42.75A21.62,21.62,0,0,1,69,29.68c.75,1.72,1.68,3.86,3,4.39a3.91,3.91,0,0,0,1.1.23,24.18,24.18,0,0,0,5.64,0c3.37-.4,5.68.8,7.5,3.91a29.39,29.39,0,0,1,2.5,6.39c.17.59.34,1.15.52,1.68a84.57,84.57,0,0,1,4.2,18.91,37.71,37.71,0,0,1,0,6.79l0,.16A6,6,0,0,1,88,76.28ZM21.26,71.7A4,4,0,0,0,25,74.29H87.88A4,4,0,0,0,91.5,71.7a36.53,36.53,0,0,0,0-6.34h0A82.48,82.48,0,0,0,87.33,46.9c-.17-.54-.35-1.12-.53-1.72a28,28,0,0,0-2.3-6c-1.42-2.42-3-3.24-5.54-2.94a26,26,0,0,1-6.11,0,6.19,6.19,0,0,1-1.64-.37c-2-.85-3.08-3.29-4-5.44a20.5,20.5,0,0,0-1-2c-.16-.27-.31-.55-.47-.83-.57-1.05-1.06-2-2.08-2.28a21.77,21.77,0,0,0-5.79-.58l-1,0h-.57a3.12,3.12,0,0,0-.44,0l-1,0a21.66,21.66,0,0,0-5.78.58c-1,.32-1.52,1.23-2.09,2.28-.15.28-.3.56-.46.83a20.5,20.5,0,0,0-1,2c-.94,2.15-2,4.59-4,5.44a6.19,6.19,0,0,1-1.64.37,26,26,0,0,1-6.11,0c-2.56-.3-4.11.52-5.53,2.94a27.46,27.46,0,0,0-2.31,6c-.18.6-.35,1.18-.53,1.72a82.52,82.52,0,0,0-4.11,18.46A35.64,35.64,0,0,0,21.26,71.7Z"/><path class="cls-2" d="M82.5,32.19A9.77,9.77,0,0,1,76,30.13a5.38,5.38,0,0,1-1.15-1.22,3.63,3.63,0,0,1-.45-1.65v-.14c-.06-.58-.09-1.17-.12-1.76-.11-2-.21-3.84-1.24-5.36l-.09-.13a8.56,8.56,0,0,0-1.57-2l-6.07,0-8.89-.08-8.87.08-6.07,0a8.56,8.56,0,0,0-1.57,2l-.09.13c-1,1.52-1.13,3.39-1.24,5.36,0,.59-.06,1.18-.12,1.76v.14A3.63,3.63,0,0,1,38,28.91a5.38,5.38,0,0,1-1.15,1.22c-1.85,1.58-4.49,2.26-7.84,2a21.38,21.38,0,0,1-2.41-.33,15,15,0,0,1-5.18-2.23,14,14,0,0,1-3.85-3.65c-1-1.47-2.52-3.59-1.83-5.63a12.16,12.16,0,0,1,1.75-2.93l.59-.83a68.58,68.58,0,0,1,5.24-6.8l.84-1c1.32-1.6,2.69-3.25,4.82-4,1.22-.46,2.47-.85,3.76-1.25A78.44,78.44,0,0,1,44.15.88a85.8,85.8,0,0,1,24.48,0A78.44,78.44,0,0,1,80.08,3.44c1.29.4,2.54.79,3.76,1.25,2.13.8,3.5,2.45,4.82,4.05l.84,1a68.58,68.58,0,0,1,5.24,6.8l.59.83a11.63,11.63,0,0,1,1.74,2.93h0c.7,2-.79,4.16-1.78,5.57a14.06,14.06,0,0,1-3.89,3.71,15.15,15.15,0,0,1-5.18,2.23,21.38,21.38,0,0,1-2.41.33C83.36,32.17,82.92,32.19,82.5,32.19ZM56.39,2a83.11,83.11,0,0,0-12,.86,74.81,74.81,0,0,0-11.16,2.5c-1.25.38-2.47.76-3.64,1.2-1.63.61-2.77,2-4,3.45-.29.35-.58.7-.88,1a70.26,70.26,0,0,0-5.09,6.61c-.19.28-.4.58-.63.89A10,10,0,0,0,17.6,21c-.37,1.07.82,2.76,1.52,3.77a12.26,12.26,0,0,0,3.35,3.18,13.3,13.3,0,0,0,4.46,2,19.69,19.69,0,0,0,2.19.29c2.8.21,4.95-.31,6.4-1.53a3.86,3.86,0,0,0,.75-.77,2.06,2.06,0,0,0,.14-.76l0-.16c0-.55.08-1.11.12-1.67.11-2.16.24-4.39,1.58-6.37l.08-.12c1.38-2.08,2.22-2.85,3.08-2.86l15.09-.13,15.11.13c.86,0,1.69.78,3.08,2.86l.08.11c1.34,2,1.47,4.22,1.58,6.38,0,.56.07,1.12.12,1.67l0,.16a2.06,2.06,0,0,0,.14.76,4.15,4.15,0,0,0,.75.77c1.45,1.22,3.59,1.74,6.4,1.53a19.69,19.69,0,0,0,2.19-.29,13.21,13.21,0,0,0,4.46-2,12.11,12.11,0,0,0,3.31-3.13c.74-1.06,1.93-2.75,1.56-3.82a10.36,10.36,0,0,0-1.46-2.4c-.23-.31-.44-.61-.63-.89A70.26,70.26,0,0,0,88,11.05c-.3-.34-.59-.69-.88-1-1.21-1.46-2.35-2.84-4-3.45-1.17-.44-2.39-.82-3.64-1.2a74.81,74.81,0,0,0-11.16-2.5A83.11,83.11,0,0,0,56.39,2Z"/><circle class="cls-2" cx="49.05" cy="52.11" r="1.03"/><circle class="cls-2" cx="63.75" cy="52.04" r="1.03"/><circle class="cls-2" cx="56.43" cy="44.79" r="1.03"/><circle class="cls-2" cx="56.43" cy="59.42" r="1.03"/><circle class="cls-2" cx="51.49" cy="47.24" r="1.03"/><circle class="cls-2" cx="61.3" cy="47.17" r="1.03"/><circle class="cls-2" cx="51.49" cy="56.72" r="1.03"/><circle class="cls-2" cx="61.3" cy="56.65" r="1.03"/><circle class="cls-2" cx="56.46" cy="52.06" r="4.34"/><path class="cls-2" d="M19.3,48.4c1.75-1.91,2.57-3.95,2.19-5.46a4.09,4.09,0,0,0-2.15-2.51,6.21,6.21,0,0,0-4.79-.56c-3.3,1.09-4.23,5.24-3.84,7.85a7.5,7.5,0,0,0,1,2.77,7.16,7.16,0,0,1-2.31,0C5,49.84,2,44.93,2,40.77,2,35.87,6.28,30.29,13.65,29.05a1,1,0,0,0,.49-.24,1.54,1.54,0,0,0,.17-.19,1,1,0,0,0,.16-.55,1,1,0,0,0-1-1l-.19,0C5.69,28.41-.07,34.26,0,40.79c.05,5,3.55,10.84,9.12,11.7a9.86,9.86,0,0,0,4-.25,10.08,10.08,0,0,0,4,2.3.88.88,0,0,0,.23.07l.19,0a1,1,0,0,0,.67-.27,1.54,1.54,0,0,0,.17-.19,1,1,0,0,0-.44-1.47h0l-.24-.07a8.56,8.56,0,0,1-2.38-1.19A13.92,13.92,0,0,0,19.3,48.4Zm-5.55,1.51a5.68,5.68,0,0,1-1.06-2.49c-.29-1.93.41-5,2.48-5.65a3.24,3.24,0,0,1,1-.16,4.6,4.6,0,0,1,2.17.57,2.25,2.25,0,0,1,1.17,1.24c.17.68-.3,2.07-1.73,3.63A11.63,11.63,0,0,1,13.75,49.91Z"/></g></g></svg>