<svg xmlns="http://www.w3.org/2000/svg" viewBox="0 0 39.62 35.59"><defs><style>.cls-1{fill:#fff;}</style></defs><title>Fichier 3</title><g id="Calque_2" data-name="Calque 2"><g id="Desktop"><path class="cls-1" d="M19.86,35.56c-4.44,0-8.89.06-13.33,0C2.6,35.49.66,33.36,1.1,29.45c.33-2.82.9-5.62,1.46-8.4.63-3.13,3-4.19,5.8-4.27,3-.09,5.1-1,5.05-4.48a1.25,1.25,0,0,1,.11-.67c2.49-3.72,6.26-1.33,9.4-1.9,2-.37,3.31.81,3.4,2.88.14,3,1.74,3.93,4.63,4.13,4.63.32,5.59,1.43,6.43,6,.39,2.13.9,4.24,1.15,6.38.5,4.43-1.26,6.43-5.68,6.48S24.19,35.56,19.86,35.56Zm-.05-1.31h0c4.32,0,8.64,0,13,0,3.79-.06,5.07-1.68,4.47-5.45-.26-1.57-.53-3.13-.83-4.69-1-5.38-1.16-5.58-6.75-6.15-2.52-.26-4.24-1.42-4.39-3.87-.18-2.89-1.73-3.31-4.05-3.09a15.56,15.56,0,0,1-2.73,0c-2.3-.21-3.92.16-4.06,3.07a3.65,3.65,0,0,1-3.66,3.77c-7.64.46-6.46,2-7.71,7.92-.24,1.11-.44,2.23-.61,3.35-.52,3.54.77,5.09,4.43,5.15C11.18,34.3,15.5,34.25,19.81,34.25Z"/><path class="cls-1" d="M20.23,0c4.62,1.05,9.31,1.84,13.83,3.22,3.4,1,5.32,3.77,5.55,7.45,0,.65-.06,1.84-.29,1.89a36.38,36.38,0,0,1-7.67,1.28,3.9,3.9,0,0,1-2.88-2.51C28.4,8.85,27.08,8.05,24.91,8c-2.72-.12-5.46-.37-8.17-.24s-5.81.24-6,4.35c0,.65-1.28,1.49-2.13,1.79a5.6,5.6,0,0,1-3,.13C3.78,13.54,1,13.27.47,12.11c-1-2.4-.4-5.67,2.14-6.91A74.61,74.61,0,0,1,15,.92c1.58-.45,3.4-.08,5.1-.08ZM1.64,12.42c1.28.06,2.5.09,3.71.19,2.6.22,4.72,0,4.86-3.47,0-.75,1.69-2,2.65-2.06a123.06,123.06,0,0,1,13.85,0c1,.06,2.47,1.56,2.84,2.68.55,1.67.83,3.12,3,2.82,1.91-.26,3.81-.63,5.72-.95-.66-1.84-1.22-3.73-2-5.5a3.51,3.51,0,0,0-1.89-1.39,37.25,37.25,0,0,0-29.15.12C2.12,6.13,1,8.81,1.64,12.42Z"/><path class="cls-1" d="M19.88,17.3a6.58,6.58,0,0,1,6.24,6.42A6.53,6.53,0,0,1,20,29.91a6.31,6.31,0,1,1-.13-12.61Zm4.94,6.25a5.11,5.11,0,0,0-5.1-4.87,5.18,5.18,0,0,0-4.84,5.15,5.12,5.12,0,0,0,4.94,4.68A5.14,5.14,0,0,0,24.82,23.55Z"/></g></g></svg>