<svg xmlns="http://www.w3.org/2000/svg" viewBox="0 0 74.37 83.4"><defs><style>.cls-1{fill:#caded0;}.cls-2{fill:#4d837d;}</style></defs><title>Fichier 2</title><g id="Calque_2" data-name="Calque 2"><g id="Calque_1-2" data-name="Calque 1"><ellipse class="cls-1" cx="49.96" cy="31.45" rx="7.25" ry="20" transform="translate(9.64 74.56) rotate(-79.11)"/><path class="cls-2" d="M39.15,46.16C55.35,48.52,67.33,58.4,65.9,68.24S50.17,84.15,34,81.8,5.1,75.83,6.53,66,23,43.81,39.15,46.16Z"/><path d="M74.36,69.92v-.46c0-2.29-.14-4.57-.36-6.77a43.81,43.81,0,0,0-3.42-14l1.8-.29a2.69,2.69,0,0,0,1.43-.6c.74-.68.6-2,.34-3.57,0-.25-.08-.47-.09-.61-.13-1.67-.28-3-.45-4.32a37.79,37.79,0,0,0-2-8.29l-.17-.47c-.72-2-1.47-3.88-2.66-4.34a70.78,70.78,0,0,0-11.14-3.28,1.17,1.17,0,0,0-.17-.38c-.42-.62-1.35-1-2.85-1.33A10.17,10.17,0,0,0,52.4,21c-1-5.42-6.36-9.52-12.62-9.52s-11.46,4-12.58,9.33A6,6,0,0,0,26,20.64L25.13,8.26,25,7.89,21.48.24l0-.08h0a.38.38,0,0,0-.3-.15.35.35,0,0,0-.33.21.19.19,0,0,0,0,.07L18.13,8.72l1,14.44L7.23,6.54A.59.59,0,0,0,6.4,6.4L.24,10.8a.55.55,0,0,0-.14.78L10,25.51c-1.23.38-1.91.62-1.95.63l-.28.1-.17.25a28.38,28.38,0,0,0-4.46,13,41.79,41.79,0,0,0-.28,5.76c0,.22,0,.54,0,.92-.14,2.18-.17,3.91.8,4.68a2.12,2.12,0,0,0,.88.38c1,.24,1.9.42,2.78.59-.2.38-.37.74-.48,1l-.08.16a31.63,31.63,0,0,0-2.85,12c-.12,1.7-.16,3.46-.14,5.37,0,.33,0,.68,0,1a10.38,10.38,0,0,0,.72,4.86,6.55,6.55,0,0,0,3.94,3,62.4,62.4,0,0,0,7.4,1.69l2.16.4A103.09,103.09,0,0,0,28.2,82.85a109.29,109.29,0,0,0,11,.55A112.45,112.45,0,0,0,68.1,79.61a9,9,0,0,0,4.37-2.32C74.41,75.19,74.39,72.39,74.36,69.92ZM72.53,46.37l.64.69-.64-.68ZM39.78,13.64c5.33,0,9.82,3.49,10.54,8.05l-.79-.09a96.27,96.27,0,0,0-19.5,0l-.78.08h0C29.93,17.11,34.37,13.64,39.78,13.64ZM24.19,22.36l-1,.15-.47.08L22,12a3.26,3.26,0,0,0,.82-.19,3.81,3.81,0,0,0,.61-.29ZM21,5.17h.08A3.26,3.26,0,0,0,21.92,5l1.46,3.34L23.19,9a1.66,1.66,0,0,1-1,1,1.45,1.45,0,0,1-.46.09,1.64,1.64,0,0,1-1.59-.94l-.23-.49Zm.82,17.57L21,22.9l-.74-11.18a3.5,3.5,0,0,0,.87.25ZM9.28,21.2l-1-1.39,1.38-1h0a.7.7,0,0,0-.41-1.28.67.67,0,0,0-.39.12l-1.41,1-1-1.39,1.39-1a.72.72,0,0,0,.31-.59.7.7,0,0,0-.7-.7.66.66,0,0,0-.37.1L7,15.14l-1.38,1-1-1.4L6,13.81,6,13.75l0,0a.69.69,0,0,0,.21-.5.78.78,0,0,0-.12-.39l0,0a.69.69,0,0,0-.57-.29.7.7,0,0,0-.38.11l0,0-1.32.93L2.63,11.89a.41.41,0,0,1,.1-.56L6,9a.53.53,0,0,1,.73.12l10.4,14.57q-2.7.6-5.19,1.29l-1.87-2.62,1.38-1,0,0a.69.69,0,0,0,.28-.56.71.71,0,0,0-.71-.71.7.7,0,0,0-.37.11l-.05,0ZM5,49.39H4.86c-.3-.41-.18-2.38-.13-3.11,0-.44,0-.81,0-1.07A43,43,0,0,1,5,39.7,26.94,26.94,0,0,1,9,27.81c.45-.15,1.42-.47,2.82-.86,2.23-.64,4.61-1.23,7.09-1.74l1.34-.27c1-.2,2.11-.39,3.25-.58l1.8-.27c.93-.14,1.88-.26,2.86-.38l.6-.07.68-.07.76-.08a93.88,93.88,0,0,1,19.11,0l1.05.12,1,.12c1.9.25,3.78.57,5.58.94A69.63,69.63,0,0,1,68,27.9c.24.13.72.8,1.58,3.23.08.2.14.37.19.5a35.51,35.51,0,0,1,1.93,7.88c.17,1.24.32,2.58.45,4.21,0,.18,0,.44.1.75a8.54,8.54,0,0,1,.17,1.94,3.7,3.7,0,0,1-.4.09L69,47c-3.5.55-7.1,1-11,1.47-1.07.13-2.17.25-3.27.36l-1,.1L52,49.09c0-.47.05-.94.09-1.42.06-.74.15-1.51.26-2.3l.08-.6a.37.37,0,0,0-.33-.41l-5-.47a.42.42,0,0,0-.45.36l-.07.49c-.15,1-.26,2.06-.33,3,0,.62-.07,1.22-.07,1.82h0c-1.62.14-3.23.27-4.85.38l-6,.42c-1.33.08-2.67.17-4,.24-1.95.11-3.71.18-5.36.23v-.09c0-.43,0-.87.05-1.31v-.12c.06-1.1.17-2.21.32-3.32l.09-.64a.31.31,0,0,0-.28-.36l-5.13-.49a.29.29,0,0,0-.3.24l-.09.63c-.12.86-.21,1.71-.28,2.55,0,.14,0,.29,0,.44-.06.86-.09,1.71-.09,2.54h0c-2.07,0-4-.09-5.88-.22-1.52-.1-3-.24-4.45-.42-.33,0-.65-.08-1-.14C7.72,50,6.42,49.74,5,49.39Zm45.15,1.78a34,34,0,0,0,.63,6.58.35.35,0,0,1-.14.35,1.48,1.48,0,0,1-.6.29.47.47,0,0,1-.17,0c-.09,0-.89-.41-1.37-3.52a28.21,28.21,0,0,1-.34-4.39c0-.38,0-.78,0-1.18s0-.91.07-1.38.09-1.15.16-1.75a.28.28,0,0,1,.29-.24l1.5.14a.23.23,0,0,1,.2.26c0,.41-.08.81-.11,1.19s-.08,1-.1,1.49a2.62,2.62,0,0,0,0,.28h0l0,.82v1.07Zm-.92,9a1.56,1.56,0,0,0,.37.1h.11l.25,0H50a2,2,0,0,0,.41-.05.5.5,0,0,0,.13,0A3,3,0,0,0,51,60l.06,0,.44-.25.14-.1a5.34,5.34,0,0,0,.51-.39,1.66,1.66,0,0,0,.47-.68h0a1.55,1.55,0,0,0,0-.84c-.12-.57-.22-1.15-.31-1.73,0-.19,0-.38-.07-.57l-.15-1.21c0-.23,0-.46,0-.69Q52,53,52,52.39A7.29,7.29,0,0,1,52,51c.06-.08,1.75-.17,2.41-.23l.55-.06,2.45-.26a61.23,61.23,0,0,1,1.39,13.83,2.12,2.12,0,0,1-1.81,2c-.09,0-9.16,1.77-13.09.4l-.11,0a1.64,1.64,0,0,1-1.28-1.4,77.26,77.26,0,0,1-.19-13.43l3.93-.31c0,.31,0,.6,0,.9s0,.45,0,.67c.06.71.14,1.41.25,2.08C47.07,58,47.92,59.68,49.21,60.14ZM24.14,52.82h0a33.79,33.79,0,0,0,.61,5.57.42.42,0,0,1-.17.42,1,1,0,0,1-.73.24c-.09,0-.89-.41-1.38-3.51a30.54,30.54,0,0,1-.33-3.66,36.72,36.72,0,0,1,.24-5.06.25.25,0,0,1,.28-.22l1.42.13a.32.32,0,0,1,.28.35c-.08.72-.14,1.44-.18,2.13v.16c0,.85-.07,1.69-.06,2.49h0Zm-.91,8A2.15,2.15,0,0,0,24,61a3.46,3.46,0,0,0,2.23-1,1.55,1.55,0,0,0,.47-.69h0a1.68,1.68,0,0,0,0-.84A31.67,31.67,0,0,1,26,52.77c1.43-.05,2.95-.12,4.6-.2A65.12,65.12,0,0,1,31.3,64.9a2.11,2.11,0,0,1-1.88,1.95c-.09,0-9.2,1.46-13.08,0l-.12,0A1.63,1.63,0,0,1,15,65.34a76.77,76.77,0,0,1,.18-12.67c1.66.1,3.36.15,5.17.17a28.38,28.38,0,0,0,.29,3C21.09,58.72,21.94,60.35,23.23,60.82ZM71.09,76a7,7,0,0,1-3.47,1.79A110.29,110.29,0,0,1,28.39,81c-3-.29-6.18-.78-10-1.54L16.17,79A62.22,62.22,0,0,1,9,77.4a4.76,4.76,0,0,1-2.84-2.07,8.81,8.81,0,0,1-.51-4c0-.37,0-.73,0-1.07,0-1.86,0-3.57.14-5.22A30,30,0,0,1,8.44,53.78l.1-.19c.15-.33.44-.93.75-1.46l.41,0c1.17.15,2.38.27,3.59.36a76.06,76.06,0,0,0-.17,12.95,3.5,3.5,0,0,0,2.6,3.1,17.79,17.79,0,0,0,5.91.78,57.3,57.3,0,0,0,8.11-.67A4,4,0,0,0,33.18,65a67,67,0,0,0-.65-12.5c1-.06,2-.11,3-.18l5-.33a75,75,0,0,0,.22,13.5,3.49,3.49,0,0,0,2.7,3,15.79,15.79,0,0,0,4.81.59,54.9,54.9,0,0,0,9.21-1,4,4,0,0,0,3.31-3.85,63.17,63.17,0,0,0-1.4-14.05c3.27-.39,6.34-.8,9.33-1.26a41,41,0,0,1,3.48,13.93c.22,2.14.34,4.36.36,6.59v.47C72.5,72.16,72.53,74.46,71.09,76Z"/></g></g></svg>