<svg xmlns="http://www.w3.org/2000/svg" viewBox="0 0 118.2 71.74"><defs><style>.cls-1{fill:#caded0;}.cls-2{fill:#4d837d;}</style></defs><title>Fichier 1</title><g id="Calque_2" data-name="Calque 2"><g id="Calque_1-2" data-name="Calque 1"><path class="cls-1" d="M97.48,54.67C93.7,64.37,81.66,73.1,75.7,70.78S68,58.72,71.74,49,80.27,31.8,86.23,34.12,101.25,45,97.48,54.67Z"/><path class="cls-2" d="M50.34,46.86c4.42,8.86-1.89,15.63-10.67,20s-18.13,6.92-22.56-1.94-2.26-25.76,6.52-30.15S45.91,38,50.34,46.86Z"/><path d="M109.3,69.13c.57-1.32,1.22-2.77,1.84-4.31,2.81-7,5.74-17-1.24-22.54A65.92,65.92,0,0,0,102,38.14L104.19,30l-.76-.2,5.84-22.21-11-2.89L92.41,26.88l-.76-.21-2.16,8.21C85.38,34.21,76.73,33.43,72.9,41s-5.74,18-5,27.85l-3.47,0a46.22,46.22,0,0,0,0-18.33c-.28-1.21-.54-2.42-.79-3.62-2.1-10-4.28-20.38-22.38-18l-1.4-5.67-.91.23L33.08,0,20.36,3.15l5.77,23.48-.89.22,1.41,5.72C9,39,11.51,48.7,14.18,58.94c.32,1.2.64,2.43.94,3.67a30.12,30.12,0,0,0,2.15,6L0,68.45V71l18.59.11h0l23.76.14,32.47.19h.77l13,.08h1.72l15.9.09,12,.08V69.18Zm-78.09-66,5.18,21L28.61,26,23.45,5Zm7.65,47.75h-.12a3.31,3.31,0,0,1-2.11-.56,11.36,11.36,0,0,1-4.44-5.93L29.08,31.72h0l-.75-3,9.58-2.35L41.76,42a8.37,8.37,0,0,1,.16,2.47C41.75,47.19,40.63,50.4,38.86,50.84ZM17.6,62c-.3-1.27-.63-2.51-.94-3.73C14,48.12,12.05,40.69,27.26,35.06L29.71,45a13.78,13.78,0,0,0,5.6,7.5,7.25,7.25,0,0,0,1,.49l.28.11a6.59,6.59,0,0,0,.72.22l.26.06a4.73,4.73,0,0,0,.9.09h0a4.31,4.31,0,0,0,1-.12c4.25-1,5.64-8.37,4.77-11.94l-2.45-10c15.5-2,17.17,6,19.27,16,.26,1.21.52,2.44.8,3.68a43.84,43.84,0,0,1,0,17.72l-34.27-.21-7.41,0A28.88,28.88,0,0,1,17.6,62Zm84.15-22.71a1,1,0,0,1,0,.1l0-.11ZM90.1,42.64l.33-1.27,1.59-6h0l1.45-5.53,7.6,2L97.69,44.64a9.14,9.14,0,0,1-2.36,3.73c-1.14,1.11-2.28,1.66-3,1.46a1.55,1.55,0,0,1-.54-.28c-1.17-.92-1.92-3.66-1.81-5.77A5.7,5.7,0,0,1,90.1,42.64Zm10-34.82,6.09,1.59L101,29.13l-6.09-1.59ZM75.17,42.19c2.21-4.37,6.45-5.88,13.67-4.82L87.62,42c-.77,3,.19,9.3,4,10.31h0a4.14,4.14,0,0,0,.87.11h.19a4.89,4.89,0,0,0,1-.13l.06,0a6.63,6.63,0,0,0,1-.37l.15-.07a7.57,7.57,0,0,0,1-.61l.25-.19c.28-.22.56-.46.85-.72a1.42,1.42,0,0,1,.13-.12,11.39,11.39,0,0,0,3-4.91L101,42l.37-1.39a74.61,74.61,0,0,1,6.9,3.67c2.23,1.77,3.35,4.32,3.35,7.72,0,3.16-1,7.1-2.89,11.88-.68,1.67-1.38,3.27-2,4.66l-.23.52a1.08,1.08,0,0,1-.28,0l-7.6,0c1.19-4.68,1.64-8,.53-9.89a3.08,3.08,0,0,0-2-1.48C93,56.59,91,63,89.27,69l-4.34,0c1.75-6.2,2.77-10.79,1.43-13.13a3.15,3.15,0,0,0-2-1.51c-4.39-1.1-6.31,5.42-8.85,14.58l-5.1,0C69.73,59.4,71.48,49.49,75.17,42.19ZM82.28,69H79.87l-1.69,0c1.78-6.42,3.65-12.6,5.57-12.11a.57.57,0,0,1,.39.3C85.1,58.79,83.52,64.63,82.28,69Zm9.64.06c1.14-3.93,2.92-9.3,4.66-8.84a.55.55,0,0,1,.39.29c.82,1.4-.28,6-1,8.57Z"/></g></g></svg>