<svg xmlns="http://www.w3.org/2000/svg" viewBox="0 0 165.08 734.08"><defs><style>.cls-1{fill:#afc46b;}.cls-2{fill:#aaba68;}</style></defs><title>Fichier 3</title><g id="Calque_2" data-name="Calque 2"><g id="Desktop"><path class="cls-1" d="M10.91,395.74C-11,368.21,6.83,350,6.83,350Z"/><path class="cls-2" d="M10.91,395.74,6.83,350C26.44,359.25,10.91,395.74,10.91,395.74Z"/><path class="cls-1" d="M110.89,86.21C73.3,60,93.07,38.78,93.07,38.78Z"/><path class="cls-2" d="M110.89,86.21,93.07,38.78C122.67,46.19,110.89,86.21,110.89,86.21Z"/><path class="cls-1" d="M23.87,30.08C31.47-11.63,49.7,2.2,49.7,2.2Z"/><path class="cls-2" d="M23.87,30.08,49.7,2.2C52.15,32,23.87,30.08,23.87,30.08Z"/><path class="cls-1" d="M147.47,191.7c-26.68-49.29,6.54-61.58,6.54-61.58Z"/><path class="cls-2" d="M147.47,191.7,154,130.12C182.29,154.44,147.47,191.7,147.47,191.7Z"/><path class="cls-1" d="M133.22,533c-42.13-10.53-30.85-34.81-30.85-34.81Z"/><path class="cls-2" d="M133.22,533l-30.85-34.81C131.42,495.18,133.22,533,133.22,533Z"/><path class="cls-1" d="M79.91,446.91c53.64-31.33,28.43-60.16,28.43-60.16Z"/><path class="cls-2" d="M79.91,446.91l28.43-60.16C67.24,394.23,79.91,446.91,79.91,446.91Z"/><path class="cls-1" d="M66,695.52c-6.6-55.66,28.8-54.82,28.8-54.82Z"/><path class="cls-2" d="M66,695.52l28.8-54.82C112.14,673.74,66,695.52,66,695.52Z"/><path class="cls-1" d="M109.36,734.08C108.39,706,94.2,712.6,94.2,712.6Z"/><path class="cls-2" d="M109.36,734.08,94.2,712.6C89.39,731.61,109.36,734.08,109.36,734.08Z"/><path class="cls-1" d="M37.16,326c-6-50.67,28.35-54.71,28.35-54.71Z"/><path class="cls-2" d="M37.16,326l28.35-54.71C82.11,299.5,37.16,326,37.16,326Z"/></g></g></svg>