<?xml version="1.0" encoding="utf-8"?>
<!-- Generator: Adobe Illustrator 22.1.0, SVG Export Plug-In . SVG Version: 6.00 Build 0)  -->
<svg version="1.1" id="Calque_1" xmlns="http://www.w3.org/2000/svg" xmlns:xlink="http://www.w3.org/1999/xlink" x="0px" y="0px"
	 viewBox="0 0 165.1 734.1" style="enable-background:new 0 0 165.1 734.1;" xml:space="preserve">
<style type="text/css">
	.st0{fill:#AFC46B;}
	.st1{fill:#AABA68;}
</style>
<title>Fichier 3</title>
<g id="Calque_2_1_">
	<g id="Desktop">
		<path class="st0" d="M20.9,395.7C-1,368.2,16.8,350,16.8,350L20.9,395.7z"/>
		<path class="st1" d="M20.9,395.7L16.8,350C36.4,359.3,20.9,395.7,20.9,395.7z"/>
		<path class="st0" d="M110.9,86.2C73.3,60,93.1,38.8,93.1,38.8L110.9,86.2z"/>
		<path class="st1" d="M110.9,86.2L93.1,38.8C122.7,46.2,110.9,86.2,110.9,86.2z"/>
		<path class="st0" d="M23.9,30.1C31.5-11.6,49.7,2.2,49.7,2.2L23.9,30.1z"/>
		<path class="st1" d="M23.9,30.1L49.7,2.2C52.2,32,23.9,30.1,23.9,30.1z"/>
		<path class="st0" d="M147.5,191.7c-26.7-49.3,6.5-61.6,6.5-61.6L147.5,191.7z"/>
		<path class="st1" d="M147.5,191.7l6.5-61.6C182.3,154.4,147.5,191.7,147.5,191.7z"/>
		<path class="st0" d="M107.2,541c-42.1-10.5-30.8-34.8-30.8-34.8L107.2,541z"/>
		<path class="st1" d="M107.2,541l-30.8-34.8C105.4,503.2,107.2,541,107.2,541z"/>
		<path class="st0" d="M53.9,454.9c53.6-31.3,28.4-60.2,28.4-60.2L53.9,454.9z"/>
		<path class="st1" d="M53.9,454.9l28.4-60.2C41.2,402.2,53.9,454.9,53.9,454.9z"/>
		<path class="st0" d="M66,695.5c-6.6-55.7,28.8-54.8,28.8-54.8L66,695.5z"/>
		<path class="st1" d="M66,695.5l28.8-54.8C112.1,673.7,66,695.5,66,695.5z"/>
		<path class="st0" d="M109.4,734.1c-1-28.1-15.2-21.5-15.2-21.5L109.4,734.1z"/>
		<path class="st1" d="M109.4,734.1l-15.2-21.5C89.4,731.6,109.4,734.1,109.4,734.1z"/>
		<path class="st0" d="M37.2,326c-6-50.7,28.4-54.7,28.4-54.7L37.2,326z"/>
		<path class="st1" d="M37.2,326l28.4-54.7C82.1,299.5,37.2,326,37.2,326z"/>
	</g>
</g>
</svg>
