<svg xmlns="http://www.w3.org/2000/svg" viewBox="0 0 239.63 924.57"><defs><style>.cls-1{fill:#afc46b;}.cls-2{fill:#aaba68;}</style></defs><title>Fichier 4</title><g id="Calque_2" data-name="Calque 2"><g id="Desktop"><path class="cls-1" d="M27.7,242.15c26.14-66.18-17-74.29-17-74.29Z"/><path class="cls-2" d="M27.7,242.15l-17-74.29C-21,203.68,27.7,242.15,27.7,242.15Z"/><path class="cls-1" d="M169.89,218.84c-37.83-28.53-17-50.94-17-50.94Z"/><path class="cls-2" d="M169.89,218.84l-17-50.94C183,176.17,169.89,218.84,169.89,218.84Z"/><path class="cls-1" d="M235.71,763.91C166.57,747.1,184.8,707.2,184.8,707.2Z"/><path class="cls-2" d="M235.71,763.91,184.8,707.2C232.36,702,235.71,763.91,235.71,763.91Z"/><path class="cls-1" d="M118.25,606.76c-5.83-55.75,29.56-54.42,29.56-54.42Z"/><path class="cls-2" d="M118.25,606.76l29.56-54.42C164.66,585.62,118.25,606.76,118.25,606.76Z"/><path class="cls-1" d="M182.84,924.57c49.07-14.59,29.86-34.14,29.86-34.14Z"/><path class="cls-2" d="M182.84,924.57l29.86-34.14C176.57,891.59,182.84,924.57,182.84,924.57Z"/><path class="cls-1" d="M204.46,128.54c58.19-40.95,26.62-71.41,26.62-71.41Z"/><path class="cls-2" d="M204.46,128.54l26.62-71.41C184.9,69.65,204.46,128.54,204.46,128.54Z"/><path class="cls-1" d="M176.26,51.13C247,43.3,234,1.39,234,1.39Z"/><path class="cls-2" d="M176.26,51.13,234,1.39C187.5-9.9,176.26,51.13,176.26,51.13Z"/><path class="cls-1" d="M104.76,311c46-35.92,17.57-51.67,17.57-51.67Z"/><path class="cls-2" d="M104.76,311l17.57-51.67C84.54,274.48,104.76,311,104.76,311Z"/><path class="cls-1" d="M130.83,524.15c15.23-37.77-9.41-42.59-9.41-42.59Z"/><path class="cls-2" d="M130.83,524.15l-9.41-42.59C103.12,501.93,130.83,524.15,130.83,524.15Z"/><path class="cls-1" d="M137.38,142.29c54.46-13.27,41.29-46.15,41.29-46.15Z"/><path class="cls-2" d="M137.38,142.29l41.29-46.15C141.67,91.48,137.38,142.29,137.38,142.29Z"/><path class="cls-1" d="M86.26,238.86c33,7.46,33.68-13.39,33.68-13.39Z"/><path class="cls-2" d="M86.26,238.86l33.68-13.39C100.79,213.18,86.26,238.86,86.26,238.86Z"/></g></g></svg>