<svg xmlns="http://www.w3.org/2000/svg" viewBox="0 0 76.36 105.88"><defs><style>.cls-1{fill:#e9e2cc;}.cls-2{fill:#1d1d1b;}</style></defs><title>icone_prix</title><g id="Calque_2" data-name="Calque 2"><g id="Calque_1-2" data-name="Calque 1"><path class="cls-1" d="M61.84,22.83c1.08,18.14-22.51,59.29-34.07,60s-15.14-25.9-16.22-44S19.07,5.57,30.63,4.87,60.75,4.68,61.84,22.83Z"/><path d="M71.55,35.92a8.25,8.25,0,0,0-4.2-15.35l-.33,0a8.17,8.17,0,0,0,1.11-4.11A8.24,8.24,0,0,0,55.76,9.33c0-.11,0-.21,0-.33A8.25,8.25,0,0,0,40.44,4.8,8.25,8.25,0,0,0,24.72,7.58a8.23,8.23,0,0,0-12.61,9.5,7.79,7.79,0,0,0-2-.25A8.23,8.23,0,0,0,5.5,31.89a8.25,8.25,0,0,0,1,15.84,8.25,8.25,0,0,0,5.88,14h.11l-4.67,44L38,83l29.17,22.91-5.86-40.8a7.54,7.54,0,0,0,.82.06,8.27,8.27,0,0,0,8.26-8.26,8.18,8.18,0,0,0-1.87-5.22,8.25,8.25,0,0,0,3-15.74ZM59.87,10.15a6.35,6.35,0,0,1,6.34,6.33,6.23,6.23,0,0,1-1,3.4c0-.09-.12-.17-.18-.26s-.22-.31-.34-.47q-.34-.49-.72-1c-.11-.16-.24-.31-.36-.47-.27-.33-.55-.67-.84-1l-.29-.33a32.42,32.42,0,0,0-2.56-2.55l-.2-.18c-.39-.34-.78-.67-1.19-1l-.29-.23-1.19-.89-.29-.2-.29-.21A6.25,6.25,0,0,1,59.87,10.15ZM47.53,2.67A6.34,6.34,0,0,1,53.86,9a4.89,4.89,0,0,1,0,.54l-.26-.14L53,9.13c-.36-.19-.71-.36-1.06-.52-.2-.09-.38-.18-.57-.25q-.57-.25-1.14-.48l-.48-.19c-1.11-.41-2.22-.77-3.36-1.07L46,6.52c-.41-.11-.84-.19-1.26-.28l-.56-.11-1.22-.2-.55-.07-.31-.05A6.33,6.33,0,0,1,47.53,2.67ZM32.94,1.93A6.28,6.28,0,0,1,38.7,5.61h-1l-.75,0L36,5.7l-.59,0c-.35,0-.69.06-1,.11l-.54.07-1,.16-.56.1-1,.2-.63.16c-.3.06-.58.14-.88.22L29,7c-.25.08-.51.15-.76.24l-.87.31-.64.22-.12,0A6.33,6.33,0,0,1,32.94,1.93Zm-13.09,6a6.28,6.28,0,0,1,3.77,1.26c-.08,0-.16.08-.24.12l-.5.27-1,.59-.52.32-1,.67-.43.29a33.49,33.49,0,0,0-2.76,2.15l-.35.32c-.33.29-.64.59-.95.89-.14.12-.26.26-.39.38-.3.3-.59.61-.87.92l-.36.38-.18.2a6.22,6.22,0,0,1-.48-2.42A6.34,6.34,0,0,1,19.85,7.9Zm18.51.75A29.34,29.34,0,1,1,9,38,29.37,29.37,0,0,1,38.36,8.65ZM56.85,65.86a6.31,6.31,0,0,1-11.42,3.73,32.47,32.47,0,0,0,11.3-4.94A6,6,0,0,1,56.85,65.86ZM42.42,70.12A6.33,6.33,0,0,1,30,69.29l.79.19a3.27,3.27,0,0,0,.45.1c.67.16,1.35.28,2,.39l.56.08c.57.08,1.12.14,1.69.19l.51.05c.7,0,1.38.07,2.07.07h1.36l1,0,.44,0C41.45,70.23,41.94,70.18,42.42,70.12ZM27.06,68.34A6.33,6.33,0,0,1,16.5,61.87l.23.22.46.39.91.76.48.39c.33.25.65.49,1,.72l.44.32,1.46,1,0,0c.48.3,1,.58,1.48.84.17.1.35.19.52.27.35.19.69.36,1.05.52l.6.28c.34.16.69.3,1,.45l.58.23ZM14.62,61.45a7.81,7.81,0,0,0-.3,1.29l.12-1.23ZM3.79,25.09a6.34,6.34,0,0,1,6.34-6.34,6.41,6.41,0,0,1,1.95.31A32.9,32.9,0,0,0,6.85,30.51,6.41,6.41,0,0,1,3.79,25.09ZM1.93,39.67a6.31,6.31,0,0,1,4.34-6A31.29,31.29,0,0,0,6,38a32.58,32.58,0,0,0,1,7.88A6.33,6.33,0,0,1,1.93,39.67ZM12.37,59.84A6.34,6.34,0,0,1,7.9,49c0,.08.07.16.11.25s.14.39.22.58c.15.36.29.71.44,1.06.08.19.18.39.26.59s.34.71.52,1.06l.25.5c.27.51.54,1,.84,1.5,0,0,0,0,0,0,.3.5.62,1,.94,1.47l.31.44c.23.33.47.67.72,1,.12.17.25.33.37.48l.75.93.39.45c.06.07.12.15.19.22A6.09,6.09,0,0,1,12.37,59.84Zm52.19,41.55L38,80.54l-27.8,21,4.06-38.3c0,.25,0,.5,0,.76a8.26,8.26,0,0,0,14,5.95,8.25,8.25,0,0,0,16,1.13,8.23,8.23,0,0,0,14.63-5.21,8.18,8.18,0,0,0-.13-1.49l.63.26ZM62.11,63.21A6.36,6.36,0,0,1,60.37,63a7.79,7.79,0,0,1-.95-.37c.33-.28.64-.57,1-.87A32.07,32.07,0,0,0,67.08,53a6.32,6.32,0,0,1-5,10.25ZM68.45,26c-.15-.34-.28-.69-.43-1l-.29-.63c-.16-.33-.31-.66-.48-1L67,22.78l-.14-.26a4.7,4.7,0,0,1,.53,0,6.33,6.33,0,0,1,3.19,11.8c0-.1,0-.2,0-.3l-.09-.6c-.06-.39-.11-.77-.18-1.16l-.12-.62c-.07-.39-.17-.78-.26-1.17,0-.18-.08-.37-.13-.55-.14-.54-.29-1.07-.45-1.6,0,0,0-.1,0-.15-.16-.52-.35-1-.54-1.55C68.6,26.4,68.53,26.2,68.45,26Zm3.83,22.16a6.19,6.19,0,0,1-3.74,1.55A31.79,31.79,0,0,0,70.75,38c0-.11,0-.21,0-.32a6.32,6.32,0,0,1,1.54,10.5Z"/><path class="cls-2" d="M56.94,38.46c-3.63-3.08-6.86-4.16-9.58-3.23-3.7,1.28-5.16,5.83-5.54,7.3a18.2,18.2,0,0,0-3.6,3.81,55.87,55.87,0,0,1,1.12-6.55c12.43-4.23,11.18-20,11.17-20.18l-.08-.83-.83.1c-6,.76-10.05,3-12.1,6.68-3.36,6.06,0,13.65.21,14A58.31,58.31,0,0,0,36.36,49a24.29,24.29,0,0,0-2.47-3.87c0-1.37-.35-8.28-4.94-11.26-3-1.95-7.1-1.75-12.18.59l-.66.3.23.68c.05.13,3.87,11.23,13.27,11.23a12.82,12.82,0,0,0,3.09-.39,22.58,22.58,0,0,1,3.51,6.49c0,.59,0,1.2,0,1.81h1.62c0-1.6,0-3.11.1-4.56a18,18,0,0,1,4.57-5.92,10,10,0,0,0,5,1.43,8.78,8.78,0,0,0,2-.23C54.18,44.19,57,39.7,57.1,39.5l.37-.58Zm-31.27,1.9h0l.13.07a21.43,21.43,0,0,1,5.72,4.45c-8.37,1.43-12.38-6.78-13.39-9.27,4.22-1.81,7.56-1.94,9.94-.4,2.76,1.79,3.7,5.48,4,7.88A21.76,21.76,0,0,0,26.62,39l0,0-.18-.08a.66.66,0,0,0-.28-.05.81.81,0,0,0-.81.81A.82.82,0,0,0,25.67,40.36Zm13.25-14c1.68-3,5-5,10-5.73.09,3.09-.3,13.56-9.12,17.28A34.86,34.86,0,0,1,44.68,27l0,0a.85.85,0,0,0,.13-.45.82.82,0,0,0-.81-.82.8.8,0,0,0-.65.34s0,0,0,0a34.58,34.58,0,0,0-4.91,10.69C37.69,34.25,36.94,29.91,38.92,26.34ZM49.16,43.7a7.61,7.61,0,0,1-5.24-.7,13.14,13.14,0,0,1,4.25-1.85l.09,0a.81.81,0,0,0-.21-1.59h-.22A14.51,14.51,0,0,0,44,41.06c.69-1.62,1.89-3.62,3.85-4.3s4.53.14,7.45,2.47C54.46,40.39,52.25,43,49.16,43.7Z"/></g></g></svg>