<svg xmlns="http://www.w3.org/2000/svg" viewBox="0 0 615.89 617.08"><defs><style>.cls-1{fill:#dce5a5;}</style></defs><title>Fichier 1</title><g id="Calque_2" data-name="Calque 2"><g id="Pages"><g id="Contact"><g id="Bureau"><g id="Infos_et_carte" data-name="Infos et carte"><path class="cls-1" d="M1.47,507.43c0,1,0,1.52,0,0Z"/><path class="cls-1" d="M298.34.76h.77c.56-.2,1.08-.38,1.59-.51Z"/><path class="cls-1" d="M425,2l.77.05C425.7,1.94,425.86,1.82,425,2Z"/><path class="cls-1" d="M1.87,6.59c0,1.89,0,3,.1,3.75C1.92,9.25,1.89,8.1,1.87,6.59Z"/><path class="cls-1" d="M138.76,615.83l-.55,0,1.36.12Z"/><path class="cls-1" d="M136.22,616.18c-2.8-.15.77-.29,2-.33a73.86,73.86,0,0,0-9.3-.17C128.93,616,134.83,616,136.22,616.18Z"/><path class="cls-1" d="M559.79,615l-1.26.12C559.05,615.07,559.44,615,559.79,615Z"/><path class="cls-1" d="M18.94,17.78l-.48,0c-.14,0-.08,0-.12,0l-.13,0a.37.37,0,0,0,.16,0h.26Z"/><path class="cls-1" d="M493.33,614.67l-.72.49C493.25,615,493.4,614.8,493.33,614.67Z"/><path class="cls-1" d="M300.7.25l.92-.19A9.37,9.37,0,0,0,300.7.25Z"/><path class="cls-1" d="M542,2.33c0,.15.31.27.62.37H543Z"/><path class="cls-1" d="M608.25,532.63a.75.75,0,0,0,.19-.31L608.1,530C608.13,531.2,608.18,532.07,608.25,532.63Z"/><path class="cls-1" d="M613.92,103.29c.06.14.11.53.17.55.16-2.74.2-10,.18-19.24l-.6-.57Z"/><path class="cls-1" d="M599.9,278.83l1.21-17.11c.55,54.93-.66,80.55.32,127.56l-.26-2.61c-.28,6.85,2.43,10.71-.89,86.31h-.12a58.26,58.26,0,0,1-.06,7.84l.74-13.07c.31,7.83.89,14.67,1,25.11-.14,2.22-.38,3-.58,3.19l.2,25.6-.78,7.85c.43,7.82,2.08,4.26,1.16,25.19,1.14-7.89.68,10.38,1.27,7.8-.15,1-.36,3.45-.55,5.38.13,12.45.45,35.89,1,41.69,0,0,2.41-48.7,3.63-61.8-.31,17.52.14,4.62.53,1.16l-.29-1.16c.28-10.5,1-10.5,1.2-15.75,0,0-.12.16-.2.31l.1.67c-.13.49-.22.2-.29-.36-.15.13-.27-.36-.23-3.22l.08.55c-.11-4.39,0-12,0-15.26l.61-.06c-1.15-7.78,1.75-52.31,1.79-62.76.76-10.5-.19-23.52.19-36.62.2-20.89.88-10.45,1.4-20.93.38-13.1-.7,2.65-.74-2.61l.84-15.69c.07,9.12.43,4.17.67,2.5.1-13.56,1.21-34.95,0-39.12.58-18.3,1.06-18.34,1.12-26.19-.22,2.63-.42,7.85-.66,7.89.53-7.33-.13-3.5-.25-.5-.52-11.18,2.19-58,.87-60.38h.24c-1-2.59-1.94,1.58-2.48-6.23l.44-5.21-.42-7.84c.32-5.26.58-2.68.7-2.68-.46-12.78.09-30.61.22-46.09L610,208.58c.62-13.06,1.88-36.62,1-39.23l.9-7.84c1.72-26.19-.75-18.28-.23-28.73l1-13.15v13.08c.5-13.08.82-18.32,1.46-28.75,0,0,0-.12,0-.12a5.18,5.18,0,0,1-.15,1.28l0-1.83c-.49-1.58-.83-8.41-.79-17.63.13-13.09-.59-23.33.45-44.24l-1-5.21.59-15.7h.8c0,15.38.26,44.32.3,64.09l.37.35c0-11.72-.36-25.06-.28-32.8.16-3.78,1-13.44,1.53-6.43l-.78-7.24c0-16,0-26.71,0-35.18l-16.79-.06L587.7,3.1l-30.18-.62,3.54.4c-8.1.24-16.17.47-18.43-.18-24.51-.13-49.91-.64-65.82-1.65L473.32,2c-5.18-.05-12.94-1.47-15.46-.15l-11.06.41c-7.08-.07-11.41.47-19.47-.07h0l-1.52-.11s0,.06.09.08c-16-.41.16.85-18.18.3-5.89-.67-6.51,1.2-15.45,1l-9-1.36c-16.19-.77-19,.58-42.42.59C329.58,2.18,324.13,1,331.59,0c-10.25,1.24-4.66.81-18.27,1.4-2.1-.51-.65-.62,2.36-1.07-12.08-.6-7.46.46-16.57.43-2.65,1-5.7,2.48-8.66,2.55l3.53.3c-9.65.51-20.19.75-31.41.27l.43-.49-11.95.25L250.3,3l-17,.19,2.33.17c-4,.08-17.14.29-24.66,0l.28-.34c-21.21-1.07-38.69.33-63.52.44l3.26-.7c-8.46-.69-2.32,1.08-12.4.73L138,2.62c-8.87,1.13-11.47-.24-17.58-.67l2.86,1.13L111.8,2.84c-12.69-.37-7.78-1.42-5.93-2l-8.64.89-1.68-1c-6.31,1.16-6.31-.18-17.37.44C77.27.78,80.06.57,76.3.41L58.07,1.81l11-.62L67.73,2.64c-11.46,1.1-15.52-.16-23.7.25l5.63-.43c-13.35.35-14.06-.27-21.6-.59,2.34.27,5.91.67.5.86-4,.08-2.15-.51-5.9-.67a3.28,3.28,0,0,1-1.49.52c-.4.08-.86.15-1.39.21L19,2.88c-.29,0-.52.06-1.14.09-4.24.21-9.58.31-15.33.28,0,2.87-.07,5.81-.16,8.72A3.69,3.69,0,0,1,2,10.34c.07,1.94.18,3.4.23,5.18,0,.89,0,1.86,0,3,0,.69,0,.95,0,1.37l-.07,1.33L1.6,20.09l-.27-.56a2.83,2.83,0,0,1-.27-.73l0,.39,0,.23.06.47.13.92.26,1.86.51,3.71c-.3,4.95.48,12.17-.24,11.52l-.22-2.81-.26,37.5-.86.52c1.19,3.7-.45,20.42,1,19.19C.73,99.37,2.11,120.15.44,116c-.13,24.63,1.48,37.94.67,67.89C-.31,194.55.15,223.77,0,243c.59,37.58,1.12,61.86,1.58,100.26-2,23.1.68,57.61-.44,82.47l.79,6.8C.68,449,2.21,474.27,1,497.45c.34,5.68.45,8.66.48,10,0-1.05.18-2.65.68-3.16-.35,6.62.09,20-.9,19.06l-.11-1.68c-1-1,.47,20.08-.39,27.47l1.06-4-.18,12.54-.2-3.36c.48,11,.72,20.88.82,29.94,0,4.53.07,8.87.06,13.08l-.09,18.88,41.45.4c12,0,24.83-.11,40-.75-6.78,1.16,10.08-.62,10.75.66,12.9,1.6,23.89-.35,34.47-.78,0-.06.13-.13.73-.23l18.49.15c-11,1.61,13.31-1.33,3.17,0,48.2,1.2,111.09,0,166.89.53l-2.45-.41c14.15.07,31.75-.43,42.49.23s23.48-1,27.65-1.11c11.76-.71,22.47.7,17.42.63,12.58-.2,24.41-1.67,41.87-1,6,1.37,47.64-1.33,48.16.2l.19-.13c22.37,1.08,43.46-.76,67.55.22a10.78,10.78,0,0,1-1.28.22l49-4.66-14-5.13L552.36,601l-115.14.91-91.89-1.63-223.63.55-16,1.16c-14.49-.67-30.31-.86-46.72-.88l-25,.09-12.62.07-3.05,0h-.45l-.91,0,0-.93v-3.85q0-6.47.05-12.84c.07-8.49.21-16.82.45-24.89l-1-1c-.06-13.34.55-12.43.73-15.73C17,418,15.69,290.16,17,178.46c.65-10.77.27-43.54,1-52-.61-18.15-.91-36.83-1-55.51,0-9.34-.06-18.69-.09-28,0-8.23,0-16.4,0-24.45l.11.25-.08-1.18.76-.06.41,0,.2,0h.45c.72.08.81.2.26.27,19.3-.88,49.71,0,73.35.35l-1.38.11c137.88.18,265.89-1.68,402.65-.29,17.9.46,36.62.61,55.92.62l29.33-.06,14.93-.08,3.75,0h1.89l.64,0,0,.48,0,.26v2.25c0,3.93,0,7.88,0,11.83q0,11.86,0,23.81c0,15.91-.16,31.9-.45,47.84C598.69,118.21,599.43,265.79,599.9,278.83Z"/><path class="cls-1" d="M601.23,496.05v-.57C600.81,495.51,601,496.36,601.23,496.05Z"/><path class="cls-1" d="M612.7,191.22v1l.59-3.62Z"/><path class="cls-1" d="M613.05,386.48c.13-8.77,0-9.18-.14-8C612.88,381.71,612.91,384.48,613.05,386.48Z"/><path class="cls-1" d="M602,567.73c0,4.61.22,2.85.5.14l-.08-8C602.35,562.49,602.13,565.07,602,567.73Z"/><path class="cls-1" d="M607.73,548.92l.34,1.44C608,547.65,607.86,547.76,607.73,548.92Z"/></g></g></g></g></g></svg>