<?xml version="1.0" encoding="utf-8"?>
<!-- Generator: Adobe Illustrator 22.1.0, SVG Export Plug-In . SVG Version: 6.00 Build 0)  -->
<svg version="1.1" id="Calque_1" xmlns="http://www.w3.org/2000/svg" xmlns:xlink="http://www.w3.org/1999/xlink" x="0px" y="0px"
	 viewBox="0 0 927 707" style="enable-background:new 0 0 927 707;" xml:space="preserve">
<style type="text/css">
	.st0{fill:#057B3B;}
	.st1{fill:#137C3E;}
	.st2{fill:#E69237;}
	.st3{fill:#B7CE3C;}
	.st4{fill:#48A035;}
</style>
<g>
	<g>
		<path class="st0" d="M36,558.3h-4.6c0-9.9,2.3-28.8,7-56.8c4.6-28,7-43.9,7-47.7c0-6.9-2.3-14.3-6.8-22.1l-2.2-3.8l0.2-4.1
			c8.8-3.2,22.9-4.7,42.3-4.7c2.3,4,3.4,10.5,3.4,19.6c14.7-14.1,26.3-21.2,34.9-21.2c10.9,0,17.4,7.3,19.3,21.8
			c4.4-4.6,10.1-9.4,17.2-14.4c7.1-4.9,13.4-7.4,19.1-7.4c5.6,0,10.3,2.4,14.1,7.1c3.7,4.7,5.6,11.3,5.6,19.7
			c0,8.4-1.8,22.3-5.4,41.7s-5.4,32.4-5.4,39s0.7,9.9,2.2,9.9c1,0,4.3-2,10-6l2.7-1.9l4.4,11.1c-4.2,5.5-10,10.7-17.2,15.6
			c-7.3,4.9-13.6,7.4-19.2,7.4c-12.2,0-18.3-8.9-18.3-26.8c0-6.5,1.8-19.6,5.3-39.3s5.3-32.5,5.3-38.5s-1.4-9-4.2-9
			c-4.7,0-10.1,2.3-16.1,6.9c-0.3,4.2-2.6,18.5-6.7,42.9c-4.2,24.4-6.2,43.4-6.2,56.8c-4.7,2.7-15.8,4.1-33.2,4.1
			c-0.3-2.3-0.5-7.9-0.5-16.7s1.9-23.9,5.7-45.2c3.8-21.3,5.7-34.7,5.7-40.4c0-5.7-1.5-8.5-4.6-8.5c-4.9,0-10.3,2.5-16.1,7.6
			c-0.3,1.9-2,11.2-4.9,27.8c-5.9,33.3-8.8,56.9-8.8,71C61.1,556.8,50.8,558.3,36,558.3z"/>
		<path class="st0" d="M202.1,523.3c0-17,5.1-30.5,15.4-40.4s22-14.8,35-14.8c8,0,14.6,2,19.8,5.9c5.2,3.9,7.8,9.2,7.8,15.8
			s-1.7,12.2-5,16.7s-7.4,8-12.2,10.4c-9.7,4.8-18.5,7.8-26.6,9l-4.9,0.6c1,12.8,6.2,19.2,15.7,19.2c3.3,0,6.7-0.8,10.4-2.5
			c3.7-1.6,6.5-3.3,8.6-4.9l3.1-2.5l4.9,6.5c-1.1,1.5-3.3,3.5-6.5,5.9c-3.3,2.4-6.3,4.5-9.2,6.1c-7.9,4.4-16.5,6.5-25.9,6.5
			s-16.8-3.3-22.3-10C204.8,544.4,202.1,535.2,202.1,523.3z M280.8,432.8c0,3.8-2.5,6.9-7.4,9.2c-6.7,3.1-23.4,7.8-50.1,13.9
			l-3.7-8.2c12.8-6.7,24.4-13.5,34.7-20.4c10.4-6.9,16.8-11.2,19.2-12.7c1.4,1.9,2.9,4.9,4.6,9C279.9,427.7,280.8,430.8,280.8,432.8
			z M247.9,507.8c4.1-4.6,6.1-10.6,6.1-18s-2.2-11-6.5-11c-5.2,0-9.2,4.4-12,13.2c-2.8,8.8-4.2,17-4.2,24.6
			C238.3,515.3,243.8,512.4,247.9,507.8z"/>
		<path class="st0" d="M295.7,561.1c-4.7,0-8.6-1.6-11.6-4.7c-3.1-3.1-4.6-7.5-4.6-13.2s3.4-23.7,10.1-54.1
			c6.7-30.4,10.1-52.4,10.1-65.9l-1.2-9c10.6-3.7,20.6-5.5,29.8-5.5c1.4,1.9,2,5.2,2,10c0,10.9-3.4,32-10.3,63.2
			c-6.9,31.3-10.3,49.4-10.3,54.5s0.6,7.7,1.8,7.7l14.3-5.1l3.7,7.2c-4.6,3.7-10.3,7.1-16.9,10.2
			C306.1,559.5,300.4,561.1,295.7,561.1z"/>
		<path class="st0" d="M365,523.3c0-17,5.1-30.5,15.4-40.4c10.3-9.9,22-14.8,35-14.8c8,0,14.6,2,19.8,5.9s7.8,9.2,7.8,15.8
			s-1.7,12.2-5,16.7s-7.4,8-12.2,10.4c-9.7,4.8-18.5,7.8-26.6,9l-4.9,0.6c1,12.8,6.2,19.2,15.7,19.2c3.3,0,6.7-0.8,10.4-2.5
			c3.7-1.6,6.5-3.3,8.6-4.9l3.1-2.5l4.9,6.5c-1.1,1.5-3.3,3.5-6.5,5.9c-3.3,2.4-6.3,4.5-9.2,6.1c-7.9,4.4-16.5,6.5-25.9,6.5
			s-16.8-3.3-22.3-10C367.7,544.4,365,535.2,365,523.3z M443.7,432.8c0,3.8-2.5,6.9-7.4,9.2c-6.7,3.1-23.4,7.8-50.1,13.9l-3.7-8.2
			c12.8-6.7,24.4-13.5,34.7-20.4c10.4-6.9,16.8-11.2,19.2-12.7c1.4,1.9,2.9,4.9,4.6,9C442.8,427.7,443.7,430.8,443.7,432.8z
			 M410.8,507.8c4.1-4.6,6.1-10.6,6.1-18s-2.2-11-6.5-11c-5.2,0-9.2,4.4-12,13.2c-2.8,8.8-4.2,17-4.2,24.6
			C401.2,515.3,406.7,512.4,410.8,507.8z"/>
		<path class="st0" d="M360.4,412.5c3.2,2.1,4.5,5.8,3.8,11.2c-1,7.3-6.1,23.9-15.3,49.6L340,472c1.3-14.4,1.8-27.8,1.5-40.3
			s-0.4-20.1-0.3-23c2.3-0.1,5.7,0.2,10,1C355.6,410.5,358.7,411.4,360.4,412.5z"/>
		<path class="st0" d="M526.2,469.6c0.5,0.5,0.8,1.7,0.8,3.6c0,1.8-0.1,3.8-0.4,5.9c-0.3,2.1-0.8,6.8-1.4,14.2
			c-0.7,7.4-1.4,13.8-2,19.2c-6.9,61.3-25.6,91.9-56,91.9c-4.9,0-9.4-1.3-13.4-3.9c-4-2.6-6-5.9-6-10c0-5.4,3.3-10.4,10-14.9
			s15.7-8,27-10.4c0-0.1,0.4-2,1.2-5.7s1.4-6.7,1.6-9c-8.2,6-15.8,9-23,9c-7.1,0-13-2.8-17.6-8.4c-4.6-5.6-6.8-14.5-6.8-26.8
			c0-16.1,3.6-29.5,10.8-40.1c7.2-10.7,16.8-16,28.6-16c6.7,0,13.3,1.6,19.8,4.9c6.9-2.5,14.4-3.7,22.5-3.7L526.2,469.6z
			 M465.6,580.7c-4.6,2.7-6.8,5.4-6.8,8s1.5,3.9,4.4,3.9s6.2-1.4,9.9-4.2s6.7-7.3,9.2-13.6C475.7,576,470.2,578,465.6,580.7z
			 M488.8,480.2c-5.9,0-10.5,4.7-13.9,14.2s-5.1,20-5.1,31.5s2.6,17.3,7.8,17.3c3.4,0,7.4-1.3,12.1-3.9c3.8-22.9,6.5-41.7,8.2-56.6
			C494,481,491,480.2,488.8,480.2z"/>
		<path class="st0" d="M525.4,543.2c0-5.8,1.8-15.7,5.3-29.8s5.3-22.7,5.3-25.9c0-3.2-2.5-7.5-7.4-12.8l0.2-2.7
			c9.3-1.9,21.5-2.9,36.6-2.9c0.7,1.8,1,5,1,9.6s-1.9,14.5-5.7,29.6s-5.7,24.5-5.7,28.2s1.4,5.5,4.1,5.5c3.9,0,8.5-1.4,13.7-4.3
			c0.5-3.3,1.9-9.5,4.1-18.8c4.9-21.8,7.4-37.4,7.4-46.8c4.8-1.9,13.3-2.9,25.7-2.9h3.9c0,6.4-1.9,18.9-5.7,37.5s-5.7,29.5-5.7,32.7
			s0.7,4.8,2,4.8c0.8,0,4.7-1.6,11.6-4.9l3.9,6.5c-12.1,10.1-22.7,15.1-31.9,15.1c-4.4,0-8.1-1.2-11.1-3.7c-3.1-2.5-4.8-5.7-5.2-9.6
			c-11,9-21,13.5-30,13.5c-4.8,0-8.7-1.6-11.7-4.7C526.9,553.5,525.4,549,525.4,543.2z"/>
		<path class="st0" d="M623.6,559.3h-3.9c0-6.4,1.9-18.7,5.8-36.8c3.9-18.1,5.8-28.4,5.8-30.9c0-4.5-1.9-9.3-5.7-14.3l-1.8-2.5
			l0.2-2.7c7.4-2,19.1-3.1,35.3-3.1c1.9,2.6,2.9,6.8,2.9,12.7c12.3-9.1,22-13.7,29.2-13.7c9.1,0,14.5,4.7,16.1,14.1
			c3.7-3,8.5-6.1,14.4-9.3c5.9-3.2,11.2-4.8,15.9-4.8s8.6,1.5,11.7,4.6c3.1,3.1,4.7,7.3,4.7,12.8s-1.5,14.4-4.5,27
			c-3,12.5-4.5,20.9-4.5,25.2s0.6,6.4,1.8,6.4c0.8,0,3.6-1.3,8.4-3.9l2.2-1.2l3.7,7.2c-3.5,3.5-8.3,6.9-14.4,10.1
			c-6.1,3.2-11.4,4.8-16,4.8c-10.2,0-15.3-5.8-15.3-17.4c0-4.2,1.5-12.7,4.4-25.4s4.4-21,4.4-24.9s-1.2-5.8-3.5-5.8
			c-3.9,0-8.4,1.5-13.5,4.5c-0.3,2.7-2.1,12-5.6,27.8s-5.2,28.1-5.2,36.8c-3.9,1.8-13.2,2.7-27.8,2.7c-0.3-1.5-0.4-5.1-0.4-10.8
			s1.6-15.5,4.8-29.2c3.2-13.8,4.8-22.5,4.8-26.1c0-3.7-1.3-5.5-3.9-5.5c-4.1,0-8.6,1.6-13.5,4.9c-0.3,1.2-1.6,7.2-4.1,18
			c-4.9,21.5-7.4,36.8-7.4,46C644.6,558.3,636,559.3,623.6,559.3z"/>
		<path class="st0" d="M759.7,523.3c0-17,5.1-30.5,15.4-40.4c10.3-9.9,22-14.8,35-14.8c8,0,14.6,2,19.8,5.9
			c5.2,3.9,7.8,9.2,7.8,15.8s-1.7,12.2-5,16.7s-7.4,8-12.2,10.4c-9.7,4.8-18.5,7.8-26.6,9l-4.9,0.6c1,12.8,6.2,19.2,15.7,19.2
			c3.3,0,6.7-0.8,10.4-2.5c3.7-1.6,6.5-3.3,8.6-4.9l3.1-2.5l4.9,6.5c-1.1,1.5-3.3,3.5-6.5,5.9c-3.3,2.4-6.3,4.5-9.2,6.1
			c-7.9,4.4-16.5,6.5-25.9,6.5s-16.8-3.3-22.3-10C762.4,544.4,759.7,535.2,759.7,523.3z M805.5,507.8c4.1-4.6,6.1-10.6,6.1-18
			s-2.2-11-6.5-11c-5.2,0-9.2,4.4-12,13.2c-2.8,8.8-4.2,17-4.2,24.6C795.9,515.3,801.4,512.4,805.5,507.8z"/>
		<path class="st0" d="M896.6,531.9c0,8.6-3.8,15.6-11.3,21c-7.6,5.5-16.2,8.2-25.8,8.2c-9.7,0-17.3-2-23-6.1s-8.5-7.7-8.5-10.8
			c0-1.9,2.4-5,7.2-9.3c4.8-4.3,8.8-6.9,12.1-7.9c6.8,5,12.4,13,16.8,23.9c5-0.4,7.6-2.8,7.6-7.1c0-6.3-5.5-15.1-16.5-26.7
			c-11-11.5-16.6-20.7-16.6-27.5s3.1-12.1,9.2-15.8c6.1-3.7,13.5-5.6,22.2-5.6c8.6,0,15.1,1.5,19.5,4.6s6.5,7.2,6.5,12.5
			c0,5.2-4.2,12.5-12.5,21.8c1,1,2.2,2.2,3.7,3.8s3.5,4.5,5.9,8.9C895.4,524,896.6,528.1,896.6,531.9z M885.6,485.3
			c0-4.8-3.3-7.2-9.8-7.2c-3.1,0-5.7,0.6-7.8,1.9c-2,1.3-3.1,2.8-3.1,4.4c0,3,3,7.2,9,12.7l3.1,2.7
			C882.7,494.9,885.6,490.1,885.6,485.3z"/>
	</g>
	<g>
		<path class="st1" d="M912.4,335.6c-12.1-6.9-30.2,1.9-27.5,17.3c2.3,12.9,19.9,11.1,25.1,1.5c0.8-1.6-1.2-3.3-2.5-2
			c-2.9,3-8.4,6.3-12.8,4.3c-9-4.1-2.5-15.6,4-17.7c15.2-5,22.3,14.6,14.4,25.2c-13.9,18.5-45.3,13.8-64.5,10.8
			c-14.7-2.3-29.4-4.9-44.1-7.5c27.6-3.3,57.5-23.5,59.3-51.9c0-0.5-0.2-0.9-0.5-1.1c-0.3-0.3-0.7-0.4-1.2-0.2
			c-14.9,5.4-27.7,13.8-40.1,23.6c-9.2,7.3-23.5,16.3-28.4,27.7c-23.8-4.2-47.7-8.3-71.8-11.3c-1.6-0.4-3.1-0.8-4.7-1.2
			c20.8-3.9,41.2-19.2,49-37.9c0.2-0.2,0.3-0.4,0.3-0.6c0.2-0.9,0.4-1.9,0.6-2.8c0.2-1.1-0.6-2-1.8-1.8c-25.9,5.5-46.7,24.3-65.3,42
			c-14.4-1.1-28.7-1.4-43.2-0.9c-6,0.2-12.1,0.5-18.2,0.9c9.3-3.3,18.1-7.9,26-14.1c4-3.1,7.8-6.7,10.9-10.8
			c4.9-6.5,5.2-12.4,7.3-20.1c0.3-1-0.6-1.9-1.6-1.6c-0.9,0.3-1.9,0.5-2.8,0.8c-0.1,0-0.1,0.1-0.2,0.1c-0.1,0-0.1,0-0.2,0
			c-19.6,8.7-45.1,25.7-52.7,46.9c-11.5,1.4-22.8,3.6-33.5,7.5c-13.9,5.1-28.2,15.4-20.7,31.7c0.4,0.8,1.7,0.2,1.4-0.6
			c-6.6-22.6,20-32,50.7-35.5c1.1,0.2,2.1,0.5,3.1,0.7c-0.2,12.9,5.3,26.2,15.2,34.3c13.5,11,28.6,11.9,45.3,11.5
			c0.1,0,0.3-0.1,0.4-0.1c0.2,0,0.4,0,0.6,0c1.1-0.1,1.7-1,1.5-2c-2.3-12.6-16.2-24.8-25.8-32c-7.3-5.5-16.9-11-26.6-13.6
			c25.2-1.6,50.3,0,60.2,0.8c1.5,0.1,3,0.3,4.5,0.4c0.7,13.5,14.6,24.7,25.3,31c12.2,7.2,32.2,14.5,46.6,11.5c0,0,0,0,0.1,0
			s0.2,0,0.3,0s0.2-0.1,0.3-0.1h0.1c0,0,0.1,0,0.1-0.1c0.1,0,0.1-0.1,0.2-0.1c0.3-0.1,0.5-0.3,0.8-0.4c0.8-0.4,1.1-1.6,0.6-2.3
			c-8.8-13.3-22.3-26.3-37.6-34.6c19.2,3,38.3,6.7,57.3,10.3c4.9,10.5,12.8,19.1,22.5,25.6c13.9,9.3,27.8,11.4,43.7,15
			c0.8,0.2,1.5-0.2,1.8-0.7c0.2-0.2,0.3-0.5,0.3-0.9s0-0.7-0.2-1c-3.3-12-14.2-20.3-24.7-26.1c-3.6-2-7.7-4.2-11.9-6.2
			c11,1.9,22,3.5,33.1,4.9c18.1,2.2,41.3,1.8,55.2-12.2C925.3,360.1,925,342.8,912.4,335.6z M679.1,308.7c0.4,0-0.2,4.2-0.2,4.4
			c-0.7,4.8-2.8,8.6-5.7,12.4c-4.3,5.8-10.1,10.5-16.2,14.5c-6.6,4.3-13.6,7.1-20.7,9.7c0.6-0.3,1.1-0.6,1.7-1
			c4.1-2.6,7.9-5.4,11.8-8.2c6.1-4.5,13.5-9.2,17.2-15.9c0.3-0.6-0.3-1.3-0.9-0.9c-8.1,5.2-15,12.8-22.8,18.5
			c-4.4,3.2-11.1,6.2-14.9,10.6c-0.2,0.1-0.4,0.2-0.6,0.2c0-0.1,0-0.2,0-0.3c0-0.1-0.1-0.2-0.2-0.3
			C637.5,332.8,659.4,317.4,679.1,308.7z M676.3,385c1.3,1.5,9.2,14,10.5,14.6c-14.1,1-27.6,0.1-39.7-8.1
			c-12.5-8.4-16.1-20.5-18.6-34c0.5,0.1,0.9,0.2,1.4,0.3c3.8,6.6,7.6,12.5,13.6,17.3c6.5,5.2,13.8,11.5,22,13.5
			c0.6,0.2,1.2-0.6,0.7-1.1c-5.6-5.2-12.5-9.3-18.7-13.8c-6.1-4.4-10.4-9.7-15.1-15.3c9.8,2.6,18.9,6.2,27.6,12.2
			C665.9,374.8,671.6,379.4,676.3,385z M743.9,321.3c1.2-0.6,19.8-7.9,19.7-7.5v0.1c-5.5,13.6-17.6,23.3-30.2,30.1
			c-7.8,4.2-15.3,5.5-23.3,6.7c6.3-3.7,12.5-7.6,18.7-11.4c7.1-4.4,15.3-8.6,21-14.9c0.6-0.6-0.1-1.6-0.9-1.2
			c-8.4,4.1-16.1,10.5-24,15.5c-6.3,4-12.7,7.9-18.5,12.5c-1.1,0.2-2.2,0.3-3.4,0.5c8.6-6.7,16.1-14.7,25.4-20.8
			C733.4,327.5,738.6,324.2,743.9,321.3z M742,368.1c2,1.2,30.3,25.7,30.7,27.5c-12.7,2.6-31.6-4.5-42.4-10.3
			c-11.3-6.1-23.7-15.8-27-28.8c1.5,0.1,3,0.3,4.5,0.4c2.9,4.9,8.3,8.3,12.7,11.7c7.1,5.4,14.9,13.6,23.6,15.9
			c0.8,0.2,1.6-0.7,1.1-1.4c-4.7-6.3-12.8-10.4-19.2-14.9c-5-3.5-10-6.9-14.6-10.8c2.2,0.3,4.5,0.5,6.7,0.8
			C726.4,360.6,734.3,363.1,742,368.1z M825,338.6c11.2-8.6,22.7-15.9,35.9-20.9c-4.3,28.9-32,41.3-58.2,46.4
			c14.5-6.3,30.1-16.5,39-28.5c0.3-0.5-0.3-1.1-0.8-0.8c-7.6,5.2-14.2,11.6-21.8,16.9c-7,4.9-14.5,9-21.8,13.4
			c-0.7,0.1-1.3,0.2-2,0.3C802.4,354.5,814.9,346.3,825,338.6z M859.9,408.1c-12.7-2.6-24.2-4.7-35.8-11.4
			c-10.8-6.2-19.4-14.6-26-24.8c0.3,0,0.5,0.1,0.8,0.1c1.6,0.4,3.2,0.8,4.9,1.2c5,4.5,10.3,7.5,16.3,11.4
			c7.1,4.6,14.3,10.3,22.5,12.5c0.6,0.2,1.1-0.6,0.6-1.1c-5.7-5.6-13.7-9-20.4-13.3c-3.9-2.5-8-4.4-11.9-6.7
			c-0.7-0.4-1.4-0.9-2.1-1.4C828.5,380,853.1,389.8,859.9,408.1z"/>
		<path class="st1" d="M12,369.2c13.1,13.2,35,13.6,52.1,11.5c10.4-1.3,20.8-2.9,31.2-4.6c-4,1.9-7.9,4-11.3,5.8
			c-9.9,5.5-20.2,13.2-23.3,24.6c-0.2,0.3-0.2,0.6-0.2,1c0,0.3,0.1,0.6,0.3,0.8c0.3,0.5,1,0.9,1.7,0.7c15-3.5,28-5.4,41.2-14.2
			c9.2-6.1,16.6-14.2,21.3-24.1c18-3.4,36-6.9,54.1-9.8c-14.5,7.9-27.2,20.1-35.5,32.6c-0.5,0.7-0.1,1.8,0.6,2.2
			c0.2,0.1,0.5,0.3,0.7,0.4c0,0,0.1,0.1,0.2,0.1h0.1h0.1c0.1,0,0.2,0.1,0.3,0.1c0.1,0,0.2,0,0.2,0s0,0,0.1,0
			c13.6,2.9,32.5-4,44-10.8c10.1-6,23.2-16.5,23.9-29.2c1.4-0.1,2.8-0.3,4.2-0.4c9.3-0.8,33-2.3,56.8-0.8
			c-9.2,2.5-18.3,7.7-25.1,12.9c-9,6.8-22.1,18.3-24.3,30.2c-0.2,1,0.4,1.8,1.4,1.9c0.2,0,0.4,0,0.6,0c0.1,0,0.2,0.1,0.4,0.1
			c15.8,0.4,29.9-0.5,42.7-10.9c9.4-7.7,14.6-20.2,14.4-32.4c1-0.2,2-0.4,3-0.7c29,3.3,54,12.2,47.8,33.5c-0.2,0.8,1,1.3,1.4,0.6
			c7.1-15.4-6.4-25.1-19.5-29.9c-10.1-3.7-20.8-5.8-31.6-7.1c-7.2-20.1-31.3-36.1-49.7-44.3c-0.1,0-0.1,0-0.2,0s-0.1-0.1-0.1-0.1
			c-0.9-0.2-1.8-0.5-2.7-0.7c-0.9-0.3-1.8,0.6-1.5,1.5c2,7.3,2.2,12.8,6.9,18.9c2.9,3.8,6.5,7.2,10.2,10.1
			c7.5,5.9,15.8,10.2,24.6,13.3c-5.8-0.4-11.5-0.7-17.2-0.8c-13.7-0.5-27.2-0.1-40.7,0.9c-17.6-16.7-37.1-34.4-61.6-39.6
			c-1-0.2-1.9,0.6-1.7,1.7c0.2,0.9,0.3,1.8,0.5,2.6c0.1,0.3,0.2,0.5,0.3,0.6c7.3,17.6,26.6,32.1,46.2,35.7c-1.5,0.3-3,0.7-4.5,1.1
			c-22.7,2.8-45.2,6.7-67.7,10.6c-4.7-10.8-18.1-19.2-26.8-26.1c-11.7-9.3-23.8-17.2-37.8-22.3c-0.5-0.2-0.8,0-1.1,0.2
			c-0.3,0.2-0.5,0.5-0.5,1c1.7,26.8,29.9,45.9,56,48.9c-13.8,2.4-27.7,4.9-41.6,7c-18.1,2.8-47.8,7.3-60.9-10.2
			c-7.5-10-0.7-28.5,13.6-23.8c6.1,2,12.2,12.8,3.7,16.7c-4.1,1.9-9.3-1.2-12-4c-1.2-1.3-3.2,0.4-2.4,1.8c4.9,9,21.5,10.7,23.7-1.4
			c2.6-14.5-14.5-22.8-25.9-16.3C3.1,343.7,2.8,360,12,369.2z M283.8,352.8c-0.1,0.1-0.1,0.1-0.2,0.3c0,0.1,0,0.2,0,0.2
			c-0.2-0.1-0.4-0.1-0.6-0.2c-3.6-4.1-9.9-6.9-14.1-10c-7.4-5.4-13.9-12.6-21.5-17.5c-0.6-0.4-1.2,0.3-0.9,0.9
			c3.5,6.3,10.5,10.8,16.2,15c3.6,2.7,7.3,5.4,11.1,7.8c0.5,0.3,1,0.6,1.6,0.9c-6.7-2.5-13.3-5.1-19.5-9.2
			c-5.7-3.7-11.2-8.1-15.2-13.6c-2.7-3.6-4.7-7.2-5.3-11.7c0-0.1-0.6-4.1-0.2-4.1C253.6,319.8,274.2,334.2,283.8,352.8z M253.1,370
			c8.2-5.7,16.8-9,26-11.5c-4.4,5.3-8.4,10.3-14.2,14.4c-5.9,4.2-12.3,8.1-17.6,13c-0.5,0.4,0,1.2,0.6,1.1
			c7.7-1.9,14.6-7.9,20.8-12.8c5.7-4.5,9.2-10.1,12.8-16.3c0.4-0.1,0.9-0.2,1.3-0.3c-2.4,12.8-5.7,24.2-17.5,32.1
			c-11.4,7.6-24.2,8.5-37.5,7.6c1.2-0.6,8.6-12.3,9.9-13.8C242.1,378.2,247.5,373.9,253.1,370z M188.6,332.5
			c8.8,5.8,15.8,13.3,24,19.7c-1.1-0.2-2.1-0.3-3.2-0.4c-5.5-4.4-11.5-8-17.4-11.8c-7.5-4.7-14.8-10.8-22.7-14.7
			c-0.7-0.4-1.4,0.5-0.9,1.1c5.3,5.9,13,9.9,19.8,14c5.9,3.6,11.7,7.3,17.6,10.8c-7.6-1.1-14.7-2.3-22-6.3
			c-11.9-6.4-23.3-15.6-28.5-28.4v-0.1c-0.1-0.4,17.5,6.5,18.6,7.1C179,326.2,183.8,329.3,188.6,332.5z M198.1,358.2
			c2.1-0.3,4.2-0.5,6.3-0.7c-4.4,3.7-9.1,6.9-13.8,10.2c-6,4.2-13.7,8.1-18.1,14c-0.5,0.7,0.3,1.5,1,1.4c8.3-2.1,15.6-9.9,22.3-15
			c4.2-3.2,9.3-6.4,12-11c1.4-0.2,2.8-0.3,4.2-0.4c-3.1,12.3-14.8,21.4-25.5,27.1c-10.1,5.4-28,12.1-39.9,9.7
			c0.4-1.7,27.1-24.8,29-26C183,362.9,190.5,360.5,198.1,358.2z M125.5,365c-0.6-0.1-1.3-0.2-1.9-0.3c-6.9-4.1-14-8-20.6-12.6
			c-7.1-5-13.4-11-20.6-15.9c-0.4-0.3-1.1,0.3-0.8,0.8c8.4,11.4,23.1,21,36.8,26.9c-24.7-4.8-50.8-16.5-54.9-43.8
			c12.5,4.7,23.3,11.6,33.9,19.8C106.9,347,118.7,354.7,125.5,365z M112.7,373.7c-0.6,0.5-1.3,0.9-2,1.3c-3.7,2.2-7.6,4-11.2,6.4
			c-6.3,4-13.8,7.3-19.2,12.5c-0.4,0.4,0,1.1,0.6,1c7.8-2,14.6-7.5,21.2-11.8c5.6-3.6,10.7-6.5,15.4-10.7c1.6-0.4,3.1-0.8,4.6-1.1
			c0.2,0,0.5-0.1,0.7-0.1c-6.3,9.7-14.4,17.6-24.6,23.4c-11,6.3-21.9,8.2-33.8,10.7C70.9,388,94.1,378.8,112.7,373.7z"/>
		<g>
			<g>
				<path class="st2" d="M349.5,353.1c2.9,4.6,5.7,9.1,8.6,13.7c5.5,8.7,8.9,15.8,13.8,24.6c-5.8-18.1-9.3-34.7-15.2-52.7
					c-6.4-19.7-11.7-39.4-15.9-59.7c-4.2-19.8-2.8-59.5-32.2-53.6c-2.5,1.6-5.9,3.2-6.5,3.8c-4.6,3.9-6.5,7.7-7,12.8
					c0-0.3,0.5,1.7-0.1,1.6c0,1.2,0,2.5,0.2,3.8c0.6,6.9,1.8,14.3,5.9,19.8c0.5,0.6,0.1,0.4,0.4,1.2c-0.5-1.3,1.2,2.6,1.8,3.9
					c1.4,2.8,2.8,5.6,4.2,8.4c1.5-0.1,4.1,1.8,1,1.7c2,4,4.2,7.9,6.3,11.9c2.9,0.3,3.9,2.1,1,1.8c2.3,4.1,3.2,9.1,6.8,12
					c2.7,2.2,5.4,9.4,7.5,13.3c0.6,1.2,1.4,2.4,2,3.5c1.2-0.1,1.9,1.6,1,1.7c1.6,2.7,3.2,5.5,4.8,8.1c0.1,0,0.1,0,0.2,0
					c1.5,0.2,3.4,2.1,0.8,1.6c3.1,5.1,6.2,10.3,9.4,15.4C349.1,351.6,351.9,352.7,349.5,353.1z"/>
			</g>
			<path class="st2" d="M330.3,178.9c1-1.4,6-6.9,5.2-8.1c-1.6-2.7-5.5,0.3-7.8,2.5c-0.1,3.8-1.1,7.8-2.4,11.6
				C327,182.9,328.7,180.9,330.3,178.9z"/>
			<path class="st2" d="M321.9,159.6c-2.8,3-0.8,12.7,0.8,19.6c0.9-2.9,1.7-5.7,2.7-8.5c0.1-1.8,0.1-3.6,0-5.4
				C325.3,162.3,325.5,155.8,321.9,159.6z"/>
			<path class="st2" d="M329.8,199.8c-0.7-0.8-8.8,1.6-11.7,2.4c-1.5,3.9-2.9,7.8-4.2,11.8C318.6,212,333.9,204.4,329.8,199.8z"/>
			<path class="st2" d="M310,206.6c0.4,2.5,0.9,4.8,1.5,7.2c1.4-4.8,3.2-9.7,5-14.4c-0.1-0.1-0.2-0.4-0.4-0.6
				c-5.7-5.8-7.9-5.3-6.8,1.4C309.5,202.5,309.6,204.6,310,206.6z"/>
			<path class="st2" d="M316.5,190.7c0.2,2.2,0.5,4.3,0.7,6.5c1.6-4.8,3-9.7,4.4-14.5C316.2,170.6,316.2,187.7,316.5,190.7z"/>
			<path class="st2" d="M318.6,199.7c3.7-2.5,7.7-4.8,11.2-7.6c1.6-1.2,3-2.5,4.4-4c2.4-4.6,1.6-5.7-2.5-3.3c-3,0.4-6.3,3.1-8.8,4.8
				c-0.6,1.3-1.1,2.8-1.7,4C320.3,195.6,319.5,197.6,318.6,199.7z"/>
			<path class="st2" d="M237.8,197.4c-4.6-1.1-6.4,4.6-3.8,8.8c2.2,0.6,5.3,0.9,7.5,1.7c2.3,0.9,5,1.7,7.2,2.7
				c-1.2-2.4-3.4-4.7-5.2-6.7C243.3,203.9,239.2,197.5,237.8,197.4z"/>
			<path class="st2" d="M251.1,219.2c-1.7,1.1-6,3.1-6.9,4.7c-0.8,1.5-0.5,5.7,2.2,6.3c1.9,0.4,7.1-4.4,8.8-5.7
				c1.3-1,3.5-3.5,5.3-4.8c-4.6-1.9-10.1-4.5-14.7-6.3c-4.7,0.7-12.2,2.9-14.5,5.7c-6,7.3,7.2,3.9,9.7,2.8c3-1.3,5-3.3,8.2-4.1
				C250.4,217.9,252.2,218.5,251.1,219.2z"/>
			<path class="st2" d="M263.8,230.4c2.8-1.6,5.3-3.5,8-5.3c-2.2-0.9-4.5-1.8-6.7-2.7c-0.9-0.4-1.8-0.7-2.7-1.1
				c-1.7,2.3-5.3,5.8-5.6,8C255.9,236,261.5,231.7,263.8,230.4z"/>
			<path class="st2" d="M263.5,208.7c-0.2-0.2-6.5-6.4-8-6.5c-4-0.2-4.2,6.2-3.8,10c0,0.1,0,0.1,0,0.2c1.1,0.5,3.3,2.1,4.4,2.6
				c4,1.8,9.1,3.6,13.1,5.3C268.2,216.7,265.9,211.5,263.5,208.7z"/>
			<path class="st2" d="M309.6,127.2c0.8-2.7,2.6-10.7-3.7-9.4c-1,0.2-3.7,4.5-4.5,5.4c-0.1,0.1-0.2,0.2-0.3,0.3
				c0.7,7.9,0.9,15.9,1.1,23.6C304.8,140.4,307.6,134,309.6,127.2z"/>
			<path class="st2" d="M304.9,103.9c0.7-2.6,4-13.2-3.3-8.5c-1.6,1.1-2.8,5.5-3.9,8.2c1.3,4.9,2.2,10.2,2.9,15.5
				C302,114,303.6,108.9,304.9,103.9z"/>
			<path class="st2" d="M308.5,165.5c-1.3,0-3.9,2.1-5.7,3.8c-0.1,7.4-0.3,14.9-0.7,22.3c3.4-5,7-9.9,9.3-15.7
				C312.7,172.6,314.8,165.6,308.5,165.5z"/>
			<path class="st2" d="M302.5,151c0.2,5.2,0.3,10.5,0.3,15.7c1.9-2.9,3.6-6.1,5-9.4c2.2-5.2,4.8-19.5-4.3-9.2
				c-0.3,0.3-0.8,0.5-1.1,0.5C302.5,149.4,302.5,150.2,302.5,151z"/>
			<path class="st2" d="M306.9,253.8c-1.2,0.2-2.2,0.7-3.4,1c-1.4,0.4-2.9,0.6-4.4,0.7c-0.7,0-0.6,1.2,0.1,1.2
				c2.6-0.1,5.9-0.4,7.9-2.3C307.4,254.2,307.2,253.8,306.9,253.8z"/>
			<path class="st2" d="M227.7,222.3c0.3,6.5,8.7,3.5,15.5,0.5c-1.8,1.9-3.1,4.2-2.5,6.3c0.8,2.9,3.7,3,6.1,2.5
				c2.7-0.6,6.2-2.6,9.2-5c-1.7,2.8-2.5,4.9-2.1,8.1c0.1,0.6,0.6,1,1.2,0.9c6.6-0.4,13.7-5.3,19-9.7c7.4,2.9,15,5.3,23,4.9
				c-0.6,0.7-1.2,1.5-1.8,2.5c-2.9,5-2.8,10.8-2,16.4c2.6,18,13.6,35,22.1,50.7c9.3,17.2,19.3,34,29.6,50.6c5.6,8.9,11,17.6,15.7,27
				c2.8,5.6,5.6,11.7,10.7,15.5c1.2,0.9,2.5-0.4,2.1-1.6c0.5-0.4,0.9-1,0.6-1.8c-7.3-22.8-12.2-46.2-19.8-69
				c-6.3-18.9-10.6-38.9-13.7-58.6c-2.4-15.6-8-43.9-28.2-38.7c0-0.1,0-0.1-0.1-0.2c-0.1-0.1-0.2-0.2-0.3-0.4
				c-0.1-0.1-0.2-0.1-0.2-0.2c0.6-2.8,1.3-5.5,2.1-8.2c5.2-0.7,20.7-7.7,18.5-14.8c-0.8-2.7-4.3-2.5-7.7-1.8
				c6.1-3.7,13.7-8.9,12.4-13.6c-0.8-3.1-4.1-2.6-7.4-1.2c4.6-4.9,9.4-11.1,8.1-15.8c-1.8-6.3-7.1-1.4-10.2,2.9
				c-0.1-0.6-0.2-1.2-0.3-1.8c0-0.1-0.1-0.2-0.2-0.3c0.5-5.3,0.3-11.4-2.8-12.4c-6.8-2.3-5.4,11.4-5.1,13.7c0.2,2.1,0.4,4.6,0.7,6.9
				c-1.3-0.8-2.6-0.8-3.8,0c-3.6,2.2-2.8,10.2-1.8,16.4c-1.8-1.7-4-2.1-5.9,1c-3.3,5.2-0.8,16.4,2.2,21.7c-0.6,2.6-0.9,5.2-1,7.9
				c-1.4,0.6-2.9,1.2-4.2,1.7l0,0c-0.6-7.9-1.8-15.6-3.6-23.2c0.2-3.4,0.3-6.8,0.5-10.2c5.5-4.7,16-18.5,12.4-25.6
				c-1.9-3.8-5.4-3.1-8.7-1.3c4.5-7.1,10-17.6,6.4-21.9c-1.9-2.3-4.1-1.8-6.1-0.3c4-8.7,10.3-23.3,5.1-27.8
				c-2.6-2.3-5.4-0.1-7.8,2.5c2.9-8.6,8.1-21.6,3.4-25.8c-4.7-4.2-8.2,3.3-9.7,8.8v-0.1c-0.2-0.6-1.1-0.5-1.1,0.1c-1.6,16,2,33,3,49
				c0.9,13.8-0.8,28.2,0.2,42.1c-2-7.1-4.2-14-6.6-21c-1.2-3.3-2.4-6.7-3.6-10c2.4-6.8,5-15.7,4-22.9c-0.8-5.4-3.2-5.2-5.4-2.5
				c-0.2-5.7,1.1-12.3-3.2-16.5c-2-1.9-3.5-1.1-4.5,0.5c-0.9-6.4-2.9-14.5-8.7-16c-0.6-0.1-1.1,0.4-1.2,0.9
				c-0.8,4.7-0.1,10,2.4,14.1c0.2,2.3,0.6,4.6,1,6.8c-3.7-3.6-10.2-6.9-12.2-0.9c-1.9,5.4,4,11.6,9.2,16.3c-2.8-0.8-5.3-0.6-5.7,2.9
				c-0.7,5.2,5.8,10.5,11.5,13.8c-2.2,0.1-4,0.8-3.9,3.8c0.3,6.5,10.9,10.5,17.2,11.6c6.1,17.4,11.5,34.8,14.8,53
				c0,0.1,0.1,0.2,0.2,0.3c-1.5,0.6-2.9,1.3-4.2,2.2c-1.2-8.6-8.1-16.2-12.2-23.6c-6.9-12.3-14.2-24.2-20.7-36.7
				c-3.6-7-7.3-13.8-11.1-20.7c1.4-5.1,1.8-11.1,1.9-16.1c0.1-4.3-0.1-10-4.5-12.2c-0.5-0.3-1.1,0-1.4,0.5c-0.2,0.5-0.5,0.9-0.7,1.3
				c0-3.2,0.4-6.4,0.5-9.7c0.1-2.2,0.5-5.5-1-7.3c-3.2-3.8-5.9,1-7.7,4.8c-0.3-2.7-0.7-5.3-1.2-7.9c-0.5-2.2-1.2-6.9-4.1-7.4
				c-3-0.5-4.3,3.7-4.4,6c-0.1,2.5,0.4,4.9,1.1,7.3c-1.8-2.9-3.6-5.8-5.7-8.6c-0.7-0.9-2.3-0.1-1.8,1c6.5,15.5,14.8,30.4,23,45.1
				c-7-5.1-20.2-10.7-22.8-3.3c-1.3,3.8,4.3,7.7,6.7,9.5c3.5,2.7,7.3,5,11,7.4c0.8,0.5,3.2,1.5,3.5,2.2c-0.3-1.1-7.9,0-10.5,0.4
				c-0.6,0.1-1.2,0.7-1.1,1.3c1.2,7.8,10.6,11.2,17,13.4c1.9,0.7,4.1,1.1,6,1.8c0.1,0,0.1,0,0.2,0.1c-0.3,0-0.7,0.1-1.1,0.2
				c-2.1,0.6-4.5,0.6-5.7,2.6c-0.2,0.3-0.1,0.8,0.1,1.1c3.9,6,15.4,7.5,22.2,9.1c1.8,3.1,3.7,6.2,5.5,9.3c5.7,9.5,13.9,19.6,17.6,30
				c0,0-0.1,0-0.1,0.1c-10-2.2-19.6-5.6-29.1-9.5c-1.2-6.8-6.6-14.2-12.2-17.5c-1.7-1-4-2.4-5.9-1c-2.8,2,0,5.8-1.2,7.9
				c-0.1-0.1-0.3-0.3-0.4-0.5c-1.1-1.2-2.1-2.5-3.2-3.7c-1.2-1.4-2.4-2.8-3.7-4.1c-1.7-1.7-5.6-6.6-8.6-6.2
				c-3.3,0.5-3.9,3.5-3.4,6.5c-5.6-4.9-14.4-10.2-19-6.6c-4.7,3.8,1.2,8.1,6.2,10.7c-0.2,0.5,0.1,1.1,0.7,1.3
				c8.4,1.8,16.2,4.3,23.9,7.1C236.2,214.5,227.5,216.7,227.7,222.3z M330.9,185.9c3.4-2,4.1-1.1,2.1,2.7c-1.1,1.2-2.3,2.3-3.6,3.3
				c-2.9,2.4-6.1,4.3-9.3,6.3c0.7-1.7,1.4-3.4,2.1-5.1c0.4-1.1,0.9-2.2,1.4-3.3C325.7,188.5,328.4,186.2,330.9,185.9z M328,173.7
				c2-1.9,5.5-4.6,6.9-2.2c0.7,1.1-3.7,6-4.6,7.2c-1.4,1.8-2.9,3.6-4.4,5.2C327,180.6,327.9,177.1,328,173.7z M322,160.2
				c3.2-3.5,3.1,2.6,3.2,5.4c0.1,1.7,0.1,3.3,0,5c-0.9,2.6-1.8,5.2-2.5,7.9C321.4,172,319.5,163,322,160.2z M321.3,183.5
				c-1.2,4.1-2.4,8.3-3.8,12.4c-0.2-1.9-0.5-3.7-0.6-5.6C316.6,187.7,316.6,173.1,321.3,183.5z M318.4,202.6
				c2.6-0.6,10.1-2.9,10.8-2.2c3.8,4.2-10.3,11.2-14.6,13C315.7,209.8,317,206.2,318.4,202.6z M315.7,199.8c0.1,0.2,0.2,0.3,0.3,0.5
				c-1.5,4-3.1,8.1-4.2,12.2c-0.5-2-1-4-1.3-6.1c-0.3-1.8-0.4-3.6-0.5-5.4C309,195.3,310.9,194.9,315.7,199.8z M301.7,97.1
				c6.2-4,3.4,4.9,2.8,7.2c-1.1,4.3-2.5,8.6-3.6,13c-0.6-4.5-1.4-8.9-2.5-13.2C299.3,101.8,300.3,98,301.7,97.1z M301.6,124.4
				c0.1-0.1,0.2-0.1,0.3-0.3c0.6-0.8,3.1-4.6,4-4.8c5.6-1.2,4,6,3.3,8.4c-1.8,6-4.3,11.9-6.5,17.8
				C302.4,138.6,302.2,131.5,301.6,124.4z M302.9,151.5c0-0.7-0.1-1.4-0.1-2.1c0.3,0,0.7-0.1,1-0.4c8-9.1,5.7,3.5,3.8,8.1
				c-1.2,2.9-2.7,5.7-4.4,8.3C303.3,160.8,303.2,156.1,302.9,151.5z M303.2,170.1c1.7-1.5,4-3.4,5.2-3.4c5.6,0.1,3.8,6.5,2.6,9.4
				c-2.1,5.1-5.2,9.7-8.4,14.2C303,183.5,303.2,176.8,303.2,170.1z M278.6,165.5c-4.4-7.4,1.2-5.5,4.2-5.4c1.2,0,1.5-1.9,0.4-2.3
				c-4.1-1.5-7.9-4.1-11.1-7.1c-0.9-0.9-5.7-6.6-3.7-8.1c0.7-0.5,6.4,2.3,7.6,2.9c1.4,0.6,2.2-1.1,1.3-2.1c-3-3.1-6.4-5.9-9.1-9.2
				c-1-1.3-4.5-4.9-4.2-6.2c0.7-3.6,7.3-1.5,10.1-0.2c3.1,13.8,9.3,27.4,13.9,40.3c0.3,0.9,0.6,1.7,0.9,2.6
				C285.1,169.8,280.1,168,278.6,165.5z M283.1,143.5c-3-8.6-4.6-18-9-26c-1.6-3.7-2.4-7.6-2-11.6c5,2.7,6,14,6.5,18.6l0,0
				c0,0.1,0,0.2,0.1,0.3c0,0.1,0.1,0.1,0.1,0.2l0.1,0.1c0.1,0.1,0.1,0.1,0.2,0.2h0.1c0.1,0,0.1,0.1,0.2,0.1c0.5,0.1,1.1-0.1,1.2-0.7
				l0,0c0-0.1,0-0.1,0.1-0.2c0.2-1.2,0.4-5.2,2.4-4.2c1.2,0.6,1.9,3.2,2.2,4.4c1.3,4.6-0.2,9.5,0.7,14.2c0.2,1,1.6,1.4,2.1,0.3
				c0-0.1,0.1-0.1,0.1-0.2c0.3-0.7,1.4-3.5,2.3-2.8c0.5,0.4,0.5,2.6,0.6,3.2c0.2,2.9-0.3,5.8-0.9,8.6c-0.6,3.1-1.7,6.2-2.2,9.4
				C286.4,152.7,284.7,148.1,283.1,143.5z M248.1,131.7c-3.5-6.7-6.8-13.6-10.5-20.3c-0.5-2.3-1-4.6-1.4-6.9
				c-0.3-1.6-0.9-11.8,2.4-8.5c1.8,1.9,1.9,6.4,2.3,8.8s0.6,4.9,0.9,7.4c0,0.3,0.1,0.6,0.4,0.8c0.1,0,0.1,0.1,0.2,0.1h0.1
				c0.1,0,0.2,0.1,0.3,0.1c0,0,0,0,0.1,0s0.2,0,0.3,0c0,0,0,0,0.1,0c0.3-0.1,0.6-0.3,0.7-0.7c1-1.9,1.4-4.3,2.7-6
				c3.4-4.6,3.5,1.9,3.4,4c-0.2,4.9-1,9.7-0.2,14.6l0,0c0,0.5,0.5,0.9,1,0.9c0.5,0.1,1.1-0.2,1.2-0.8l0,0c1.8-7.5,3.8-1.2,4.1,1.9
				c0.3,3.2,0,6.4-0.4,9.6c-0.3,2.1-0.8,4.4-1.2,6.7C252.3,139.5,250.2,135.6,248.1,131.7z M260.1,183c-6.7-3.9-0.1-3.6,4-5.4
				c1-0.5,0.8-1.9-0.2-2.1c-4.7-1.1-9.3-2.5-13.7-4.5c-2-0.9-6.4-2.5-7.3-4.2c-3.5-5.9,4.7-5.2,8-5.7c1-0.1,1.5-1.5,0.6-2.1
				c-5.4-4-11.4-7-16.6-11.3c-0.9-0.8-4.4-3.3-4.4-4.2c0.2-3.7,7.4-2.6,9.2-2.2c4.4,1.1,10,4.1,12.6,7.8c0.3,0.4,0.7,0.5,1,0.5
				c3.6,6.5,7.3,13,10.7,19.6c3.4,6.4,6.9,12.7,10.6,18.9C269.7,186.5,264.4,185.6,260.1,183z M303.1,230.6c0.6-0.5,3.8-2,6.1-3.5
				c27.4-5.6,26.2,31.5,30,50c4,18.9,8.8,37.3,14.8,55.7c5.5,16.8,9.4,34.3,14.8,51.1c-4.6-8.3-8.4-16.9-13.5-24.9
				c-2.7-4.3-5.3-8.5-8-12.8c2.3-0.4,4.7-1.3,5.5-3.3c0.2-0.5-0.3-0.9-0.8-0.6c-1.1,0.7-2.1,1.5-3.4,2c-0.7,0.3-1.5,0.4-2.3,0.6
				c-3-4.8-5.9-9.6-8.8-14.4c2.5,0.5,5.8,0.6,7.5-1.3c0.3-0.4,0-0.9-0.5-0.9c-1.2,0-2.4,0.5-3.6,0.7c-1.4,0.2-2.7,0.2-4.1,0
				c-0.1,0-0.2,0-0.2,0c-1.5-2.5-3-5.1-4.5-7.6c0.9-0.1,1.8-0.1,2.7-0.2c1.3-0.1,2.5-0.1,3.6-0.8c0.4-0.2,0.3-0.9-0.1-1
				c-1.2-0.5-2.4-0.2-3.7,0c-1.1,0.1-2.3,0.3-3.4,0.4c-0.6-1.1-1.3-2.2-1.9-3.3c-2-3.5-4.1-7.1-6.1-10.7c3.3,0.4,7-0.5,8.9-3.1
				c0.2-0.3,0-0.8-0.4-0.7c-3.2,0.7-6.2,2.5-9.4,2.1c-2.1-3.7-4.2-7.5-6.3-11.2c2.7,0.3,5.6-0.5,7-2.9c0.2-0.4-0.2-0.7-0.6-0.6
				c-2.6,0.8-4.6,2.2-7.3,1.8c-2-3.7-4-7.3-5.9-11.1c2.8,0,6-0.7,7.9-2.2c0.4-0.4,0.3-1-0.3-1.1c-1.5-0.4-2.9,0.2-4.4,0.7
				c-1.4,0.5-2.7,0.8-4.1,1c-1.3-2.6-2.7-5.2-3.9-7.8c-0.6-1.2-1.1-2.4-1.7-3.6c3.4-0.3,7.3-0.9,9.5-3.5c0.3-0.4-0.1-0.9-0.5-0.7
				c-1.6,0.5-3.1,1.4-4.7,2c-1.5,0.6-3.1,0.9-4.7,1.1c-2.6-5.9-4.9-12.1-5.5-18.5c-0.1-1.2-0.2-2.4-0.2-3.5c4.2,0.5,10,0.3,11.6-3.8
				c0.2-0.6-0.4-1-0.8-0.7c-3.5,2-6.9,3-10.7,3C296.9,237.8,298.8,234.2,303.1,230.6z M221.1,204.3c-0.3-0.2-0.8-0.4-1.5-0.8
				c-3.4-2-6.5-6.2-0.5-6c3.7,0.1,8.4,3.5,11.6,6.8C227.4,203.8,224.2,203.7,221.1,204.3z M271.8,225.1c-2.7,1.7-5.2,3.7-8,5.3
				c-2.2,1.3-7.9,5.6-7-1.1c0.3-2.2,3.9-5.7,5.6-8c0.9,0.4,1.8,0.7,2.7,1.1C267.3,223.3,269.5,224.2,271.8,225.1z M252.8,212.2
				c-0.3-3.8-0.2-8.2,3.8-8c1.5,0.1,5.8,5.3,6,5.5c2.3,2.8,4.6,6,5.7,9.5c-4.1-1.7-8.1-3.5-12.1-5.3
				C255.1,213.4,254,212.9,252.8,212.2C252.7,212.3,252.8,212.2,252.8,212.2z M259.4,220.1c-1.8,1.3-3.6,3.4-4.9,4.4
				c-1.6,1.3-5.9,5.4-7.8,5c-2.8-0.6-2.2-4.2-1.4-5.6c0.9-1.6,4.1-3.5,5.8-4.6c1.1-0.7,0-2-1-1.8c-3.2,0.8-6.1,2.4-9.1,3.7
				c-2.5,1.1-14.8,5.3-8.7-2c2.4-2.8,8.7-3.6,13.4-4.3C250.3,216.5,254.8,218.3,259.4,220.1z M235,205.2c-1.9-3.4-2-7.1,1.8-6.8
				c1.4,0.1,6.3,5.9,6.4,6c1.8,1.9,3.6,4,5.3,6c-2.4-1.1-4.8-2.2-7.4-3.1C239.1,206.5,237.1,205.8,235,205.2z"/>
			<path class="st2" d="M219.1,196.5c-7.3-0.7-4,7.4,0.5,8c0.7,0.4,2.2,0.7,2.5,0.8c3.1-0.6,6.4-0.5,9.6,0
				C229.3,201.1,222.8,196.6,219.1,196.5z"/>
			<polygon class="st2" points="275.4,188.7 262,185.4 256,180.8 256.7,179 262.2,176.9 262.1,175.9 251.4,172.5 241.1,167.1 
				240.4,161.5 250.4,159.8 231.2,146.3 229.3,140.8 234.3,138.8 247.6,143.4 253.6,147.1 256.9,152.4 276.9,187.4 			"/>
			<polygon class="st2" points="254.6,145.1 235.7,110.5 235.7,101.3 236,95.8 238.2,95 240,96.3 241.8,101.6 243.2,109.9 
				245.8,106.9 247.4,104.4 250.5,104.5 251.8,108.8 251.2,117.5 251.2,121.9 251.5,123.3 253.2,120.9 254.6,120.9 256.3,123.7 
				257.2,134.1 257.2,140.8 			"/>
			<path class="st2" d="M289.9,171.5l-11.2-3.7l-3.3-6.1l1.6-3.7l0.7-1.3l-7.7-5.3l-2.9-7.4l0.9-3.1l6.2,1.5c0,0-8.8-8.9-9-9.3
				c-0.2-0.4-2.8-7-2.8-7l3.5-1.8l9,2.8l16.3,43.6L289.9,171.5z"/>
			<polygon class="st2" points="287.8,158.9 278.3,130.3 272,113.7 270.8,105 273.1,105 278.1,113 279.3,122.6 282.3,119.2 
				285.4,120.8 286.5,125.7 287,134.7 287.1,137.3 289.3,135.1 291.1,135.2 292.4,138.6 292.2,145.1 291.1,150.7 289.6,156.8 			"/>
		</g>
		<g>
			<path class="st3" d="M381.2,130.6c0.4,0,15.4,8.6,14,7.2c6.8,6.7,13.1,14,19.8,20.8c1.5,1.5,4,3.1,5.5,4.7c0.2-1,0.4-3,0.4-4.1
				c-0.1-2.5-0.8-5-1.4-7.4c-0.9-3.5-2.3-7.1-2.3-10.7c-6.4-6.2-15.7-10.1-19.3-18.9c-1.7-4.2-1.7-10-2.8-14.7
				c-0.6,0.2-1.3,0.2-1.8-0.4c-3.8-4.9-12.6-1.9-17.9-2c-6.4-0.1-13.4-2.4-19.8-2.6c4.5,15.9,19.2,27.9,22.7,44
				c2.6,11.6,4.5,22.5,18.4,25.6c8.4,1.9,16.7-3.9,24.7-4.4l-1.1-0.1c-0.5,0.1,0.1-0.3,0.1-0.8c0,0,0,0,0-0.1c-3-3.2-7.1-6.2-10.1-9
				c-9.2-8.6-17.5-19.6-28.6-25.6C381.1,131.7,380.4,130.5,381.2,130.6z"/>
			<path class="st3" d="M434.9,139.5c2.8-5.4-0.2-11.3,0.8-16.9c0.6-3.6,1.5-3.4,2.7-6.8c2.5-6.9,2.8-11.4,1.6-18.7
				c-1-6.2-2.7-12.2-3.6-18.3c-1-6.5-0.1-13.2-1.4-19.7c-1.1-5.3-3.6-10.3-5.6-15.2c-4.7-11.3-8.4-26.4-16.8-35.6
				c-5.1,12.2-12.3,27.1-14.5,39.9c-1.1,6.5,1.6,11,1.5,17.4c-0.1,5.1-2.3,10.2-3.9,15c-2.8,8.5-3.3,15.2-0.7,23.9
				c2.6,8.9,3,18.9,9.7,26c3.3,3.5,8.1,6.4,12,9.8c0.4-0.3,1-0.3,1.2,0.3c0.1,0.3,0.2,0.7,0.3,1.1c0.2,0.3,1.5,0.5,1.7,0.8
				c-0.8-3.3-1.4-7.5-1.9-10.9c-3.1-21.2-1.8-43.3-1.8-64.7c0-1.1,0.4-0.1,0.8,0.8c3.8,9.4,2.2,19.2,2.2,29.1
				c0,11.6-0.1,23.1,1.4,34.6c0.9,6.3,2.5,13.5,4.3,19.7C427.4,147.2,432.7,143.7,434.9,139.5z"/>
			<path class="st3" d="M420.6,145.3c-0.1-0.2-0.2-0.3-0.3-0.4c0.4,1.2,0.8,2.4,1.2,3.7C421.2,147.4,420.9,146.3,420.6,145.3z"/>
			<path class="st3" d="M483.2,39c-0.3-10-3.4-19.5-4.6-29.4c-10,9.9-20.6,20.5-24.3,34.4c-1.5,5.6-1.8,11.4-3.9,16.9
				c-3.1,7.9-7.9,13.5-10,21.4c2.1,11.6,5,21.1,1.9,32.3c2.4,1.9,3.2,6.4,4,9.1c1.4,4.4,3.2,8.3,6.3,11.2c2.2-13.7,1.2-28.3,2.8-42
				c1.3-11,2.7-22.1,4.2-33.1c0.2-1.4,2.1-0.9,2.3,0.3c1.4,13.3-2.3,26-3.2,39.1c-0.8,10.8-1.5,21.6-3.2,32.3
				c-0.1,0.4,0.9,1.7,0.8,2.1c6.7-2.9,11.5-7.2,15.2-14.1c2.5-4.6,5.2-9.1,7.7-13.6c7-12.6,6.8-22.1,4.2-35.9
				C481.3,59.9,483.5,49.4,483.2,39z"/>
			<path class="st3" d="M459.1,166.8c-0.1,0.1-0.2,2.2-0.4,2.3c2.6,5.6,7.7,12.8,16.4,10.8c4-1,7.1-5.5,9.4-8.5
				c3.9-5.1,8.5-9.5,12.5-14.5c8.9-11.3,9.1-28.2,14.1-41.3c-12.1,5.8-28.3,8.6-38.4,17.4c-8.6,7.4-8.9,20.8-13,30.4
				c2.7-2.7,7.5-5.4,10.4-7.9c7.3-6.2,12.3-14.2,19.5-20.3c0.6-0.5-0.2,0-0.5,0.9C483.3,150.7,470.1,156.2,459.1,166.8z"/>
			<path class="st3" d="M375.4,146.6c1.1,5.1,0.8,10.3,3.2,15.1c3,6.3,8.8,10.3,15.4,12.2c9.9,2.8,18.6-2.2,28.1-4.1
				c4.1,4.8,7.6,10,9.8,15.6c0.5,2.5,0.9,5.1,1.2,7.7c-0.8,0.1-1.5,0.3-2.3,0.5c-0.6,0.1-0.9,0.7-0.9,1.2c-7.9,1.5-18.8-0.1-25,0.9
				c-8.9,1.4-16.5,6.3-21.3,14.1c-5.9,9.7-7,22.6-4.2,34.2c-0.2,0.3-0.2,0.7,0.2,0.9l0,0c1.4,5.3,3.7,10.3,6.7,14.5
				c5.7,7.9,13.9,13.1,21.2,19.3c9.3,7.9,16.1,18,20.6,29.2c0,0.1,0,0.1,0.1,0.2c0.7,1.7,1.3,3.5,1.9,5.2c4.5,13.9,5.8,29,6.5,43.5
				c0.3,6.8-0.9,13.5-0.7,20.2c0.2,5.9,2.4,10.1,4.4,15.6c0.6,1.7,3.2,1.1,2.8-0.8c-0.1-0.5-0.2-0.9-0.4-1.3
				c2.5-10.4,5.5-20.7,6.6-31.3c1.4-13.3,0.7-26.6,0.6-39.9c-0.2-24.4,27-41,36.4-62.3c7.5-16.8,9.2-38.9-4.5-53.3
				c-5.4-5.6-12.4-7.4-19.9-8.5c-7.7-1.2-16.2-3.1-24.2-2.6c-0.5-7.1,12.6-16.6,19.5-22.3c3.4,13.3,17.3,16.4,26.9,5.4
				c6.6-7.7,15.2-15.9,19.6-25.1c5.7-11.9,5.8-25.6,12-37.4c0.9-1.7-1-3.8-2.7-2.7c-13.1,8-30.3,10.5-42,20.9c-10,9-10,23.6-15,35.4
				c-1.5,1.5-3.1,3.1-4.6,4.5c-3,2.9-9.8,8.2-13.1,13.7c5.9-16.2,13.4-31.1,17.1-48.2c10.2-2.9,15-7.3,20-16.6
				c5.1-9.5,12.2-18.8,13.8-29.8c0.7-4.9,0.1-9.7-0.8-14.5c-1.7-8.8-2.7-16.9-2.6-25.9c0.3-15.2-2.7-29.1-4-44.1
				c-0.1-1.5-1.9-2.4-3.1-1.3c-10.4,10.3-22.1,21.3-26.8,35.6c-2.9,8.7-2.6,17.2-6.9,25.5c-2.1,4.1-4.2,7.8-5.5,11.7
				c-0.7-6.4,0-12.8-1.5-19.1c-1.7-7.4-5.5-14.2-8.2-21.2c-4.2-10.9-7.2-22.5-16-30.7c-1-0.9-2.2-0.4-2.7,0.7
				c-3.1,7.9-6.3,15.7-9.5,23.6c-2.1,5.3-5.8,11.2-6.8,16.9c-1.1,6.3,2.7,11.7,2.6,18c-0.2,7.7-4.7,14.9-6,22.4
				c-0.8,4.8-0.6,9.4,0.8,14.1c0.1,0.3,0.2,0.7,0.3,1c-2.3-1.6-5.5-1.7-8.7-1.7c-4.4,0.1-8.2,0.8-12.6,0.3c-6-0.8-11.3-2.3-17.4-2.1
				c-1.4,0.1-2.2,1.2-1.9,2.5c1.8,10.3,7.5,18.6,13.8,26.9C370.1,134.6,373.9,139.5,375.4,146.6z M460.1,167.8
				c10.9-10.6,24.2-18.1,29.8-32.8c0.3-0.9-0.9-1.4-1.5-0.9c-7.1,6.2-12.2,14.1-19.5,20.3c-2.9,2.5-5.7,5.2-8.4,7.9
				c4.1-9.6,4.4-20.9,13-28.4c10.1-8.7,24.3-11.5,36.4-17.4c-4.9,13.1-5.1,28-14.1,39.3c-4,5-8.6,9.4-12.5,14.5
				c-2.3,3-5.4,7.5-9.4,8.5c-8.7,2.1-11.8-5.2-14.4-10.8C459.9,168,460,167.9,460.1,167.8z M422.9,164.9c1.5-3.2,0.9-8.1-0.4-12.9
				c2,6.6,4.1,13.2,6.1,19.8C426.8,169.4,424.9,167.1,422.9,164.9z M485.2,218.3c9.9,25.4-8.5,48.2-23.4,66.9
				c-10.7,13.5-15.6,23.7-14.5,40.9c0.7,12,0.4,24.8-1.2,36.8c-1.1,8.2-3.1,16.2-4.2,24.4c-1.3-4.5-2.3-8.6-2.1-14.1
				c0.3-7,1-13.6,0.6-20.6c0-0.4,0-0.7-0.1-1.1c1,0.2,2.1,0.4,3.1,0.5c0.3,0,0.5-0.4,0.3-0.6c-1-0.8-2.2-1.2-3.5-1.4
				c-0.3-4.6-0.7-9.2-1.2-13.8c1.5,0.4,3,0.5,4.1-0.2c0.3-0.2,0.4-0.8,0-1c-0.9-0.5-2-0.4-3.1-0.4c-0.4,0-0.8-0.1-1.3-0.2
				c-0.6-4.6-1.3-9.1-2.3-13.5l0,0c1.1,0.2,2.8,0.8,3.8,0.1c0.3-0.2,0.3-0.6,0.1-0.8c-0.7-0.8-2-0.7-3-0.8c-0.5-0.1-0.9-0.1-1.3-0.2
				c-0.8-3.3-1.8-6.6-2.9-9.7c1.9,0.2,3.8,0,5.4-0.7c0.3-0.1,0.3-0.6,0-0.8c-1.3-0.6-2.5-0.6-4-0.5c-0.7,0-1.4,0-2.1,0
				c-1.7-4.3-3.7-8.3-6-12.2c1.8,0.4,3.7,0.5,4.9-0.3c0.3-0.2,0.4-0.8,0-1c-1.2-0.7-2.7-0.4-4-0.5c-0.7-0.1-1.5-0.1-2.2-0.2
				c-1.9-3-4.1-5.9-6.4-8.7c2.9,0.5,6.2,0.2,8.5-0.8c0.4-0.2,0.4-0.6,0-0.8c-1.9-0.8-3.9-0.5-5.9-0.5c-1.7,0-3.2-0.1-4.8-0.4
				c-2.2-2.4-4.6-4.7-7.1-7c2.4,0.3,4.9,0.2,7.2-0.3c0.3-0.1,0.3-0.6,0-0.7c-3.6-0.7-7.3-1.3-10.9-2.1c-4.3-3.4-8.6-6.8-12.3-10.6
				c3.4,0.6,6.9,0.4,9.9-0.8c0.5-0.2,0.7-1.1,0-1.2c-2.6-0.4-5.1,0-7.7-0.1c-1.6,0-3.1-0.3-4.5-0.6c-2.2-2.7-4.1-5.7-5.5-9.2
				c-0.3-0.6-0.5-1.3-0.7-2c4.1,1.4,8.6,2,11.9-0.4c0.3-0.3,0.3-0.8-0.2-0.8c-4.3,0-8.4,0.1-12.4-1c-0.8-2.7-1.4-5.5-1.7-8.4
				c1.8,0.7,3.7,0.9,5.3,0.3c0.4-0.1,0.6-0.8,0.1-1c-1.2-0.5-2.6-0.5-3.9-0.7c-0.6-0.1-1.2-0.3-1.8-0.5c-0.3-3.6-0.2-7.3,0.4-10.8
				c2.2,1.4,5,2.3,7.4,1.1c0.3-0.2,0.2-0.6-0.1-0.7c-1.4-0.4-2.9-0.4-4.4-0.8c-0.9-0.2-1.8-0.6-2.6-1.1c0.6-2.9,1.5-5.7,2.8-8.3
				c0.5-1,1.1-2,1.7-2.9c3,2.2,6.9,3.6,10.4,2.2c0.4-0.2,0.5-0.9,0-1c-3.4-0.9-6.4-1.2-9.3-2.7c7.5-9.9,19.8-10.8,32.1-11.9
				c3.7-0.3,7.8-0.5,11.3-1.8C452.1,199.6,476.4,195.5,485.2,218.3z M436.2,191.3c0.1-0.2,0.1-0.4,0.2-0.6c0,0.4,0,0.9,0.1,1.3
				c-0.1,0-0.1,0-0.2,0.1l-0.1,0.1C436.3,191.9,436.2,191.6,436.2,191.3z M442.3,168.9c-2.5,5.8-5,11.6-6.6,17.7c-0.4-2-1.1-4-2-6
				c-1.5-9.1-4.4-18.1-7.1-27.1c0.1-0.1,0.2-0.2,0.3-0.3c3.6-4.8,10-8.4,12-14.4c0.5-1.4,0.7-3,0.7-4.5c0.3-7.7-1.7-7.3,1.5-16.4
				c0.5,1.2,1.1,2.3,1.5,3.5c0.7,2,1.3,4.1,2.1,6.1c1.6,3.7,3.9,6.8,7.3,8.9C450.1,147.8,446.9,158.2,442.3,168.9z M450.4,60.9
				c2.1-5.4,2.4-11.3,3.9-16.9c3.7-13.9,14.3-24.5,24.4-34.4c1.1,9.9,3.4,19.7,3.7,29.7c0.3,10.4-1,20.5,1,30.8
				c2.7,13.8,2.8,23.2-4.2,35.9c-2.5,4.6-5.2,9-7.7,13.6c-3.7,6.9-8.5,10.2-15.2,13.1c0.1-0.4,0.1-0.7,0.2-1.1
				c1.7-10.8,1.4-21.5,2.2-32.3c0.9-13.2,4.6-25.8,3.2-39.1c-0.1-1.2-2.1-1.7-2.3-0.3c-1.5,11-2.9,22.1-4.2,33.1
				c-1.6,13.7-0.6,27.3-2.8,41c-3.1-2.8-4.9-5.8-6.3-10.2c-0.8-2.7-1.6-7.2-4-9.1c3.1-11.3,0.2-20.7-1.9-32.3
				C442.5,74.4,447.4,68.8,450.4,60.9z M396.4,80.5c1.6-4.8,3.8-9.8,3.9-15c0.2-6.3-2.6-10.9-1.5-17.4c2.2-12.8,9.4-25.7,14.5-37.9
				c8.5,9.2,11.2,22.3,15.8,33.6c2.1,5,4.5,9.9,5.6,15.2c1.4,6.5,0.4,13.1,1.4,19.7c0.9,6.2,2.6,12.2,3.6,18.3
				c1.2,7.3,0.9,11.8-1.6,18.7c-1.2,3.4-2.1,3.2-2.7,6.8c-1,5.6,2.1,11.5-0.8,16.9c-2.2,4.1-6.5,6.7-9.4,10.4
				c-1.8-6.2-3.4-12.4-4.3-18.7c-1.6-11.5-1.5-23-1.4-34.6c0-9.9,1.7-20.7-2.2-30.1c-0.4-0.9-1.8-0.9-1.8,0.2
				c0,21.4-1.3,43.5,1.8,64.7c0.5,3.3,1.2,6.6,1.9,9.9c-0.2-0.3-0.5-0.5-0.7-0.8c-0.1-0.4-0.2-0.8-0.3-1.1c-0.2-0.6-0.8-0.6-1.2-0.3
				c-3.9-3.5-8.7-6.3-12-9.8c-6.7-7.1-7-16.1-9.7-25C393.2,95.7,393.6,89.1,396.4,80.5z M421.5,148.5c-0.4-1.3-0.8-2.5-1.2-3.7
				c0.1,0.1,0.2,0.3,0.3,0.4C420.9,146.3,421.2,147.4,421.5,148.5z M375.3,106.1c5.2,0.1,13.1-2.9,16.9,2c0.5,0.6,1.1,0.6,1.8,0.4
				c1.1,4.7,2.1,9.5,3.8,13.7c3.6,8.8,13,12.7,19.3,18.9c0,3.6,1.4,7.2,2.3,10.7c0.6,2.4,1.3,4.9,1.4,7.4c0,1.1-0.1,2.1-0.4,3.1
				c-1.5-1.6-3.1-3.2-4.5-4.7c-6.7-6.8-14-13.2-20.8-19.8c-4.3-4.2-7.9-7-14-7.2c-0.8,0-1.1,1.1-0.4,1.5c11.1,6,20.4,17.1,29.6,25.6
				c3,2.8,6.1,5.8,9.1,9c0,0,0,0,0,0.1c-0.1,0.5,0.3,1,0.9,0.8l0.1,0.1c-8,0.5-15.2,5.2-23.7,3.4c-13.9-3.1-14.9-14-17.4-25.6
				c-3.6-16.1-18.3-26.1-22.7-42C362.9,103.7,368.9,106,375.3,106.1z"/>
			<path class="st3" d="M441,389.1l-2.9-9v-21.5l-2-28.5l-4.5-19.4l-9.4-21.7l-18.7-16.8L391.2,262l-8.2-13.7c0,0-4.4-19-0.9-28.9
				c3.5-9.8,11.2-19.9,18.1-19.8c6.9,0,16.6-2.4,16.6-2.4l13.7-1.4H452c0,0,29.1,7.4,30.6,11c1.6,3.6,6.5,12.3,6.6,18
				c0.2,5.7,1,18.2-1.9,25.1s-12.3,21.5-16.8,26.8s-19.7,26.2-21.5,36.7s2.8,40.7-3.9,62.4l-2.2,11.2L441,389.1z"/>
		</g>
		<g>
			<g>
				<path class="st0" d="M498,399.1c-0.2,0-0.4,0-0.6-0.1c-0.8-0.3-1.1-1.2-0.8-2c1.6-4,3.7-6.4,5.8-8.8c0.6-0.7,1.2-1.4,1.8-2.2
					c2.5-3.1,2.9-5.2,3.2-8c0.2-1.7,1-7.3,3.6-10.1c1.2-1.3,2-3.1,2.8-5.2c0.3-0.7,0.6-1.5,1-2.2c0.6-1.2,1.1-2.8,1.6-4.4
					c0.7-2.1,1.4-4.1,2.2-5.3c0.4-0.7,1.4-0.9,2.1-0.5c0.7,0.4,0.9,1.4,0.5,2.1c-0.6,0.9-1.2,2.8-1.9,4.7c-0.6,1.6-1.1,3.3-1.7,4.7
					c-0.3,0.7-0.6,1.4-0.9,2.1c-0.9,2.2-1.8,4.3-3.4,6.1c-1.5,1.6-2.5,5.4-2.8,8.4s-0.9,5.8-3.9,9.5c-0.6,0.8-1.3,1.5-1.9,2.3
					c-2,2.3-3.8,4.4-5.3,7.9C499.1,398.8,498.6,399.1,498,399.1z"/>
			</g>
			<g>
				<path class="st0" d="M508.9,402c-0.2,0-0.3,0-0.5-0.1c-0.8-0.3-1.2-1.2-0.9-1.9c1.5-4.1,1.9-4.7,3.5-7.2l1.2-1.8
					c1.7-2.7,3.9-6,4.2-7.1c0-0.2,0.1-0.5,0.2-0.8c0.4-1.8,1.3-5.4,0.8-8.1c-0.7-3.8,0-9.5,2.8-12.9c2.6-3.1,4.4-6.6,4.4-7.8
					c0-0.8,0.7-1.5,1.5-1.5s1.5,0.7,1.5,1.5c0,2.5-2.6,6.8-5.1,9.7c-2.1,2.6-2.8,7.3-2.2,10.4c0.6,3.3-0.3,7.3-0.8,9.4
					c-0.1,0.3-0.1,0.5-0.2,0.7c-0.3,1.6-2,4.1-4.6,8.1l-1.2,1.8c-1.5,2.3-1.8,2.7-3.2,6.6C510.1,401.6,509.5,402,508.9,402z"/>
			</g>
			<g>
				<path class="st0" d="M527.2,403L527.2,403c-0.9-0.1-1.5-0.8-1.5-1.6l0.1-1.3c0.3-3.9,0.5-7,1.5-10.3c1-3.4,1.1-10.3,1-12.3
					c-0.1-1.9-1.5-5.7-2.4-7.6c-1.3-2.9,1.7-9.9,5.4-15c0.5-0.7,1.4-0.8,2.1-0.3c0.7,0.5,0.8,1.4,0.3,2.1c-4.2,5.8-5.5,11-5.1,11.9
					c0.9,2,2.5,6.2,2.7,8.7c0.2,2.3,0,9.6-1.1,13.4c-0.9,3-1.1,6-1.4,9.7l-0.1,1.3C528.7,402.4,528,403,527.2,403z"/>
			</g>
			<g>
				<path class="st0" d="M544,253.2c2.4-11.1,13.5-43,18.7-67.9s13-63.3,15-73.1c2.1-9.9,3.6-18.7,4.7-20.2c0,0,4.1-8.8,4.1-10.4
					s2.1-2.1,3.1,2.6s6.2,16.1,4.1,33.2c-2.1,17.1-10.4,49.5-10.4,49.5s14.5-30.8,20.7-47.9s9.3-25.4,11.4-30.1
					c2.1-4.7,6.2,1.6,5.7,7.3s-4.7,24.4-7.3,32.7s-5.2,17.6-5.2,17.6s12.4-19.7,20.7-27.5s27-25.4,17.1-4.7s-15,32.1-15.6,37.3
					c-0.5,5.2,8.3-7.8,14.5-15s9.3-7.8,14-13s9.3-2.1,0,10.4c-9.3,12.4-33.7,57.6-43.6,71c-9.9,13.5-27.5,42-35.3,53.4
					c-7.8,11.4-16.1,28.5-11.9,41c4.1,12.4,16.1,32.7,9.3,46.2c-6.7,13.5-25.4,12.4-34.2,11.9c0,0-8.2-2-11.2,0.3s-6.7-0.9-9.4-2.3
					c-2.7-1.3-9.4-2.7-9.8-3.7c-0.3-1-1.2-3.7-3.2-4.5s-14.6-8.1-17.8-13.1s-11.1-21,4.5-31.3s29.3-12.4,35.7-21.4
					C541.3,269.9,541.6,264.3,544,253.2z"/>
			</g>
			<g>
				<path class="st0" d="M489.9,387.2c-0.4,0-0.8-0.2-1.1-0.5c-0.5-0.6-0.5-1.6,0.1-2.1c3.7-3.3,6.5-6.1,8.4-8.7
					c0.7-0.9,1.4-2.2,2.2-3.6c1.3-2.3,2.6-4.7,4.2-6.3c3.1-3.1,6.8-7.3,7.5-9.7c1.1-3.3,2.7-6.4,3.7-7.9c0.5-0.7,1.4-0.9,2.1-0.4
					c0.7,0.5,0.9,1.4,0.4,2.1c-0.9,1.4-2.4,4.4-3.4,7.2c-1.2,3.5-6.2,8.7-8.3,10.8c-1.3,1.3-2.6,3.6-3.7,5.6c-0.8,1.5-1.6,2.9-2.4,4
					c-2,2.7-4.9,5.7-8.8,9.2C490.6,387.1,490.3,387.2,489.9,387.2z"/>
			</g>
		</g>
	</g>
	<g>
		<path class="st4" d="M393.4,632.9h-9.6v61.6h9.2v5.1h-28.1v-5.1h9.2V639l-24.6,50h-6.8L318,639v55.5h9.2v5.1H303v-5.1h9.2v-61.6
			h-9.7v-5.1h20.9l25.2,51.1l25.2-51.1h19.6V632.9z"/>
		<path class="st4" d="M473.6,663.7c0,5.7-0.9,10.8-2.7,15.6c-1.8,4.7-4.5,8.7-8,12.2c-3.2,3.2-6.8,5.6-10.8,7.1
			c-3.9,1.6-8.4,2.4-13.4,2.4c-4.9,0-9.3-0.8-13.4-2.4c-4.2-1.7-7.8-4.1-10.8-7.1c-3.6-3.6-6.3-7.7-8.1-12.2
			c-1.7-4.6-2.6-9.8-2.6-15.6c0-5.6,0.9-10.8,2.6-15.6c1.8-4.5,4.5-8.6,8.1-12.2c3.2-3.2,6.8-5.6,10.8-7.1c3.9-1.6,8.4-2.4,13.4-2.4
			c10.5,0,18.9,3.4,25.2,10.2C470.4,643.4,473.6,652.4,473.6,663.7z M462.6,663.7c0-10.6-2-18.7-6-24c-4-5.4-10-8.1-17.8-8.1
			s-13.8,2.7-17.8,8.1c-4,5.5-6,13.5-6,24c0,10.6,2,18.6,6,24c4.1,5.4,10,8.1,17.8,8.1s13.8-2.7,17.8-8.1
			C460.6,682.3,462.6,674.3,462.6,663.7z"/>
		<path class="st4" d="M560.9,632.9h-9.7V701h-5.8l-46-60.5v54h9.7v5.1h-25.2v-5.1h9.7v-61.6h-9.7v-5.1h18.4l43.1,56.6v-51.5h-9.7
			v-5.1h25.2V632.9z"/>
		<path class="st4" d="M625.5,680c0,7-2.2,12.2-6.7,15.7s-11.1,5.3-19.9,5.3c-3.9,0-7.9-0.4-12-1.2c-4.2-0.8-8.4-2-12.5-3.6v-16.4
			h5.5c0.1,5.5,1.6,9.5,4.7,12.1c3,2.6,7.6,3.9,13.7,3.9c5.6,0,10-1.1,13-3.3c3-2.4,4.5-5.7,4.5-10c0-3.5-0.9-6.1-2.8-8
			c-1.7-1.8-5.5-3.6-11.4-5.4l-9.5-2.9c-6.7-2-11.5-4.6-14.5-7.8c-2.8-3-4.2-7.3-4.2-12.8c0-6.1,2.2-10.8,6.5-14.2s10.4-5,18.2-5
			c3.2,0,6.8,0.4,10.9,1.1c3.8,0.7,8,1.7,12.7,3.2V646h-5.4c-0.5-4.9-2.2-8.6-5.1-11c-2.8-2.2-7.1-3.4-12.9-3.4
			c-5.2,0-9,1.1-11.5,3.2c-2.7,1.9-4,4.9-4,9c0,3.4,1,6.1,3.1,8.1c2,2,6.2,4,12.6,5.8l8.9,2.7c6.5,2,11.2,4.5,14,7.5
			C624.1,670.8,625.5,674.9,625.5,680z"/>
	</g>
</g>
</svg>
